{
.appVersion = "916";
customParameters = (
{
name = glyphOrder;
value = (
dvA,
dvAA,
dvmAA,
dvI,
dvII,
dvU,
dvUU,
dvvR,
dvvRR,
dvvL,
dvEcandra,
dvE,
dvAI,
dvmE,
dvOcandra,
dvO,
dvAU,
dvmAI,
dvmI,
dvmII,
dvmOcandra,
dvmEcandra,
dvmO,
dvmAU,
dvKA,
dvKHA,
dvGA,
dvGHA,
dvNGA,
dvCA,
dvCHA,
dvJA,
dvJHA,
dvNYA,
dvTTA,
dvTTHA,
dvDDA,
dvDDHA,
dvNNA,
dvTA,
dvTHA,
dvDA,
dvDHA,
dvNA,
dvPA,
dvPHA,
dvBA,
dvBHA,
dvMA,
dvYA,
dvRA,
dvLA,
dvLLA,
dvNukta,
dvVA,
dvSHA,
dvSSA,
dvSA,
dvHA,
dvKxA,
dvKHxA,
dvGxA,
dvJxA,
dvDDxA,
dvDDHxA,
dvPHxA,
danda,
doubledanda,
space,
CR,
.notdef,
dvVisarga,
dvmU,
dvmUU,
dvmvR,
dvCandrabindu,
dvAnusvara,
dvVirama,
dvK_SSA,
dvJ_NYA,
dvReph,
dvK,
dvKH,
dvG,
dvGH,
dvC,
dvCH,
dvJ,
dvJH,
dvNY,
dvNN,
dvT,
dvTH,
dvDH,
dvN,
dvP,
dvPH,
dvB,
dvBH,
dvM,
dvY,
dvL,
dvLL,
dvV,
dvSH,
dvSS,
dvS,
dvJ_NY,
dvK_R,
dvKH_R,
dvK_RA,
dvKH_RA,
dvG_RA,
dvGH_RA,
dvNG_RA,
dvRashtrasign,
dvC_RA,
dvCH_RA,
dvJ_RA,
dvJH_RA,
dvNY_RA,
dvTT_RA,
dvTTH_RA,
dvDD_RA,
dvDDH_RA,
dvNN_RA,
dvT_RA,
dvTH_RA,
dvD_RA,
dvDH_RA,
dvP_RA,
dvPH_RA,
dvB_RA,
dvBH_RA,
dvM_RA,
dvY_RA,
dvV_RA,
dvK_TA,
dvTT_TTA,
dvTT_TTHA,
dvTT_VA,
dvTTH_TTHA,
dvDD_DDA,
dvDD_DDHA,
dvDD_VA,
dvDDH_DDHA,
dvT_TA,
dvD_VA,
dvD_YA,
dvP_TA,
dvP_TTA,
dvP_TTHA,
dvSH_VA,
dvSH_RA,
dvSS_TTA,
dvSS_TTHA,
dvSS_TT_VA,
dvS_RA,
dvS_T_RA,
dvH_MA,
dvH_YA,
dvH_RA,
dvH_VA,
dvHA_mvR,
dvG_R,
dvGH_R,
dvC_R,
dvJ_R,
dvJH_R,
dvNY_R,
dvNN_R,
dvT_R,
dvTH_R,
dvDH_R,
dvP_R,
dvPH_R,
dvB_R,
dvBH_R,
dvM_R,
dvY_R,
dvV_R,
dvSH_NA,
dvS_NA,
dvH_NA,
dvDA_mvR,
dvSH_CA,
dvSHA_mvR,
dvTT_YA,
dvTTH_YA,
dvDD_YA,
dvDDH_YA,
dvKx,
dvKHx,
dvGx,
dvJx,
dvPHx,
dvK_SS,
dvD_MA,
dvII_Anusvara,
dvK_KA,
dvK_KHA,
dvK_SA,
dvK_YA,
dvK_VA,
dvC_CA,
dvT_KA,
dvT_PA,
dvT_SA,
dvS_YA,
dvS_TTA,
dvT_K_YA,
dvT_K_RA,
dvT_K_VA,
dvT_K_SSA,
dvT_P_RA,
dvT_S_YA,
dvT_VA,
dvT_KHA,
dvT_THA,
dvT_PHA,
dvT_MA,
dvT_YA,
dvT_LA,
dvTH_YA,
dvTH_VA,
dvK_CA,
dvK_JA,
dvK_TTA,
dvK_NNA,
dvK_THA,
dvK_DA,
dvK_PA,
dvK_PHA,
dvK_MA,
dvK_LA,
dvKH_KHA,
dvKH_TA,
dvKH_MA,
dvKH_YA,
dvKH_VA,
dvKH_SHA,
dvG_GA,
dvG_GHA,
dvG_JA,

glyphs = (
{
glyphname = dvA;
lastChange = "2016-08-13 07:58:21 +0000";
layers = (
{
layerId = "C0ED9D5D-A651-429A-8F5D-D93A2EDA2DC0";
paths = (
{
closed = 1;
nodes = (
"657 0 LINE",
"722 0 LINE",
"722 680 LINE",
"862 680 LINE",
"862 740 LINE",
"657 740 LINE",
"657 399 LINE",
"398 399 LINE",
"424 344 LINE",
"657 344 LINE"
);
},
{
closed = 1;
nodes = (
"256 445 LINE",
"256 385 LINE",
"296 385 LINE SMOOTH",
"386 385 OFFCURVE",
"446 344 OFFCURVE",
"446 254 CURVE SMOOTH",
"446 164 OFFCURVE",
"388 107 OFFCURVE",
"298 107 CURVE SMOOTH",
"209 107 OFFCURVE",
"146 164 OFFCURVE",
"146 253 CURVE",
"86 253 LINE",
"86 130 OFFCURVE",
"175 52 OFFCURVE",
"298 52 CURVE SMOOTH",
"421 52 OFFCURVE",
"506 131 OFFCURVE",
"506 254 CURVE SMOOTH",
"506 330 OFFCURVE",
"464 394 OFFCURVE",
"385 415 CURVE",
"385 421 LINE",
"458 444 OFFCURVE",
"494 496 OFFCURVE",
"494 567 CURVE SMOOTH",
"494 680 OFFCURVE",
"407 750 OFFCURVE",
"294 750 CURVE SMOOTH",
"181 750 OFFCURVE",
"94 680 OFFCURVE",
"94 567 CURVE",
"154 567 LINE",
"154 646 OFFCURVE",
"215 695 OFFCURVE",
"294 695 CURVE SMOOTH",
"377 695 OFFCURVE",
"434 647 OFFCURVE",
"434 567 CURVE SMOOTH",
"434 486 OFFCURVE",
"368 445 OFFCURVE",
"289 445 CURVE SMOOTH"
);
}
);
width = 822;
},
{
layerId = "22D14058-393A-410A-BECB-F56B411A01B2";
paths = (
{
closed = 1;
nodes = (
"626 0 LINE",
"790 0 LINE",
"790 600 LINE",
"885 600 LINE",
"885 740 LINE",
"626 740 LINE",
"626 396 LINE",
"411 396 LINE",
"411 258 LINE",
"411 258 OFFCURVE",
"626 258 OFFCURVE",
"626 258 CURVE"
);
},
{
closed = 1;
nodes = (
"249 485 LINE",
"249 485 OFFCURVE",
"249 341 OFFCURVE",
"249 341 CURVE",
"249 341 OFFCURVE",
"267 341 OFFCURVE",
"276 341 CURVE SMOOTH",
"343 341 OFFCURVE",
"376 317 OFFCURVE",
"376 269 CURVE SMOOTH",
"376 231 OFFCURVE",
"354 202 OFFCURVE",
"311 202 CURVE SMOOTH",
"269 202 OFFCURVE",
"244 232 OFFCURVE",
"244 271 CURVE",
"87 271 LINE",
"87 137 OFFCURVE",
"178 60 OFFCURVE",
"309 60 CURVE SMOOTH",
"438 60 OFFCURVE",
"531 130 OFFCURVE",
"531 270 CURVE SMOOTH",
"531 330 OFFCURVE",
"495 390 OFFCURVE",
"434 415 CURVE",
"434 418 LINE",
"486 440 OFFCURVE",
"522 493 OFFCURVE",
"522 562 CURVE SMOOTH",
"522 675 OFFCURVE",
"440 749 OFFCURVE",
"313 749 CURVE SMOOTH",
"185 749 OFFCURVE",
"93 667 OFFCURVE",
"93 547 CURVE",
"250 547 LINE",
"252 581 OFFCURVE",
"270 607 OFFCURVE",
"309 607 CURVE SMOOTH",
"350 607 OFFCURVE",
"363 577 OFFCURVE",
"363 548 CURVE SMOOTH",
"363 505 OFFCURVE",
"329 485 OFFCURVE",
"280 485 CURVE SMOOTH"
);
}
);
width = 865;
}
);
unicode = 0905;
},
{
glyphname = dvmAA;
lastChange = "2016-08-13 07:58:21 +0000";
layers = (
{
layerId = "C0ED9D5D-A651-429A-8F5D-D93A2EDA2DC0";
paths = (
{
closed = 1;
nodes = (
"305 680 CURVE",
"305 740 LINE",
"-40 740 LINE",
"-40 680 LINE",
"100 680 LINE",
"100 0 LINE",
"165 0 LINE",
"165 680 LINE",
"165 680 OFFCURVE",
"305 680 OFFCURVE"
);
}
);
width = 265;
},
{
layerId = "22D14058-393A-410A-BECB-F56B411A01B2";
paths = (
{
closed = 1;
nodes = (
"334 600 LINE",
"334 740 LINE",
"-20 740 LINE",
"-20 600 LINE",
"75 600 LINE",
"75 0 LINE",
"239 0 LINE",
"239 600 LINE"
);
}
);
width = 314;
}
);
unicode = 093E;
},
{
glyphname = dvI;
lastChange = "2016-08-13 07:58:21 +0000";
layers = (
{
layerId = "C0ED9D5D-A651-429A-8F5D-D93A2EDA2DC0";
paths = (
{
closed = 1;
nodes = (
"638 680 LINE",
"638 740 LINE",
"-40 740 LINE",
"-40 680 LINE"
);
},
{
closed = 1;
nodes = (
"426 512 LINE",
"491 512 LINE",
"491 718 LINE",
"426 718 LINE"
);
},
{
closed = 1;
nodes = (
"113 -75 LINE",
"178 -75 LINE",
"178 66 LINE",
"214 16 OFFCURVE",
"270 -10 OFFCURVE",
"356 -10 CURVE SMOOTH",
"483 -10 OFFCURVE",
"551 63 OFFCURVE",
"551 156 CURVE SMOOTH",
"551 298 OFFCURVE",
"435 316 OFFCURVE",
"323 316 CURVE SMOOTH",
"244 316 OFFCURVE",
"184 329 OFFCURVE",
"184 410 CURVE SMOOTH",
"184 488 OFFCURVE",
"252 501 OFFCURVE",
"327 501 CURVE SMOOTH",
"491 501 LINE",
"491 561 LINE",
"458 561 LINE",
"326 561 LINE SMOOTH",
"222 561 OFFCURVE",
"119 531 OFFCURVE",
"119 410 CURVE SMOOTH",
"119 289 OFFCURVE",
"212 258 OFFCURVE",
"337 258 CURVE SMOOTH",
"410 258 OFFCURVE",
"486 252 OFFCURVE",
"486 162 CURVE SMOOTH",
"486 84 OFFCURVE",
"429 50 OFFCURVE",
"343 50 CURVE SMOOTH",
"233 50 OFFCURVE",
"184 110 OFFCURVE",
"178 202 CURVE",
"113 202 LINE"
);
}
);
width = 598;
},
{
layerId = "22D14058-393A-410A-BECB-F56B411A01B2";
paths = (
{
closed = 1;
nodes = (
"604 600 LINE",
"604 740 LINE",
"-20 740 LINE",
"-20 600 LINE"
);
},
{
closed = 1;
nodes = (
"313 496 LINE",
"478 496 LINE",
"478 718 LINE",
"313 718 LINE"
);
},
{
closed = 1;
nodes = (
"85 -85 LINE",
"240 -85 LINE",
"240 17 LINE",
"263 -7 OFFCURVE",
"310 -19 OFFCURVE",
"348 -19 CURVE SMOOTH",
"461 -19 OFFCURVE",
"539 54 OFFCURVE",
"539 162 CURVE SMOOTH",
"539 306 OFFCURVE",
"429 336 OFFCURVE",
"324 336 CURVE SMOOTH",
"271 336 OFFCURVE",
"235 338 OFFCURVE",
"235 373 CURVE SMOOTH",
"235 403 OFFCURVE",
"270 411 OFFCURVE",
"323 411 CURVE SMOOTH",
"478 411 LINE",
"478 508 LINE",
"328 541 LINE",
"274 541 LINE SMOOTH",
"165 541 OFFCURVE",
"69 494 OFFCURVE",
"69 384 CURVE SMOOTH",
"69 228 OFFCURVE",
"197 211 OFFCURVE",
"288 211 CURVE SMOOTH",
"342 211 OFFCURVE",
"379 201 OFFCURVE",
"379 159 CURVE SMOOTH",
"379 124 OFFCURVE",
"352 107 OFFCURVE",
"314 107 CURVE SMOOTH",
"268 107 OFFCURVE",
"240 133 OFFCURVE",
"240 179 CURVE",
"85 179 LINE"
);
}
);
width = 584;
}
);
unicode = 0907;
},
{
glyphname = dvII;
lastChange = "2016-08-13 07:58:21 +0000";
layers = (
{
layerId = "C0ED9D5D-A651-429A-8F5D-D93A2EDA2DC0";
paths = (
{
closed = 1;
nodes = (
"638 680 LINE",
"638 740 LINE",
"-40 740 LINE",
"-40 680 LINE"
);
},
{
closed = 1;
nodes = (
"426 512 LINE",
"491 512 LINE",
"491 718 LINE",
"426 718 LINE"
);
},
{
closed = 1;
nodes = (
"113 -75 LINE",
"178 -75 LINE",
"178 66 LINE",
"214 16 OFFCURVE",
"270 -10 OFFCURVE",
"356 -10 CURVE SMOOTH",
"483 -10 OFFCURVE",
"551 63 OFFCURVE",
"551 156 CURVE SMOOTH",
"551 298 OFFCURVE",
"435 316 OFFCURVE",
"323 316 CURVE SMOOTH",
"244 316 OFFCURVE",
"184 329 OFFCURVE",
"184 410 CURVE SMOOTH",
"184 488 OFFCURVE",
"252 501 OFFCURVE",
"327 501 CURVE SMOOTH",
"491 501 LINE",
"491 561 LINE",
"471 561 LINE",
"326 561 LINE SMOOTH",
"222 561 OFFCURVE",
"119 531 OFFCURVE",
"119 410 CURVE SMOOTH",
"119 289 OFFCURVE",
"212 258 OFFCURVE",
"337 258 CURVE SMOOTH",
"410 258 OFFCURVE",
"486 252 OFFCURVE",
"486 162 CURVE SMOOTH",
"486 84 OFFCURVE",
"429 50 OFFCURVE",
"343 50 CURVE SMOOTH",
"233 50 OFFCURVE",
"184 110 OFFCURVE",
"178 202 CURVE",
"113 202 LINE"
);
},
{
closed = 1;
nodes = (
"428 846 CURVE SMOOTH",
"428 812 OFFCURVE",
"428 747 OFFCURVE",
"429 714 CURVE",
"489 714 LINE",
"489 846 LINE SMOOTH",
"489 938 OFFCURVE",
"515 987 OFFCURVE",
"586 987 CURVE SMOOTH",
"655 987 OFFCURVE",
"679 947 OFFCURVE",
"681 881 CURVE",
"736 881 LINE",
"736 976 OFFCURVE",
"684 1041 OFFCURVE",
"587 1041 CURVE SMOOTH",
"474 1041 OFFCURVE",
"428 971 OFFCURVE"
);
}
);
width = 598;
},
{
layerId = "22D14058-393A-410A-BECB-F56B411A01B2";
paths = (
{
closed = 1;
nodes = (
"604 600 LINE",
"604 740 LINE",
"-20 740 LINE",
"-20 600 LINE"
);
},
{
closed = 1;
nodes = (
"313 496 LINE",
"478 496 LINE",
"478 718 LINE",
"313 718 LINE"
);
},
{
closed = 1;
nodes = (
"85 -85 LINE",
"240 -85 LINE",
"240 17 LINE",
"263 -7 OFFCURVE",
"310 -19 OFFCURVE",
"348 -19 CURVE SMOOTH",
"461 -19 OFFCURVE",
"539 54 OFFCURVE",
"539 162 CURVE SMOOTH",
"539 306 OFFCURVE",
"429 336 OFFCURVE",
"324 336 CURVE SMOOTH",
"271 336 OFFCURVE",
"235 338 OFFCURVE",
"235 373 CURVE SMOOTH",
"235 403 OFFCURVE",
"270 411 OFFCURVE",
"323 411 CURVE SMOOTH",
"478 411 LINE",
"478 508 LINE",
"328 541 LINE",
"274 541 LINE SMOOTH",
"165 541 OFFCURVE",
"69 494 OFFCURVE",
"69 384 CURVE SMOOTH",
"69 228 OFFCURVE",
"197 211 OFFCURVE",
"288 211 CURVE SMOOTH",
"342 211 OFFCURVE",
"379 201 OFFCURVE",
"379 159 CURVE SMOOTH",
"379 124 OFFCURVE",
"352 107 OFFCURVE",
"314 107 CURVE SMOOTH",
"268 107 OFFCURVE",
"240 133 OFFCURVE",
"240 179 CURVE",
"85 179 LINE"
);
},
{
closed = 1;
nodes = (
"323 803 CURVE SMOOTH",
"323 710 LINE",
"464 710 LINE",
"464 805 LINE SMOOTH",
"464 872 OFFCURVE",
"476 910 OFFCURVE",
"521 910 CURVE SMOOTH",
"557 910 OFFCURVE",
"569 881 OFFCURVE",
"569 837 CURVE",
"710 837 LINE",
"710 966 OFFCURVE",
"647 1045 OFFCURVE",
"521 1045 CURVE SMOOTH",
"358 1045 OFFCURVE",
"323 923 OFFCURVE"
);
}
);
width = 584;
}
);
},
{
glyphname = dvU;
lastChange = "2016-08-13 07:58:21 +0000";
layers = (
{
layerId = "C0ED9D5D-A651-429A-8F5D-D93A2EDA2DC0";
paths = (
{
closed = 1;
nodes = (
"480 712 LINE",
"420 700 LINE",
"420 641 LINE",
"420 528 OFFCURVE",
"390 439 OFFCURVE",
"275 439 CURVE SMOOTH",
"242 439 LINE",
"242 378 LINE",
"275 378 LINE SMOOTH",
"367 378 OFFCURVE",
"452 327 OFFCURVE",
"452 218 CURVE SMOOTH",
"452 127 OFFCURVE",
"393 63 OFFCURVE",
"300 63 CURVE SMOOTH",
"206 63 OFFCURVE",
"132 135 OFFCURVE",
"132 229 CURVE",
"72 229 LINE",
"72 98 OFFCURVE",
"161 8 OFFCURVE",
"300 8 CURVE SMOOTH",
"433 8 OFFCURVE",
"512 86 OFFCURVE",
"512 220 CURVE SMOOTH",
"512 315 OFFCURVE",
"458 380 OFFCURVE",
"381 406 CURVE",
"381 412 LINE",
"470 457 OFFCURVE",
"480 539 OFFCURVE",
"480 644 CURVE"
);
},
{
closed = 1;
nodes = (
"625 680 LINE",
"625 740 LINE",
"-40 740 LINE",
"-40 680 LINE"
);
}
);
width = 585;
},
{
layerId = "22D14058-393A-410A-BECB-F56B411A01B2";
paths = (
{
closed = 1;
nodes = (
"497 703 LINE",
"341 703 LINE",
"341 582 LINE SMOOTH",
"341 496 OFFCURVE",
"327 456 OFFCURVE",
"253 456 CURVE SMOOTH",
"216 456 LINE",
"216 456 OFFCURVE",
"216 313 OFFCURVE",
"216 313 CURVE",
"216 313 OFFCURVE",
"253 313 OFFCURVE",
"263 313 CURVE SMOOTH",
"328 313 OFFCURVE",
"369 290 OFFCURVE",
"369 232 CURVE SMOOTH",
"369 184 OFFCURVE",
"339 153 OFFCURVE",
"291 153 CURVE SMOOTH",
"235 153 OFFCURVE",
"199 195 OFFCURVE",
"199 253 CURVE",
"45 253 LINE",
"45 102 OFFCURVE",
"143 9 OFFCURVE",
"289 9 CURVE SMOOTH",
"428 9 OFFCURVE",
"522 94 OFFCURVE",
"522 229 CURVE SMOOTH",
"522 308 OFFCURVE",
"476 365 OFFCURVE",
"412 387 CURVE",
"412 390 LINE",
"480 418 OFFCURVE",
"497 483 OFFCURVE",
"497 584 CURVE SMOOTH"
);
},
{
closed = 1;
nodes = (
"587 600 CURVE",
"587 740 LINE",
"-27 740 LINE",
"-27 600 LINE",
"-27 600 OFFCURVE",
"587 600 OFFCURVE"
);
}
);
width = 567;
}
);
unicode = 0909;
},
{
glyphname = dvUU;
lastChange = "2016-08-13 07:58:21 +0000";
layers = (
{
layerId = "C0ED9D5D-A651-429A-8F5D-D93A2EDA2DC0";
paths = (
{
closed = 1;
nodes = (
"479 712 LINE",
"419 700 LINE",
"419 641 LINE SMOOTH",
"419 528 OFFCURVE",
"389 439 OFFCURVE",
"274 439 CURVE SMOOTH",
"241 439 LINE",
"241 378 LINE",
"274 378 LINE SMOOTH",
"366 378 OFFCURVE",
"451 327 OFFCURVE",
"451 218 CURVE SMOOTH",
"451 125 OFFCURVE",
"392 63 OFFCURVE",
"299 63 CURVE SMOOTH",
"204 63 OFFCURVE",
"131 135 OFFCURVE",
"131 229 CURVE",
"71 229 LINE",
"71 99 OFFCURVE",
"161 8 OFFCURVE",
"299 8 CURVE SMOOTH",
"432 8 OFFCURVE",
"511 87 OFFCURVE",
"511 220 CURVE SMOOTH",
"511 315 OFFCURVE",
"457 380 OFFCURVE",
"380 406 CURVE",
"380 412 LINE",
"469 457 OFFCURVE",
"479 539 OFFCURVE",
"479 644 CURVE SMOOTH"
);
},
{
closed = 1;
nodes = (
"897 680 LINE",
"897 740 LINE",
"-40 740 LINE",
"-40 680 LINE"
);
},
{
closed = 1;
nodes = (
"363 406 LINE",
"407 348 LINE",
"558 348 LINE",
"577 348 LINE",
"679 348 OFFCURVE",
"742 323 OFFCURVE",
"742 216 CURVE SMOOTH",
"742 92 OFFCURVE",
"665 75 OFFCURVE",
"550 84 CURVE",
"550 30 LINE",
"690 15 OFFCURVE",
"806 50 OFFCURVE",
"806 216 CURVE",
"806 357 OFFCURVE",
"715 406 OFFCURVE",
"577 406 CURVE",
"557 406 LINE"
);
}
);
width = 857;
},
{
layerId = "22D14058-393A-410A-BECB-F56B411A01B2";
paths = (
{
closed = 1;
nodes = (
"497 703 LINE",
"341 703 LINE",
"341 582 LINE SMOOTH",
"341 496 OFFCURVE",
"327 456 OFFCURVE",
"253 456 CURVE SMOOTH",
"216 456 LINE",
"216 456 OFFCURVE",
"216 313 OFFCURVE",
"216 313 CURVE",
"216 313 OFFCURVE",
"253 313 OFFCURVE",
"263 313 CURVE SMOOTH",
"328 313 OFFCURVE",
"369 290 OFFCURVE",
"369 232 CURVE SMOOTH",
"369 184 OFFCURVE",
"339 153 OFFCURVE",
"291 153 CURVE SMOOTH",
"235 153 OFFCURVE",
"199 195 OFFCURVE",
"199 253 CURVE",
"45 253 LINE",
"45 102 OFFCURVE",
"143 9 OFFCURVE",
"289 9 CURVE SMOOTH",
"428 9 OFFCURVE",
"522 94 OFFCURVE",
"522 229 CURVE SMOOTH",
"522 305 OFFCURVE",
"471 357 OFFCURVE",
"412 382 CURVE",
"412 388 LINE",
"478 417 OFFCURVE",
"497 481 OFFCURVE",
"497 584 CURVE SMOOTH"
);
},
{
closed = 1;
nodes = (
"867 600 CURVE",
"867 740 LINE",
"-20 740 LINE",
"-20 600 LINE",
"-20 600 OFFCURVE",
"867 600 OFFCURVE"
);
},
{
closed = 1;
nodes = (
"408 382 LINE",
"436 248 LINE",
"569 248 LINE",
"581 248 LINE",
"620 248 OFFCURVE",
"655 235 OFFCURVE",
"655 193 CURVE SMOOTH",
"655 153 OFFCURVE",
"623 137 OFFCURVE",
"559 142 CURVE",
"559 17 LINE",
"722 1 OFFCURVE",
"815 65 OFFCURVE",
"815 196 CURVE SMOOTH",
"815 325 OFFCURVE",
"725 382 OFFCURVE",
"582 382 CURVE",
"568 382 LINE"
);
}
);
width = 848;
}
);
},
{
glyphname = dvvR;
lastChange = "2016-08-13 07:58:21 +0000";
layers = (
{
layerId = "C0ED9D5D-A651-429A-8F5D-D93A2EDA2DC0";
paths = (
{
closed = 1;
nodes = (
"490 0 LINE",
"555 0 LINE",
"555 340 OFFCURVE",
"555 680 OFFCURVE",
"555 680 CURVE",
"1004 680 LINE",
"1004 740 LINE",
"-40 740 LINE",
"-40 680 LINE",
"490 680 LINE"
);
},
{
closed = 1;
nodes = (
"129 319 LINE",
"129 439 OFFCURVE",
"201 513 OFFCURVE",
"316 513 CURVE SMOOTH",
"424 513 OFFCURVE",
"490 432 OFFCURVE",
"490 319 CURVE",
"521 325 LINE",
"531 449 OFFCURVE",
"461 573 OFFCURVE",
"306 573 CURVE SMOOTH",
"160 573 OFFCURVE",
"64 471 OFFCURVE",
"64 319 CURVE"
);
},
{
closed = 1;
nodes = (
"119 5 LINE",
"119 0 LINE",
"119 0 OFFCURVE",
"202 0 OFFCURVE",
"202 0 CURVE",
"511 317 LINE",
"511 317 OFFCURVE",
"496 376 OFFCURVE",
"496 376 CURVE"
);
},
{
closed = 1;
nodes = (
"806 570 LINE",
"806 216 LINE",
"871 226 LINE",
"871 570 LINE"
);
},
{
closed = 1;
nodes = (
"871 272 LINE",
"839 272 LINE SMOOTH",
"729 272 OFFCURVE",
"665 205 OFFCURVE",
"665 104 CURVE SMOOTH",
"665 -14 OFFCURVE",
"751 -64 OFFCURVE",
"850 -64 CURVE SMOOTH",
"872 -64 OFFCURVE",
"898 -61 OFFCURVE",
"915 -54 CURVE",
"915 0 LINE",
"894 -6 OFFCURVE",
"872 -9 OFFCURVE",
"851 -9 CURVE SMOOTH",
"784 -9 OFFCURVE",
"726 23 OFFCURVE",
"726 104 CURVE SMOOTH",
"726 174 OFFCURVE",
"767 216 OFFCURVE",
"839 216 CURVE SMOOTH",
"871 216 LINE"
);
},
{
closed = 1;
nodes = (
"744 414 LINE",
"832 414 OFFCURVE",
"871 458 OFFCURVE",
"871 544 CURVE SMOOTH",
"871 581 LINE",
"806 581 LINE",
"806 546 LINE SMOOTH",
"806 492 OFFCURVE",
"800 471 OFFCURVE",
"743 471 CURVE SMOOTH",
"528 471 LINE",
"528 414 LINE"
);
}
);
width = 964;
},
{
layerId = "22D14058-393A-410A-BECB-F56B411A01B2";
paths = (
{
closed = 1;
nodes = (
"467 0 LINE",
"631 0 LINE",
"631 600 LINE",
"1062 600 LINE",
"1062 740 LINE",
"-20 740 LINE",
"-20 600 LINE",
"467 600 LINE"
);
},
{
closed = 1;
nodes = (
"226 254 LINE",
"226 331 OFFCURVE",
"266 390 OFFCURVE",
"341 390 CURVE SMOOTH",
"423 390 OFFCURVE",
"467 342 OFFCURVE",
"467 263 CURVE",
"544 217 LINE",
"548 383 OFFCURVE",
"489 528 OFFCURVE",
"312 528 CURVE SMOOTH",
"153 528 OFFCURVE",
"63 414 OFFCURVE",
"63 254 CURVE"
);
},
{
closed = 1;
nodes = (
"89 7 CURVE",
"89 0 LINE",
"89 0 OFFCURVE",
"304 0 OFFCURVE",
"304 0 CURVE",
"304 0 OFFCURVE",
"533 243 OFFCURVE",
"533 243 CURVE",
"533 243 OFFCURVE",
"454 339 OFFCURVE",
"454 339 CURVE",
"454 339 OFFCURVE",
"138 53 OFFCURVE"
);
},
{
closed = 1;
nodes = (
"822 533 LINE",
"822 206 LINE",
"822 206 OFFCURVE",
"964 206 OFFCURVE",
"964 206 CURVE",
"964 533 LINE"
);
},
{
closed = 1;
nodes = (
"957 309 LINE",
"916 309 LINE SMOOTH",
"788 309 OFFCURVE",
"695 248 OFFCURVE",
"695 133 CURVE SMOOTH",
"695 9 OFFCURVE",
"792 -57 OFFCURVE",
"924 -57 CURVE SMOOTH",
"949 -57 OFFCURVE",
"976 -55 OFFCURVE",
"1003 -50 CURVE",
"1003 79 LINE",
"983 74 OFFCURVE",
"962 72 OFFCURVE",
"943 72 CURVE SMOOTH",
"892 72 OFFCURVE",
"851 92 OFFCURVE",
"851 137 CURVE SMOOTH",
"851 179 OFFCURVE",
"877 203 OFFCURVE",
"947 206 CURVE SMOOTH",
"952 206 OFFCURVE",
"958 206 OFFCURVE",
"964 206 CURVE"
);
},
{
closed = 1;
nodes = (
"774 334 LINE",
"918 334 OFFCURVE",
"964 372 OFFCURVE",
"964 513 CURVE",
"964 547 LINE",
"822 547 LINE",
"822 513 LINE",
"822 478 OFFCURVE",
"811 468 OFFCURVE",
"774 468 CURVE",
"590 468 LINE",
"590 334 LINE"
);
}
);
width = 1042;
}
);
unicode = 090B;
},
{
glyphname = dvvRR;
lastChange = "2016-08-13 07:58:21 +0000";
layers = (
{
layerId = "C0ED9D5D-A651-429A-8F5D-D93A2EDA2DC0";
paths = (
{
closed = 1;
nodes = (
"490 0 LINE",
"555 0 LINE",
"555 340 OFFCURVE",
"555 680 OFFCURVE",
"555 680 CURVE",
"1004 680 LINE",
"1004 740 LINE",
"-40 740 LINE",
"-40 680 LINE",
"490 680 LINE"
);
},
{
closed = 1;
nodes = (
"129 319 LINE",
"129 439 OFFCURVE",
"201 513 OFFCURVE",
"316 513 CURVE SMOOTH",
"424 513 OFFCURVE",
"490 432 OFFCURVE",
"490 319 CURVE",
"521 325 LINE",
"531 449 OFFCURVE",
"461 573 OFFCURVE",
"306 573 CURVE SMOOTH",
"160 573 OFFCURVE",
"64 471 OFFCURVE",
"64 319 CURVE"
);
},
{
closed = 1;
nodes = (
"119 4 LINE",
"119 0 LINE",
"119 0 OFFCURVE",
"202 0 OFFCURVE",
"202 0 CURVE",
"511 317 LINE",
"511 317 OFFCURVE",
"496 376 OFFCURVE",
"496 376 CURVE"
);
},
{
closed = 1;
nodes = (
"806 570 LINE",
"806 216 LINE",
"871 216 LINE",
"871 570 LINE"
);
},
{
closed = 1;
nodes = (
"744 414 LINE",
"832 414 OFFCURVE",
"871 458 OFFCURVE",
"871 544 CURVE SMOOTH",
"871 581 LINE",
"806 581 LINE",
"806 546 LINE SMOOTH",
"806 492 OFFCURVE",
"800 471 OFFCURVE",
"743 471 CURVE SMOOTH",
"528 471 LINE",
"528 414 LINE"
);
},
{
closed = 1;
nodes = (
"892 -159 LINE",
"872 -163 OFFCURVE",
"852 -165 OFFCURVE",
"835 -165 CURVE SMOOTH",
"768 -165 OFFCURVE",
"727 -136 OFFCURVE",
"727 -81 CURVE SMOOTH",
"727 -14 OFFCURVE",
"782 10 OFFCURVE",
"846 10 CURVE SMOOTH",
"872 10 LINE",
"872 66 LINE",
"850 66 LINE SMOOTH",
"792 66 OFFCURVE",
"725 72 OFFCURVE",
"725 139 CURVE SMOOTH",
"725 208 OFFCURVE",
"791 216 OFFCURVE",
"849 216 CURVE SMOOTH",
"860 216 LINE",
"860 216 OFFCURVE",
"860 268 OFFCURVE",
"860 268 CURVE",
"807 268 LINE SMOOTH",
"737 267 OFFCURVE",
"664 232 OFFCURVE",
"664 142 CURVE SMOOTH",
"664 91 OFFCURVE",
"694 51 OFFCURVE",
"734 34 CURVE",
"694 13 OFFCURVE",
"666 -29 OFFCURVE",
"666 -83 CURVE SMOOTH",
"666 -161 OFFCURVE",
"723 -220 OFFCURVE",
"831 -220 CURVE SMOOTH",
"850 -220 OFFCURVE",
"870 -218 OFFCURVE",
"892 -213 CURVE"
);
}
);
width = 966;
},
{
layerId = "22D14058-393A-410A-BECB-F56B411A01B2";
paths = (
{
closed = 1;
nodes = (
"467 0 LINE",
"631 0 LINE",
"631 600 LINE",
"1060 600 LINE",
"1060 740 LINE",
"-20 740 LINE",
"-20 600 LINE",
"467 600 LINE"
);
},
{
closed = 1;
nodes = (
"226 254 LINE",
"226 331 OFFCURVE",
"266 390 OFFCURVE",
"341 390 CURVE SMOOTH",
"423 390 OFFCURVE",
"467 342 OFFCURVE",
"467 263 CURVE",
"544 217 LINE",
"548 383 OFFCURVE",
"489 528 OFFCURVE",
"312 528 CURVE SMOOTH",
"153 528 OFFCURVE",
"63 414 OFFCURVE",
"63 254 CURVE"
);
},
{
closed = 1;
nodes = (
"89 7 CURVE",
"89 0 LINE",
"89 0 OFFCURVE",
"304 0 OFFCURVE",
"304 0 CURVE",
"304 0 OFFCURVE",
"533 243 OFFCURVE",
"533 243 CURVE",
"533 243 OFFCURVE",
"454 339 OFFCURVE",
"454 339 CURVE",
"454 339 OFFCURVE",
"138 53 OFFCURVE"
);
},
{
closed = 1;
nodes = (
"822 533 LINE",
"822 184 LINE",
"822 184 OFFCURVE",
"964 184 OFFCURVE",
"964 184 CURVE",
"964 533 LINE"
);
},
{
closed = 1;
nodes = (
"774 334 LINE",
"918 334 OFFCURVE",
"964 372 OFFCURVE",
"964 513 CURVE SMOOTH",
"964 547 LINE",
"822 547 LINE",
"822 513 LINE SMOOTH",
"822 478 OFFCURVE",
"811 468 OFFCURVE",
"774 468 CURVE SMOOTH",
"590 468 LINE",
"590 334 LINE"
);
},
{
closed = 1;
nodes = (
"1028 -119 CURVE",
"1012 -123 OFFCURVE",
"975 -131 OFFCURVE",
"939 -131 CURVE SMOOTH",
"897 -131 OFFCURVE",
"857 -120 OFFCURVE",
"857 -81 CURVE SMOOTH",
"857 -36 OFFCURVE",
"897 -28 OFFCURVE",
"946 -28 CURVE",
"946 -28 OFFCURVE",
"986 -28 OFFCURVE",
"986 -28 CURVE",
"986 -28 OFFCURVE",
"986 94 OFFCURVE",
"986 94 CURVE",
"986 94 OFFCURVE",
"983 94 OFFCURVE",
"946 94 CURVE SMOOTH",
"908 94 OFFCURVE",
"857 95 OFFCURVE",
"857 138 CURVE SMOOTH",
"857 178 OFFCURVE",
"895 183 OFFCURVE",
"935 184 CURVE SMOOTH",
"935 184 OFFCURVE",
"940 184 OFFCURVE",
"946 184 CURVE",
"943 276 LINE",
"917 276 LINE SMOOTH",
"827 276 OFFCURVE",
"702 251 OFFCURVE",
"702 140 CURVE SMOOTH",
"702 83 OFFCURVE",
"746 43 OFFCURVE",
"798 29 CURVE",
"745 11 OFFCURVE",
"702 -35 OFFCURVE",
"702 -97 CURVE SMOOTH",
"702 -212 OFFCURVE",
"814 -251 OFFCURVE",
"926 -251 CURVE SMOOTH",
"960 -251 OFFCURVE",
"999 -248 OFFCURVE",
"1028 -240 CURVE",
"1028 -240 OFFCURVE",
"1028 -119 OFFCURVE"
);
}
);
width = 1040;
}
);
unicode = 0960;
},
{
glyphname = dvvL;
lastChange = "2016-08-13 07:58:21 +0000";
layers = (
{
layerId = "C0ED9D5D-A651-429A-8F5D-D93A2EDA2DC0";
paths = (
{
closed = 1;
nodes = (
"806 -64 CURVE SMOOTH",
"828 -64 OFFCURVE",
"855 -61 OFFCURVE",
"872 -55 CURVE",
"872 0 LINE",
"851 -6 OFFCURVE",
"829 -9 OFFCURVE",
"808 -9 CURVE SMOOTH",
"741 -9 OFFCURVE",
"683 23 OFFCURVE",
"683 104 CURVE",
"683 174 OFFCURVE",
"724 216 OFFCURVE",
"796 216 CURVE SMOOTH",
"821 216 LINE",
"824 241 OFFCURVE",
"826 264 OFFCURVE",
"826 286 CURVE SMOOTH",
"826 414 OFFCURVE",
"768 491 OFFCURVE",
"674 507 CURVE",
"674 680 LINE",
"946 680 LINE",
"946 740 LINE",
"-40 740 LINE",
"-40 680 LINE",
"609 680 LINE",
"609 510 LINE",
"533 503 OFFCURVE",
"478 459 OFFCURVE",
"458 385 CURVE",
"436 466 OFFCURVE",
"371 511 OFFCURVE",
"285 511 CURVE SMOOTH",
"143 511 OFFCURVE",
"87 414 OFFCURVE",
"87 271 CURVE SMOOTH",
"87 108 OFFCURVE",
"190 5 OFFCURVE",
"351 21 CURVE",
"351 81 LINE",
"214 72 OFFCURVE",
"152 153 OFFCURVE",
"152 272 CURVE SMOOTH",
"152 374 OFFCURVE",
"184 451 OFFCURVE",
"285 451 CURVE SMOOTH",
"396 451 OFFCURVE",
"430 357 OFFCURVE",
"426 231 CURVE",
"490 231 LINE",
"486 357 OFFCURVE",
"519 451 OFFCURVE",
"630 451 CURVE",
"747 451 OFFCURVE",
"768 349 OFFCURVE",
"763 270 CURVE",
"673 258 OFFCURVE",
"622 195 OFFCURVE",
"622 104 CURVE SMOOTH",
"622 -14 OFFCURVE",
"707 -64 OFFCURVE"
);
}
);
width = 906;
},
{
layerId = "22D14058-393A-410A-BECB-F56B411A01B2";
paths = (
{
closed = 1;
nodes = (
"824 -79 CURVE SMOOTH",
"849 -79 OFFCURVE",
"876 -77 OFFCURVE",
"903 -72 CURVE",
"903 57 LINE",
"883 52 OFFCURVE",
"862 50 OFFCURVE",
"843 50 CURVE SMOOTH",
"792 50 OFFCURVE",
"751 70 OFFCURVE",
"751 115 CURVE",
"751 158 OFFCURVE",
"776 184 OFFCURVE",
"850 184 CURVE SMOOTH",
"854 184 OFFCURVE",
"858 184 OFFCURVE",
"862 184 CURVE",
"870 211 OFFCURVE",
"873 238 OFFCURVE",
"873 269 CURVE SMOOTH",
"873 414 OFFCURVE",
"795 493 OFFCURVE",
"691 511 CURVE",
"691 600 LINE",
"931 600 LINE",
"931 740 LINE",
"-20 740 LINE",
"-20 600 LINE",
"533 600 LINE",
"533 487 LINE",
"504 470 OFFCURVE",
"483 445 OFFCURVE",
"469 415 CURVE",
"438 477 OFFCURVE",
"378 515 OFFCURVE",
"290 515 CURVE SMOOTH",
"164 515 OFFCURVE",
"63 435 OFFCURVE",
"63 269 CURVE SMOOTH",
"63 101 OFFCURVE",
"176 -1 OFFCURVE",
"370 13 CURVE",
"370 155 LINE",
"287 150 OFFCURVE",
"228 178 OFFCURVE",
"228 270 CURVE SMOOTH",
"228 330 OFFCURVE",
"254 371 OFFCURVE",
"312 371 CURVE SMOOTH",
"399 371 OFFCURVE",
"400 280 OFFCURVE",
"392 206 CURVE",
"542 206 LINE",
"533 280 OFFCURVE",
"535 371 OFFCURVE",
"627 371 CURVE SMOOTH",
"689 371 OFFCURVE",
"711 324 OFFCURVE",
"711 266 CURVE",
"644 244 OFFCURVE",
"596 187 OFFCURVE",
"596 108 CURVE SMOOTH",
"596 -16 OFFCURVE",
"692 -79 OFFCURVE"
);
}
);
width = 911;
}
);
unicode = 090C;
},
{
glyphname = dvEcandra;
lastChange = "2016-08-13 07:58:21 +0000";
layers = (
{
components = (
{
name = dvE;
transform = "{1, 0, 0, 1, -37, 0}";
}
);
layerId = "C0ED9D5D-A651-429A-8F5D-D93A2EDA2DC0";
paths = (
{
closed = 1;
nodes = (
"162 1000 CURVE",
"102 1000 LINE",
"102 902 OFFCURVE",
"161 822 OFFCURVE",
"302 822 CURVE SMOOTH",
"443 822 OFFCURVE",
"502 902 OFFCURVE",
"502 1000 CURVE",
"442 1000 LINE",
"442 934 OFFCURVE",
"407 877 OFFCURVE",
"302 877 CURVE SMOOTH",
"202 877 OFFCURVE",
"162 934 OFFCURVE"
);
}
);
width = 615;
},
{
components = (
{
name = dvE;
}
);
layerId = "22D14058-393A-410A-BECB-F56B411A01B2";
paths = (
{
closed = 1;
nodes = (
"588 1024 CURVE",
"451 1024 LINE",
"451 971 OFFCURVE",
"420 930 OFFCURVE",
"351 930 CURVE",
"282 930 OFFCURVE",
"251 971 OFFCURVE",
"251 1024 CURVE",
"114 1024 LINE",
"114 894 OFFCURVE",
"185 810 OFFCURVE",
"351 810 CURVE",
"517 810 OFFCURVE",
"588 894 OFFCURVE"
);
}
);
width = 684;
}
);
unicode = 090D;
},
{
glyphname = dvE;
lastChange = "2016-08-13 07:58:21 +0000";
layers = (
{
layerId = "C0ED9D5D-A651-429A-8F5D-D93A2EDA2DC0";
paths = (
{
closed = 1;
nodes = (
"695 680 LINE",
"695 740 LINE",
"-40 740 LINE",
"-40 680 LINE"
);
},
{
closed = 1;
nodes = (
"571 680 LINE",
"506 680 LINE",
"506 555 LINE SMOOTH",
"506 425 OFFCURVE",
"476 405 OFFCURVE",
"370 401 CURVE",
"370 340 LINE",
"512 341 OFFCURVE",
"571 392 OFFCURVE",
"571 554 CURVE SMOOTH"
);
},
{
closed = 1;
nodes = (
"113 273 LINE",
"113 125 OFFCURVE",
"179 19 OFFCURVE",
"352 19 CURVE SMOOTH",
"494 19 OFFCURVE",
"579 103 OFFCURVE",
"579 245 CURVE",
"514 245 LINE",
"514 135 OFFCURVE",
"459 79 OFFCURVE",
"349 79 CURVE SMOOTH",
"229 79 OFFCURVE",
"178 145 OFFCURVE",
"178 265 CURVE SMOOTH",
"178 723 LINE",
"113 723 LINE"
);
}
);
width = 655;
},
{
layerId = "22D14058-393A-410A-BECB-F56B411A01B2";
paths = (
{
closed = 1;
nodes = (
"704 600 LINE",
"704 740 LINE",
"-20 740 LINE",
"-20 600 LINE"
);
},
{
closed = 1;
nodes = (
"609 670 LINE",
"443 670 LINE",
"443 494 LINE SMOOTH",
"443 442 OFFCURVE",
"422 423 OFFCURVE",
"365 426 CURVE",
"365 426 OFFCURVE",
"365 277 OFFCURVE",
"365 277 CURVE",
"530 271 OFFCURVE",
"609 338 OFFCURVE",
"609 494 CURVE"
);
},
{
closed = 1;
nodes = (
"101 263 LINE",
"101 120 OFFCURVE",
"183 19 OFFCURVE",
"356 19 CURVE SMOOTH",
"501 19 OFFCURVE",
"599 97 OFFCURVE",
"599 235 CURVE",
"439 235 LINE",
"439 185 OFFCURVE",
"407 159 OFFCURVE",
"353 159 CURVE SMOOTH",
"300 159 OFFCURVE",
"267 189 OFFCURVE",
"267 255 CURVE SMOOTH",
"267 723 LINE",
"100 723 LINE"
);
}
);
width = 684;
}
);
unicode = 090F;
},
{
glyphname = dvmE;
lastChange = "2016-08-13 07:58:21 +0000";
layers = (
{
anchors = (
{
name = _abvm.e;
position = "{-100, 740}";
}
);
layerId = "C0ED9D5D-A651-429A-8F5D-D93A2EDA2DC0";
paths = (
{
closed = 1;
nodes = (
"-101 732 LINE",
"-247 967 OFFCURVE",
"-300 974 OFFCURVE",
"-452 974 CURVE SMOOTH",
"-479 974 LINE",
"-479 914 LINE",
"-447 914 LINE SMOOTH",
"-301 914 OFFCURVE",
"-289 902 OFFCURVE",
"-173 732 CURVE"
);
}
);
width = 0;
},
{
anchors = (
{
name = _abvm.e;
position = "{-75, 740}";
}
);
layerId = "22D14058-393A-410A-BECB-F56B411A01B2";
paths = (
{
closed = 1;
nodes = (
"-82 734 LINE",
"-217 969 OFFCURVE",
"-272 993 OFFCURVE",
"-436 994 CURVE",
"-483 994 LINE",
"-483 868 LINE",
"-431 868 LINE",
"-324 868 OFFCURVE",
"-305 851 OFFCURVE",
"-227 734 CURVE"
);
}
);
width = 0;
}
);
unicode = 0947;
},
{
glyphname = dvOcandra;
lastChange = "2016-08-13 07:58:21 +0000";
layers = (
{
components = (
{
name = dvA;
},
{
name = dvmAA;
transform = "{1, 0, 0, 1, 822, 0}";
}
);
layerId = "C0ED9D5D-A651-429A-8F5D-D93A2EDA2DC0";
paths = (
{
closed = 1;
nodes = (
"1008 987 CURVE",
"948 987 LINE",
"948 931 OFFCURVE",
"924 874 OFFCURVE",
"838 874 CURVE",
"752 874 OFFCURVE",
"728 931 OFFCURVE",
"728 987 CURVE",
"668 987 LINE",
"668 899 OFFCURVE",
"707 819 OFFCURVE",
"838 819 CURVE",
"969 819 OFFCURVE",
"1008 899 OFFCURVE"
);
}
);
width = 1087;
},
{
components = (
{
name = dvA;
transform = "{1, 0, 0, 1, 23, 0}";
},
{
name = dvmAA;
transform = "{1, 0, 0, 1, 888, 0}";
}
);
layerId = "22D14058-393A-410A-BECB-F56B411A01B2";
paths = (
{
closed = 1;
nodes = (
"1142 1024 CURVE",
"1005 1024 LINE",
"1005 971 OFFCURVE",
"974 930 OFFCURVE",
"905 930 CURVE",
"836 930 OFFCURVE",
"805 971 OFFCURVE",
"805 1024 CURVE",
"668 1024 LINE",
"668 894 OFFCURVE",
"739 810 OFFCURVE",
"905 810 CURVE",
"1071 810 OFFCURVE",
"1142 894 OFFCURVE"
);
}
);
width = 1202;
}
);
unicode = 0911;
},
{
glyphname = dvmAI;
lastChange = "2016-08-13 07:58:21 +0000";
layers = (
{
anchors = (
{
name = _abvm.e;
position = "{-100, 740}";
}
);
layerId = "C0ED9D5D-A651-429A-8F5D-D93A2EDA2DC0";
paths = (
{
closed = 1;
nodes = (
"-135 728 LINE",
"-238 873 OFFCURVE",
"-297 873 OFFCURVE",
"-427 873 CURVE SMOOTH",
"-454 873 LINE",
"-454 813 LINE",
"-422 813 LINE SMOOTH",
"-306 813 OFFCURVE",
"-244 813 OFFCURVE",
"-175 728 CURVE"
);
},
{
closed = 1;
nodes = (
"-102 728 LINE",
"-226 968 OFFCURVE",
"-282 990 OFFCURVE",
"-434 990 CURVE SMOOTH",
"-461 990 LINE",
"-461 930 LINE",
"-429 930 LINE SMOOTH",
"-283 930 OFFCURVE",
"-244 895 OFFCURVE",
"-145 728 CURVE"
);
}
);
width = 0;
},
{
anchors = (
{
name = _abvm.e;
position = "{-75, 740}";
}
);
layerId = "22D14058-393A-410A-BECB-F56B411A01B2";
paths = (
{
closed = 1;
nodes = (
"-113 734 LINE",
"-294 896 OFFCURVE",
"-296 895 OFFCURVE",
"-436 896 CURVE SMOOTH",
"-483 896 LINE",
"-483 796 LINE",
"-431 796 LINE SMOOTH",
"-307 796 OFFCURVE",
"-301 796 OFFCURVE",
"-209 734 CURVE"
);
},
{
closed = 1;
nodes = (
"-78 734 LINE",
"-237 1028 OFFCURVE",
"-272 1045 OFFCURVE",
"-436 1046 CURVE SMOOTH",
"-483 1046 LINE",
"-483 946 LINE",
"-431 946 LINE SMOOTH",
"-329 946 OFFCURVE",
"-286 946 OFFCURVE",
"-180 734 CURVE"
);
}
);
width = 0;
}
);
unicode = 0948;
},
{
glyphname = dvmI;
lastChange = "2016-08-13 07:58:21 +0000";
layers = (
{
layerId = "C0ED9D5D-A651-429A-8F5D-D93A2EDA2DC0";
paths = (
{
closed = 1;
nodes = (
"789 750 CURVE SMOOTH",
"789 703 LINE",
"854 703 LINE",
"854 760 LINE SMOOTH",
"854 965 OFFCURVE",
"651 988 OFFCURVE",
"478 988 CURVE",
"305 988 OFFCURVE",
"102 965 OFFCURVE",
"102 760 CURVE SMOOTH",
"102 703 LINE",
"167 703 LINE",
"167 750 LINE SMOOTH",
"167 922 OFFCURVE",
"331 928 OFFCURVE",
"478 928 CURVE",
"625 928 OFFCURVE",
"789 922 OFFCURVE"
);
},
{
closed = 1;
nodes = (
"305 680 CURVE",
"305 740 LINE",
"-40 740 LINE",
"-40 680 LINE",
"100 680 LINE",
"100 0 LINE",
"165 0 LINE",
"165 680 LINE",
"165 680 OFFCURVE",
"305 680 OFFCURVE"
);
}
);
width = 265;
},
{
layerId = "22D14058-393A-410A-BECB-F56B411A01B2";
paths = (
{
closed = 1;
nodes = (
"755 729 CURVE SMOOTH",
"755 697 LINE",
"917 697 LINE",
"917 742 LINE SMOOTH",
"917 933 OFFCURVE",
"751 1034 OFFCURVE",
"497 1034 CURVE SMOOTH",
"243 1034 OFFCURVE",
"77 933 OFFCURVE",
"77 742 CURVE SMOOTH",
"77 697 LINE",
"239 697 LINE",
"239 729 LINE SMOOTH",
"239 855 OFFCURVE",
"359 899 OFFCURVE",
"497 899 CURVE SMOOTH",
"635 899 OFFCURVE",
"755 855 OFFCURVE"
);
},
{
closed = 1;
nodes = (
"334 600 LINE",
"334 740 LINE",
"-20 740 LINE",
"-20 600 LINE",
"75 600 LINE",
"75 0 LINE",
"239 0 LINE",
"239 600 LINE"
);
}
);
width = 314;
}
);
unicode = 093F;
},
{
glyphname = dvmII;
lastChange = "2016-08-13 07:58:21 +0000";
layers = (
{
layerId = "C0ED9D5D-A651-429A-8F5D-D93A2EDA2DC0";
paths = (
{
closed = 1;
nodes = (
"-173 780 CURVE SMOOTH",
"-173 703 LINE",
"-111 703 LINE",
"-111 770 LINE SMOOTH",
"-111 873 OFFCURVE",
"-88 928 OFFCURVE",
"-2 928 CURVE",
"84 928 OFFCURVE",
"107 873 OFFCURVE",
"107 770 CURVE",
"107 703 LINE",
"169 703 LINE",
"169 780 LINE",
"169 899 OFFCURVE",
"131 988 OFFCURVE",
"-2 988 CURVE",
"-135 988 OFFCURVE",
"-173 899 OFFCURVE"
);
},
{
closed = 1;
nodes = (
"305 680 CURVE",
"305 740 LINE",
"-40 740 LINE",
"-40 680 LINE",
"100 680 LINE",
"100 0 LINE",
"165 0 LINE",
"165 680 LINE",
"165 680 OFFCURVE",
"305 680 OFFCURVE"
);
}
);
width = 265;
},
{
layerId = "22D14058-393A-410A-BECB-F56B411A01B2";
paths = (
{
closed = 1;
nodes = (
"-228 769 CURVE SMOOTH",
"-228 697 LINE",
"-71 697 LINE",
"-71 765 LINE SMOOTH",
"-71 849 OFFCURVE",
"-66 900 OFFCURVE",
"0 900 CURVE SMOOTH",
"66 900 OFFCURVE",
"71 849 OFFCURVE",
"71 765 CURVE SMOOTH",
"71 697 LINE",
"228 697 LINE",
"228 769 LINE SMOOTH",
"228 923 OFFCURVE",
"179 1034 OFFCURVE",
"0 1034 CURVE SMOOTH",
"-179 1034 OFFCURVE",
"-228 927 OFFCURVE"
);
},
{
closed = 1;
nodes = (
"334 600 LINE",
"334 740 LINE",
"-20 740 LINE",
"-20 600 LINE",
"75 600 LINE",
"75 0 LINE",
"239 0 LINE",
"239 600 LINE"
);
}
);
width = 314;
}
);
unicode = 0940;
},
{
glyphname = dvmEcandra;
lastChange = "2016-08-13 07:58:21 +0000";
layers = (
{
anchors = (
{
name = _abvm.e;
position = "{-100, 740}";
}
);
layerId = "C0ED9D5D-A651-429A-8F5D-D93A2EDA2DC0";
paths = (
{
closed = 1;
nodes = (
"48 987 CURVE",
"-12 987 LINE",
"-12 931 OFFCURVE",
"-46 874 OFFCURVE",
"-132 874 CURVE SMOOTH",
"-218 874 OFFCURVE",
"-252 931 OFFCURVE",
"-252 987 CURVE",
"-312 987 LINE",
"-312 899 OFFCURVE",
"-263 819 OFFCURVE",
"-132 819 CURVE SMOOTH",
"-1 819 OFFCURVE",
"48 899 OFFCURVE"
);
}
);
width = 0;
},
{
anchors = (
{
name = _abvm.e;
position = "{-75, 740}";
}
);
layerId = "22D14058-393A-410A-BECB-F56B411A01B2";
paths = (
{
closed = 1;
nodes = (
"73 1024 CURVE",
"-64 1024 LINE",
"-64 971 OFFCURVE",
"-95 930 OFFCURVE",
"-164 930 CURVE",
"-233 930 OFFCURVE",
"-264 971 OFFCURVE",
"-264 1024 CURVE",
"-401 1024 LINE",
"-401 894 OFFCURVE",
"-330 810 OFFCURVE",
"-164 810 CURVE",
"2 810 OFFCURVE",
"73 894 OFFCURVE"
);
}
);
width = 0;
}
);
unicode = 0945;
},
{
glyphname = dvKA;
lastChange = "2016-08-13 07:58:21 +0000";
layers = (
{
anchors = (
{
name = abvm.e;
position = "{552, 740}";
},
{
name = blwm.u;
position = "{552, 0}";
},
{
name = blwm.virama;
position = "{552, 0}";
}
);
layerId = "C0ED9D5D-A651-429A-8F5D-D93A2EDA2DC0";
paths = (
{
closed = 1;
nodes = (
"313 109 CURVE SMOOTH",
"468 109 OFFCURVE",
"528 225 OFFCURVE",
"518 336 CURVE",
"487 339 LINE",
"487 236 OFFCURVE",
"431 169 OFFCURVE",
"323 169 CURVE SMOOTH",
"216 169 OFFCURVE",
"153 230 OFFCURVE",
"153 339 CURVE",
"153 447 OFFCURVE",
"213 510 OFFCURVE",
"321 510 CURVE SMOOTH",
"426 510 OFFCURVE",
"487 447 OFFCURVE",
"487 339 CURVE",
"518 342 LINE",
"528 455 OFFCURVE",
"466 570 OFFCURVE",
"313 570 CURVE SMOOTH",
"178 570 OFFCURVE",
"88 476 OFFCURVE",
"88 339 CURVE",
"88 202 OFFCURVE",
"180 109 OFFCURVE"
);
},
{
closed = 1;
nodes = (
"666 114 LINE",
"827 100 OFFCURVE",
"942 189 OFFCURVE",
"942 339 CURVE SMOOTH",
"942 475 OFFCURVE",
"856 571 OFFCURVE",
"719 571 CURVE SMOOTH",
"568 571 OFFCURVE",
"511 450 OFFCURVE",
"524 325 CURVE",
"552 319 LINE",
"552 438 OFFCURVE",
"603 511 OFFCURVE",
"709 511 CURVE SMOOTH",
"818 511 OFFCURVE",
"877 446 OFFCURVE",
"877 339 CURVE SMOOTH",
"877 218 OFFCURVE",
"786 164 OFFCURVE",
"666 174 CURVE"
);
},
{
closed = 1;
nodes = (
"1058 740 LINE",
"-40 740 LINE",
"-40 680 LINE",
"487 680 LINE",
"487 0 LINE",
"552 0 LINE",
"552 340 OFFCURVE",
"552 680 OFFCURVE",
"552 680 CURVE",
"1058 680 LINE"
);
}
);
width = 1018;
},
{
anchors = (
{
name = abvm.e;
position = "{590, 740}";
},
{
name = blwm.u;
position = "{590, 0}";
},
{
name = blwm.virama;
position = "{590, 0}";
}
);
layerId = "22D14058-393A-410A-BECB-F56B411A01B2";
paths = (
{
closed = 1;
nodes = (
"289 74 CURVE SMOOTH",
"418 74 OFFCURVE",
"484 170 OFFCURVE",
"466 296 CURVE",
"433 309 LINE",
"433 251 OFFCURVE",
"394 214 OFFCURVE",
"335 214 CURVE SMOOTH",
"274 214 OFFCURVE",
"239 251 OFFCURVE",
"239 308 CURVE SMOOTH",
"239 365 OFFCURVE",
"274 402 OFFCURVE",
"335 402 CURVE SMOOTH",
"394 402 OFFCURVE",
"433 366 OFFCURVE",
"433 308 CURVE",
"466 320 LINE",
"487 443 OFFCURVE",
"418 542 OFFCURVE",
"289 542 CURVE SMOOTH",
"151 542 OFFCURVE",
"74 433 OFFCURVE",
"74 308 CURVE SMOOTH",
"74 183 OFFCURVE",
"151 74 OFFCURVE"
);
},
{
closed = 1;
nodes = (
"645 93 LINE",
"800 60 OFFCURVE",
"934 141 OFFCURVE",
"934 308 CURVE SMOOTH",
"934 433 OFFCURVE",
"862 542 OFFCURVE",
"724 542 CURVE SMOOTH",
"595 542 OFFCURVE",
"536 443 OFFCURVE",
"557 320 CURVE",
"590 299 LINE",
"590 360 OFFCURVE",
"622 402 OFFCURVE",
"678 402 CURVE SMOOTH",
"740 402 OFFCURVE",
"769 361 OFFCURVE",
"769 308 CURVE SMOOTH",
"769 246 OFFCURVE",
"729 207 OFFCURVE",
"644 222 CURVE"
);
},
{
closed = 1;
nodes = (
"1007 740 LINE",
"-20 740 LINE",
"-20 600 LINE",
"433 600 LINE",
"433 0 LINE",
"590 0 LINE",
"590 600 LINE",
"1007 600 LINE"
);
}
);
width = 987;
}
);
},
{
glyphname = dvKHA;
lastChange = "2016-08-13 07:58:21 +0000";
layers = (
{
layerId = "C0ED9D5D-A651-429A-8F5D-D93A2EDA2DC0";
paths = (
{
closed = 1;
nodes = (
"150 353 LINE",
"295 353 OFFCURVE",
"337 399 OFFCURVE",
"337 581 CURVE SMOOTH",
"337 687 LINE",
"273 690 LINE",
"273 582 LINE SMOOTH",
"273 416 OFFCURVE",
"253 407 OFFCURVE",
"122 407 CURVE SMOOTH",
"85 407 LINE",
"85 228 LINE SMOOTH",
"85 84 OFFCURVE",
"178 -1 OFFCURVE",
"320 -1 CURVE SMOOTH",
"447 -1 OFFCURVE",
"546 64 OFFCURVE",
"556 190 CURVE",
"490 190 LINE",
"484 106 OFFCURVE",
"419 59 OFFCURVE",
"320 59 CURVE SMOOTH",
"206 59 OFFCURVE",
"150 113 OFFCURVE",
"150 230 CURVE SMOOTH"
);
},
{
closed = 1;
nodes = (
"596 493 CURVE SMOOTH",
"684 493 OFFCURVE",
"740 437 OFFCURVE",
"740 349 CURVE",
"771 355 LINE",
"781 462 OFFCURVE",
"733 553 OFFCURVE",
"586 553 CURVE SMOOTH",
"467 553 OFFCURVE",
"384 469 OFFCURVE",
"384 349 CURVE SMOOTH",
"384 229 OFFCURVE",
"467 145 OFFCURVE",
"586 145 CURVE SMOOTH",
"723 145 OFFCURVE",
"781 236 OFFCURVE",
"771 343 CURVE",
"740 349 LINE",
"740 261 OFFCURVE",
"684 205 OFFCURVE",
"596 205 CURVE SMOOTH",
"508 205 OFFCURVE",
"449 261 OFFCURVE",
"449 349 CURVE SMOOTH",
"449 437 OFFCURVE",
"508 493 OFFCURVE"
);
},
{
closed = 1;
nodes = (
"740 0 LINE",
"805 0 LINE",
"805 340 OFFCURVE",
"805 680 OFFCURVE",
"805 680 CURVE",
"945 680 LINE",
"945 740 LINE",
"-40 740 LINE",
"-40 680 LINE",
"740 680 LINE"
);
}
);
width = 905;
},
{
layerId = "22D14058-393A-410A-BECB-F56B411A01B2";
paths = (
{
closed = 1;
nodes = (
"237 297 LINE",
"382 317 OFFCURVE",
"408 391 OFFCURVE",
"408 592 CURVE SMOOTH",
"408 610 LINE",
"408 610 OFFCURVE",
"243 610 OFFCURVE",
"243 610 CURVE",
"243 591 LINE SMOOTH",
"243 441 OFFCURVE",
"219 410 OFFCURVE",
"95 407 CURVE SMOOTH",
"87 407 OFFCURVE",
"79 407 OFFCURVE",
"71 407 CURVE",
"71 276 LINE SMOOTH",
"71 96 OFFCURVE",
"180 -4 OFFCURVE",
"353 -4 CURVE SMOOTH",
"515 -4 OFFCURVE",
"632 89 OFFCURVE",
"623 242 CURVE",
"471 242 LINE",
"469 177 OFFCURVE",
"433 136 OFFCURVE",
"351 136 CURVE SMOOTH",
"269 136 OFFCURVE",
"237 187 OFFCURVE",
"237 258 CURVE SMOOTH"
);
},
{
closed = 1;
nodes = (
"648 403 CURVE SMOOTH",
"697 403 OFFCURVE",
"725 373 OFFCURVE",
"725 322 CURVE",
"751 343 LINE",
"774 454 OFFCURVE",
"711 529 OFFCURVE",
"605 529 CURVE SMOOTH",
"494 529 OFFCURVE",
"419 440 OFFCURVE",
"419 323 CURVE SMOOTH",
"419 207 OFFCURVE",
"492 116 OFFCURVE",
"605 116 CURVE SMOOTH",
"711 116 OFFCURVE",
"774 192 OFFCURVE",
"751 303 CURVE",
"725 324 LINE",
"725 273 OFFCURVE",
"694 243 OFFCURVE",
"648 243 CURVE SMOOTH",
"598 243 OFFCURVE",
"566 272 OFFCURVE",
"566 323 CURVE SMOOTH",
"566 373 OFFCURVE",
"598 403 OFFCURVE"
);
},
{
closed = 1;
nodes = (
"726 0 LINE",
"883 0 LINE",
"883 600 LINE",
"978 600 LINE",
"978 740 LINE",
"-20 740 LINE",
"-20 600 LINE",
"726 600 LINE"
);
}
);
width = 958;
}
);
},
{
glyphname = dvGA;
lastChange = "2016-08-13 07:58:21 +0000";
layers = (
{
layerId = "C0ED9D5D-A651-429A-8F5D-D93A2EDA2DC0";
paths = (
{
closed = 1;
nodes = (
"301 690 LINE",
"237 690 LINE",
"237 425 LINE",
"237 353 OFFCURVE",
"232 297 OFFCURVE",
"162 297 CURVE SMOOTH",
"92 297 OFFCURVE",
"86 353 OFFCURVE",
"86 425 CURVE",
"22 425 LINE",
"17 310 OFFCURVE",
"60 237 OFFCURVE",
"162 237 CURVE",
"268 237 OFFCURVE",
"301 304 OFFCURVE",
"301 425 CURVE"
);
},
{
closed = 1;
nodes = (
"727 680 CURVE",
"727 740 LINE",
"-40 740 LINE",
"-40 680 LINE",
"522 680 LINE",
"522 0 LINE",
"587 0 LINE",
"587 680 LINE",
"587 680 OFFCURVE",
"727 680 OFFCURVE"
);
}
);
width = 687;
},
{
layerId = "22D14058-393A-410A-BECB-F56B411A01B2";
paths = (
{
closed = 1;
nodes = (
"444 641 LINE",
"444 641 OFFCURVE",
"290 620 OFFCURVE",
"290 620 CURVE",
"290 401 LINE SMOOTH",
"290 356 OFFCURVE",
"292 305 OFFCURVE",
"247 305 CURVE SMOOTH",
"204 305 OFFCURVE",
"200 348 OFFCURVE",
"200 391 CURVE",
"36 391 LINE",
"34 241 OFFCURVE",
"97 165 OFFCURVE",
"243 165 CURVE SMOOTH",
"394 165 OFFCURVE",
"444 254 OFFCURVE",
"444 404 CURVE SMOOTH"
);
},
{
closed = 1;
nodes = (
"835 600 LINE",
"835 740 LINE",
"-20 740 LINE",
"-20 600 LINE",
"576 600 LINE",
"576 0 LINE",
"740 0 LINE",
"740 600 LINE"
);
}
);
width = 815;
}
);
},
{
glyphname = dvGHA;
lastChange = "2016-08-13 07:58:21 +0000";
layers = (
{
layerId = "C0ED9D5D-A651-429A-8F5D-D93A2EDA2DC0";
paths = (
{
closed = 1;
nodes = (
"734 740 LINE",
"-40 740 LINE",
"-40 680 LINE",
"734 680 LINE"
);
},
{
closed = 1;
nodes = (
"594 0 LINE",
"594 690 LINE",
"594 690 OFFCURVE",
"529 698 OFFCURVE",
"529 698 CURVE",
"529 0 LINE"
);
},
{
closed = 1;
nodes = (
"559 311 CURVE",
"529 355 LINE",
"529 240 OFFCURVE",
"432 170 OFFCURVE",
"316 170 CURVE",
"227 170 OFFCURVE",
"143 201 OFFCURVE",
"143 291 CURVE SMOOTH",
"143 379 OFFCURVE",
"217 416 OFFCURVE",
"306 416 CURVE SMOOTH",
"306 416 OFFCURVE",
"339 416 OFFCURVE",
"339 416 CURVE",
"339 416 OFFCURVE",
"339 475 OFFCURVE",
"339 475 CURVE",
"306 475 LINE SMOOTH",
"187 475 OFFCURVE",
"162 520 OFFCURVE",
"162 642 CURVE SMOOTH",
"162 680 LINE",
"96 693 LINE",
"96 642 LINE SMOOTH",
"96 546 OFFCURVE",
"107 484 OFFCURVE",
"182 451 CURVE",
"182 445 LINE",
"122 420 OFFCURVE",
"78 368 OFFCURVE",
"78 292 CURVE SMOOTH",
"78 170 OFFCURVE",
"186 110 OFFCURVE",
"306 110 CURVE SMOOTH",
"445 110 OFFCURVE",
"551 183 OFFCURVE"
);
}
);
width = 694;
},
{
layerId = "22D14058-393A-410A-BECB-F56B411A01B2";
paths = (
{
closed = 1;
nodes = (
"718 740 LINE",
"-20 740 LINE",
"-20 600 LINE",
"718 600 LINE"
);
},
{
closed = 1;
nodes = (
"623 0 LINE",
"623 622 LINE",
"623 622 OFFCURVE",
"458 622 OFFCURVE",
"458 622 CURVE",
"458 0 LINE"
);
},
{
closed = 1;
nodes = (
"506 262 CURVE",
"458 358 LINE",
"458 278 OFFCURVE",
"395 232 OFFCURVE",
"318 232 CURVE SMOOTH",
"273 232 OFFCURVE",
"231 250 OFFCURVE",
"231 295 CURVE SMOOTH",
"231 332 OFFCURVE",
"258 356 OFFCURVE",
"318 356 CURVE SMOOTH",
"369 356 LINE",
"369 488 LINE",
"321 488 LINE SMOOTH",
"253 488 OFFCURVE",
"243 533 OFFCURVE",
"243 602 CURVE SMOOTH",
"243 655 LINE",
"78 618 LINE",
"78 602 LINE SMOOTH",
"78 496 OFFCURVE",
"104 450 OFFCURVE",
"159 424 CURVE",
"159 418 LINE",
"110 397 OFFCURVE",
"66 350 OFFCURVE",
"66 278 CURVE SMOOTH",
"66 155 OFFCURVE",
"184 98 OFFCURVE",
"283 98 CURVE SMOOTH",
"406 98 OFFCURVE",
"482 153 OFFCURVE"
);
}
);
width = 698;
}
);
},
{
glyphname = dvNGA;
lastChange = "2016-08-13 07:58:21 +0000";
layers = (
{
anchors = (
{
name = abvm.e;
position = "{469, 740}";
},
{
name = blwm.u;
position = "{359, -108}";
},
{
name = blwm.virama;
position = "{360, -25}";
}
);
layerId = "C0ED9D5D-A651-429A-8F5D-D93A2EDA2DC0";
paths = (
{
closed = 1;
nodes = (
"685 680 LINE",
"685 740 LINE",
"-40 740 LINE",
"-40 680 LINE"
);
},
{
closed = 1;
nodes = (
"404 512 LINE",
"469 512 LINE",
"469 718 LINE",
"404 718 LINE"
);
},
{
closed = 1;
nodes = (
"82 202 LINE",
"84 66 OFFCURVE",
"179 -10 OFFCURVE",
"324 -10 CURVE SMOOTH",
"451 -10 OFFCURVE",
"529 63 OFFCURVE",
"529 156 CURVE SMOOTH",
"529 298 OFFCURVE",
"413 316 OFFCURVE",
"301 316 CURVE SMOOTH",
"222 316 OFFCURVE",
"162 329 OFFCURVE",
"162 410 CURVE SMOOTH",
"162 488 OFFCURVE",
"230 501 OFFCURVE",
"305 501 CURVE SMOOTH",
"469 501 LINE",
"469 531 LINE",
"469 561 LINE",
"304 561 LINE SMOOTH",
"200 561 OFFCURVE",
"97 531 OFFCURVE",
"97 410 CURVE SMOOTH",
"97 289 OFFCURVE",
"190 258 OFFCURVE",
"315 258 CURVE SMOOTH",
"388 258 OFFCURVE",
"464 252 OFFCURVE",
"464 162 CURVE SMOOTH",
"464 84 OFFCURVE",
"407 50 OFFCURVE",
"321 50 CURVE",
"203 50 OFFCURVE",
"152 110 OFFCURVE",
"146 202 CURVE"
);
},
{
closed = 1;
nodes = (
"566 335 CURVE SMOOTH",
"593 335 OFFCURVE",
"615 357 OFFCURVE",
"615 384 CURVE SMOOTH",
"615 411 OFFCURVE",
"593 433 OFFCURVE",
"566 433 CURVE SMOOTH",
"539 433 OFFCURVE",
"517 411 OFFCURVE",
"517 384 CURVE SMOOTH",
"517 357 OFFCURVE",
"539 335 OFFCURVE"
);
}
);
width = 645;
},
{
anchors = (
{
name = abvm.e;
position = "{475, 740}";
},
{
name = blwm.u;
position = "{418, -124}";
},
{
name = blwm.virama;
position = "{403, -39}";
}
);
layerId = "22D14058-393A-410A-BECB-F56B411A01B2";
paths = (
{
closed = 1;
nodes = (
"736 600 LINE",
"736 740 LINE",
"-20 740 LINE",
"-20 600 LINE"
);
},
{
closed = 1;
nodes = (
"310 496 LINE",
"475 496 LINE",
"475 718 LINE",
"310 718 LINE"
);
},
{
closed = 1;
nodes = (
"54 179 LINE",
"60 50 OFFCURVE",
"167 -20 OFFCURVE",
"305 -20 CURVE SMOOTH",
"451 -20 OFFCURVE",
"538 51 OFFCURVE",
"538 162 CURVE SMOOTH",
"538 304 OFFCURVE",
"426 336 OFFCURVE",
"321 336 CURVE",
"268 336 OFFCURVE",
"232 338 OFFCURVE",
"232 373 CURVE SMOOTH",
"232 403 OFFCURVE",
"267 411 OFFCURVE",
"320 411 CURVE SMOOTH",
"475 411 LINE",
"475 508 LINE",
"325 541 LINE",
"271 541 LINE SMOOTH",
"162 541 OFFCURVE",
"66 494 OFFCURVE",
"66 384 CURVE SMOOTH",
"66 228 OFFCURVE",
"194 210 OFFCURVE",
"285 210 CURVE SMOOTH",
"344 210 OFFCURVE",
"376 199 OFFCURVE",
"376 159 CURVE SMOOTH",
"376 122 OFFCURVE",
"346 107 OFFCURVE",
"305 107 CURVE SMOOTH",
"256 107 OFFCURVE",
"220 130 OFFCURVE",
"216 179 CURVE"
);
},
{
closed = 1;
nodes = (
"602 270 CURVE SMOOTH",
"650 270 OFFCURVE",
"688 309 OFFCURVE",
"688 356 CURVE SMOOTH",
"688 404 OFFCURVE",
"650 442 OFFCURVE",
"602 442 CURVE SMOOTH",
"555 442 OFFCURVE",
"516 404 OFFCURVE",
"516 356 CURVE SMOOTH",
"516 309 OFFCURVE",
"555 270 OFFCURVE"
);
}
);
width = 716;
}
);
},
{
glyphname = dvCA;
lastChange = "2016-08-13 07:58:21 +0000";
layers = (
{
layerId = "C0ED9D5D-A651-429A-8F5D-D93A2EDA2DC0";
paths = (
{
closed = 1;
nodes = (
"411 531 LINE",
"49 531 LINE",
"49 474 LINE",
"411 474 LINE"
);
},
{
closed = 1;
nodes = (
"555 345 LINE",
"555 246 OFFCURVE",
"481 164 OFFCURVE",
"380 164 CURVE SMOOTH",
"280 164 OFFCURVE",
"208 218 OFFCURVE",
"208 315 CURVE SMOOTH",
"208 416 OFFCURVE",
"277 474 OFFCURVE",
"385 474 CURVE",
"374 503 LINE",
"242 513 OFFCURVE",
"143 443 OFFCURVE",
"143 312 CURVE SMOOTH",
"143 188 OFFCURVE",
"245 104 OFFCURVE",
"370 104 CURVE SMOOTH",
"518 104 OFFCURVE",
"568 205 OFFCURVE",
"576 257 CURVE"
);
},
{
closed = 1;
nodes = (
"555 0 LINE",
"620 0 LINE",
"620 680 LINE",
"620 680 OFFCURVE",
"760 680 OFFCURVE",
"760 680 CURVE",
"760 740 LINE",
"-40 740 LINE",
"-40 680 LINE",
"-40 680 OFFCURVE",
"555 680 OFFCURVE",
"555 680 CURVE"
);
}
);
width = 720;
},
{
layerId = "22D14058-393A-410A-BECB-F56B411A01B2";
paths = (
{
closed = 1;
nodes = (
"421 511 LINE",
"50 511 LINE",
"50 382 LINE",
"50 382 OFFCURVE",
"421 382 OFFCURVE",
"421 382 CURVE"
);
},
{
closed = 1;
nodes = (
"513 369 LINE",
"513 279 OFFCURVE",
"469 218 OFFCURVE",
"391 218 CURVE SMOOTH",
"333 218 OFFCURVE",
"289 246 OFFCURVE",
"289 302 CURVE SMOOTH",
"289 355 OFFCURVE",
"332 382 OFFCURVE",
"381 382 CURVE",
"329 433 LINE",
"246 451 OFFCURVE",
"135 390 OFFCURVE",
"135 272 CURVE SMOOTH",
"135 150 OFFCURVE",
"236 82 OFFCURVE",
"358 82 CURVE SMOOTH",
"503 82 OFFCURVE",
"563 177 OFFCURVE",
"553 311 CURVE"
);
},
{
closed = 1;
nodes = (
"513 0 LINE",
"678 0 LINE",
"678 600 LINE",
"773 600 LINE",
"773 740 LINE",
"-20 740 LINE",
"-20 600 LINE",
"513 600 LINE"
);
}
);
width = 753;
}
);
},
{
glyphname = dvCHA;
lastChange = "2016-08-13 07:58:21 +0000";
layers = (
{
anchors = (
{
name = abvm.e;
position = "{632, 740}";
},
{
name = blwm.u;
position = "{489, -83}";
},
{
name = blwm.virama;
position = "{444, -11}";
}
);
layerId = "C0ED9D5D-A651-429A-8F5D-D93A2EDA2DC0";
paths = (
{
closed = 1;
nodes = (
"857 680 LINE",
"857 740 LINE",
"-40 740 LINE",
"-40 680 LINE"
);
},
{
closed = 1;
nodes = (
"632 680 LINE",
"632 680 OFFCURVE",
"567 680 OFFCURVE",
"567 680 CURVE",
"567 680 OFFCURVE",
"567 556 OFFCURVE",
"567 556 CURVE",
"567 556 OFFCURVE",
"632 539 OFFCURVE",
"632 539 CURVE"
);
},
{
closed = 1;
nodes = (
"588 514 CURVE SMOOTH",
"654 514 OFFCURVE",
"706 472 OFFCURVE",
"706 354 CURVE SMOOTH",
"706 171 OFFCURVE",
"580 92 OFFCURVE",
"409 92 CURVE SMOOTH",
"280 92 OFFCURVE",
"145 126 OFFCURVE",
"145 249 CURVE SMOOTH",
"145 342 OFFCURVE",
"216 386 OFFCURVE",
"320 386 CURVE",
"320 386 OFFCURVE",
"332 386 OFFCURVE",
"332 386 CURVE",
"332 386 OFFCURVE",
"332 446 OFFCURVE",
"332 446 CURVE",
"320 446 LINE SMOOTH",
"190 446 OFFCURVE",
"168 497 OFFCURVE",
"168 628 CURVE SMOOTH",
"168 680 LINE",
"103 690 LINE",
"103 634 LINE SMOOTH",
"103 516 OFFCURVE",
"118 447 OFFCURVE",
"200 422 CURVE",
"200 416 LINE",
"129 390 OFFCURVE",
"81 334 OFFCURVE",
"81 250 CURVE SMOOTH",
"81 90 OFFCURVE",
"240 32 OFFCURVE",
"409 32 CURVE SMOOTH",
"626 32 OFFCURVE",
"766 152 OFFCURVE",
"766 347 CURVE SMOOTH",
"766 484 OFFCURVE",
"699 574 OFFCURVE",
"588 574 CURVE",
"466 571 OFFCURVE",
"407 486 OFFCURVE",
"409 310 CURVE",
"469 310 LINE",
"467 489 OFFCURVE",
"523 514 OFFCURVE"
);
}
);
width = 817;
},
{
anchors = (
{
name = abvm.e;
position = "{676, 740}";
},
{
name = blwm.u;
position = "{529, -91}";
},
{
name = blwm.virama;
position = "{529, -12}";
}
);
layerId = "22D14058-393A-410A-BECB-F56B411A01B2";
paths = (
{
closed = 1;
nodes = (
"850 600 LINE",
"850 740 LINE",
"-20 740 LINE",
"-20 600 LINE"
);
},
{
closed = 1;
nodes = (
"676 600 LINE",
"676 600 OFFCURVE",
"521 600 OFFCURVE",
"521 600 CURVE",
"518 441 LINE",
"676 441 LINE"
);
},
{
closed = 1;
nodes = (
"583 422 CURVE SMOOTH",
"623 422 OFFCURVE",
"639 382 OFFCURVE",
"639 334 CURVE SMOOTH",
"639 218 OFFCURVE",
"557 167 OFFCURVE",
"409 167 CURVE SMOOTH",
"320 167 OFFCURVE",
"242 196 OFFCURVE",
"242 258 CURVE SMOOTH",
"242 306 OFFCURVE",
"280 332 OFFCURVE",
"323 332 CURVE SMOOTH",
"344 332 LINE",
"344 464 LINE",
"330 464 LINE SMOOTH",
"258 464 OFFCURVE",
"247 505 OFFCURVE",
"247 590 CURVE SMOOTH",
"247 618 LINE",
"82 618 LINE",
"82 591 LINE SMOOTH",
"82 493 OFFCURVE",
"101 432 OFFCURVE",
"170 400 CURVE",
"170 394 LINE",
"112 366 OFFCURVE",
"75 312 OFFCURVE",
"75 238 CURVE SMOOTH",
"75 94 OFFCURVE",
"242 30 OFFCURVE",
"413 30 CURVE SMOOTH",
"665 30 OFFCURVE",
"778 151 OFFCURVE",
"778 332 CURVE SMOOTH",
"778 463 OFFCURVE",
"714 543 OFFCURVE",
"578 543 CURVE SMOOTH",
"448 543 OFFCURVE",
"371 495 OFFCURVE",
"387 262 CURVE",
"387 262 OFFCURVE",
"524 262 OFFCURVE",
"524 262 CURVE",
"519 376 OFFCURVE",
"531 422 OFFCURVE"
);
}
);
width = 830;
}
);
},
{
glyphname = dvJA;
lastChange = "2016-08-13 07:58:21 +0000";
layers = (
{
layerId = "C0ED9D5D-A651-429A-8F5D-D93A2EDA2DC0";
paths = (
{
closed = 1;
nodes = (
"139 398 CURVE SMOOTH",
"139 518 LINE",
"74 518 LINE",
"74 376 LINE SMOOTH",
"74 231 OFFCURVE",
"96 106 OFFCURVE",
"263 106 CURVE SMOOTH",
"430 106 OFFCURVE",
"452 231 OFFCURVE",
"452 376 CURVE SMOOTH",
"452 518 LINE",
"387 518 LINE",
"387 398 LINE SMOOTH",
"387 265 OFFCURVE",
"387 166 OFFCURVE",
"263 166 CURVE SMOOTH",
"139 166 OFFCURVE",
"139 265 OFFCURVE"
);
},
{
closed = 1;
nodes = (
"654 460 LINE",
"654 0 LINE",
"719 0 LINE",
"719 680 LINE",
"859 680 LINE",
"859 740 LINE",
"-40 740 LINE",
"-40 680 LINE",
"654 680 LINE",
"654 518 LINE",
"392 518 LINE",
"392 460 LINE"
);
}
);
width = 819;
},
{
layerId = "22D14058-393A-410A-BECB-F56B411A01B2";
paths = (
{
closed = 1;
nodes = (
"211 357 CURVE",
"211 497 LINE",
"47 497 LINE",
"47 330 LINE",
"47 204 OFFCURVE",
"112 96 OFFCURVE",
"287 96 CURVE SMOOTH",
"442 96 OFFCURVE",
"513 178 OFFCURVE",
"513 330 CURVE SMOOTH",
"513 497 LINE",
"352 497 LINE",
"352 357 LINE SMOOTH",
"352 283 OFFCURVE",
"345 236 OFFCURVE",
"285 236 CURVE",
"225 236 OFFCURVE",
"211 283 OFFCURVE"
);
},
{
closed = 1;
nodes = (
"618 366 LINE",
"618 0 LINE",
"782 0 LINE",
"782 600 LINE",
"877 600 LINE",
"877 740 LINE",
"-20 740 LINE",
"-20 600 LINE",
"618 600 LINE",
"618 497 LINE",
"366 497 LINE",
"366 366 LINE"
);
}
);
width = 857;
}
);
},
{
glyphname = dvJHA;
lastChange = "2016-08-13 07:58:21 +0000";
layers = (
{
layerId = "C0ED9D5D-A651-429A-8F5D-D93A2EDA2DC0";
paths = (
{
closed = 1;
nodes = (
"859 680 LINE",
"859 740 LINE",
"-40 740 LINE",
"-40 680 LINE"
);
},
{
closed = 1;
nodes = (
"654 0 LINE",
"719 0 LINE",
"719 705 LINE",
"719 705 OFFCURVE",
"654 705 OFFCURVE",
"654 705 CURVE"
);
},
{
closed = 1;
nodes = (
"418 522 LINE",
"483 522 LINE",
"483 718 LINE",
"418 718 LINE"
);
},
{
closed = 1;
nodes = (
"705 290 LINE",
"705 343 LINE",
"297 343 LINE",
"230 343 OFFCURVE",
"176 354 OFFCURVE",
"176 430 CURVE SMOOTH",
"176 509 OFFCURVE",
"244 511 OFFCURVE",
"319 511 CURVE SMOOTH",
"483 511 LINE",
"483 541 LINE",
"483 571 LINE",
"318 571 LINE SMOOTH",
"214 571 OFFCURVE",
"111 554 OFFCURVE",
"111 430 CURVE SMOOTH",
"111 304 OFFCURVE",
"206 288 OFFCURVE",
"325 288 CURVE SMOOTH",
"396 288 OFFCURVE",
"457 284 OFFCURVE",
"457 198 CURVE SMOOTH",
"457 130 OFFCURVE",
"414 93 OFFCURVE",
"328 93 CURVE SMOOTH",
"236 93 OFFCURVE",
"175 148 OFFCURVE",
"170 231 CURVE",
"105 231 LINE",
"105 -30 LINE",
"170 -30 LINE",
"170 114 LINE",
"198 69 OFFCURVE",
"260 34 OFFCURVE",
"336 34 CURVE SMOOTH",
"463 34 OFFCURVE",
"522 110 OFFCURVE",
"522 192 CURVE SMOOTH",
"522 238 OFFCURVE",
"495 276 OFFCURVE",
"466 290 CURVE"
);
}
);
width = 819;
},
{
layerId = "22D14058-393A-410A-BECB-F56B411A01B2";
paths = (
{
closed = 1;
nodes = (
"898 600 LINE",
"898 740 LINE",
"-20 740 LINE",
"-20 600 LINE"
);
},
{
closed = 1;
nodes = (
"639 0 LINE",
"803 0 LINE",
"803 723 LINE",
"639 723 LINE"
);
},
{
closed = 1;
nodes = (
"307 506 LINE",
"472 506 LINE",
"472 718 LINE",
"307 718 LINE"
);
},
{
closed = 1;
nodes = (
"675 226 LINE",
"695 356 LINE",
"306 356 LINE SMOOTH",
"259 356 OFFCURVE",
"229 356 OFFCURVE",
"229 388 CURVE SMOOTH",
"229 418 OFFCURVE",
"264 421 OFFCURVE",
"317 421 CURVE SMOOTH",
"472 421 LINE",
"472 518 LINE",
"322 551 LINE",
"268 551 LINE SMOOTH",
"159 551 OFFCURVE",
"63 509 OFFCURVE",
"63 399 CURVE SMOOTH",
"63 243 OFFCURVE",
"191 231 OFFCURVE",
"282 231 CURVE SMOOTH",
"336 231 OFFCURVE",
"373 231 OFFCURVE",
"373 189 CURVE SMOOTH",
"373 154 OFFCURVE",
"346 137 OFFCURVE",
"308 137 CURVE SMOOTH",
"262 137 OFFCURVE",
"234 158 OFFCURVE",
"234 204 CURVE",
"79 204 LINE",
"79 -60 LINE",
"234 -60 LINE",
"234 44 LINE",
"260 20 OFFCURVE",
"305 11 OFFCURVE",
"342 11 CURVE SMOOTH",
"458 11 OFFCURVE",
"523 84 OFFCURVE",
"523 186 CURVE SMOOTH",
"523 206 OFFCURVE",
"517 220 OFFCURVE",
"513 226 CURVE"
);
}
);
width = 878;
}
);
},
{
glyphname = dvNYA;
lastChange = "2016-08-13 07:58:21 +0000";
layers = (
{
layerId = "C0ED9D5D-A651-429A-8F5D-D93A2EDA2DC0";
paths = (
{
closed = 1;
nodes = (
"633 0 LINE",
"698 0 LINE",
"698 680 LINE",
"698 680 OFFCURVE",
"838 680 OFFCURVE",
"838 680 CURVE",
"838 740 LINE",
"-40 740 LINE",
"-40 680 LINE",
"633 680 LINE"
);
},
{
closed = 1;
nodes = (
"673 325 LINE",
"673 383 LINE",
"468 383 LINE",
"468 325 LINE"
);
},
{
closed = 1;
nodes = (
"288 589 CURVE SMOOTH",
"146 589 OFFCURVE",
"82 502 OFFCURVE",
"66 424 CURVE",
"132 424 LINE",
"145 476 OFFCURVE",
"192 529 OFFCURVE",
"288 529 CURVE SMOOTH",
"398 529 OFFCURVE",
"448 460 OFFCURVE",
"448 351 CURVE",
"448 242 OFFCURVE",
"398 173 OFFCURVE",
"288 173 CURVE SMOOTH",
"192 173 OFFCURVE",
"145 226 OFFCURVE",
"132 278 CURVE",
"66 278 LINE",
"82 200 OFFCURVE",
"146 113 OFFCURVE",
"288 113 CURVE SMOOTH",
"445 113 OFFCURVE",
"513 224 OFFCURVE",
"513 351 CURVE",
"513 478 OFFCURVE",
"445 589 OFFCURVE"
);
}
);
width = 798;
},
{
layerId = "22D14058-393A-410A-BECB-F56B411A01B2";
paths = (
{
closed = 1;
nodes = (
"638 0 LINE",
"802 0 LINE",
"802 600 LINE",
"897 600 LINE",
"897 740 LINE",
"-20 740 LINE",
"-20 600 LINE",
"638 600 LINE"
);
},
{
closed = 1;
nodes = (
"728 232 LINE",
"728 372 LINE",
"470 372 LINE",
"470 232 LINE"
);
},
{
closed = 1;
nodes = (
"296 542 CURVE SMOOTH",
"160 542 OFFCURVE",
"71 469 OFFCURVE",
"56 357 CURVE",
"216 357 LINE",
"225 384 OFFCURVE",
"256 403 OFFCURVE",
"296 403 CURVE SMOOTH",
"356 403 OFFCURVE",
"385 357 OFFCURVE",
"385 300 CURVE SMOOTH",
"385 243 OFFCURVE",
"356 197 OFFCURVE",
"296 197 CURVE SMOOTH",
"256 197 OFFCURVE",
"225 216 OFFCURVE",
"216 243 CURVE",
"56 243 LINE",
"71 131 OFFCURVE",
"160 58 OFFCURVE",
"296 58 CURVE SMOOTH",
"445 58 OFFCURVE",
"541 152 OFFCURVE",
"541 300 CURVE",
"541 448 OFFCURVE",
"445 542 OFFCURVE"
);
}
);
width = 877;
}
);
},
{
glyphname = dvTTA;
lastChange = "2016-08-13 07:58:21 +0000";
layers = (
{
anchors = (
{
name = abvm.e;
position = "{444, 740}";
},
{
name = blwm.u;
position = "{407, -69}";
},
{
name = blwm.virama;
position = "{387, 8}";
}
);
layerId = "C0ED9D5D-A651-429A-8F5D-D93A2EDA2DC0";
paths = (
{
closed = 1;
nodes = (
"444 506 LINE",
"444 680 LINE",
"703 680 LINE",
"703 740 LINE",
"-40 740 LINE",
"-40 680 LINE",
"379 680 LINE",
"379 566 LINE",
"206 565 OFFCURVE",
"78 478 OFFCURVE",
"78 305 CURVE SMOOTH",
"78 151 OFFCURVE",
"190 48 OFFCURVE",
"344 48 CURVE SMOOTH",
"501 48 OFFCURVE",
"606 150 OFFCURVE",
"606 307 CURVE",
"541 307 LINE",
"541 184 OFFCURVE",
"467 108 OFFCURVE",
"344 108 CURVE SMOOTH",
"224 108 OFFCURVE",
"143 185 OFFCURVE",
"143 305 CURVE SMOOTH",
"143 444 OFFCURVE",
"240 505 OFFCURVE",
"379 506 CURVE SMOOTH"
);
}
);
width = 663;
},
{
anchors = (
{
name = abvm.e;
position = "{460, 740}";
},
{
name = blwm.u;
position = "{468, -99}";
},
{
name = blwm.virama;
position = "{436, -13}";
}
);
layerId = "22D14058-393A-410A-BECB-F56B411A01B2";
paths = (
{
closed = 1;
nodes = (
"460 404 LINE",
"460 600 LINE",
"669 600 LINE",
"669 740 LINE",
"-20 740 LINE",
"-20 600 LINE",
"296 600 LINE",
"296 542 LINE",
"152 526 OFFCURVE",
"52 432 OFFCURVE",
"52 279 CURVE SMOOTH",
"52 116 OFFCURVE",
"171 18 OFFCURVE",
"341 18 CURVE SMOOTH",
"510 18 OFFCURVE",
"618 112 OFFCURVE",
"618 281 CURVE",
"462 281 LINE",
"462 208 OFFCURVE",
"420 159 OFFCURVE",
"340 159 CURVE SMOOTH",
"265 159 OFFCURVE",
"213 206 OFFCURVE",
"213 277 CURVE SMOOTH",
"213 370 OFFCURVE",
"285 404 OFFCURVE",
"378 404 CURVE SMOOTH"
);
}
);
width = 649;
}
);
},
{
glyphname = dvTTHA;
lastChange = "2016-08-13 07:58:21 +0000";
layers = (
{
anchors = (
{
name = abvm.e;
position = "{377, 740}";
},
{
name = blwm.u;
position = "{416, -63}";
},
{
name = blwm.virama;
position = "{388, 8}";
}
);
layerId = "C0ED9D5D-A651-429A-8F5D-D93A2EDA2DC0";
paths = (
{
closed = 1;
nodes = (
"377 563 CURVE",
"377 680 LINE",
"709 680 LINE",
"709 740 LINE",
"-40 740 LINE",
"-40 680 LINE",
"312 680 LINE",
"312 563 LINE",
"176 549 OFFCURVE",
"81 450 OFFCURVE",
"81 309 CURVE SMOOTH",
"81 156 OFFCURVE",
"192 53 OFFCURVE",
"345 53 CURVE SMOOTH",
"498 53 OFFCURVE",
"609 156 OFFCURVE",
"609 309 CURVE SMOOTH",
"609 451 OFFCURVE",
"513 550 OFFCURVE"
);
},
{
closed = 1;
nodes = (
"345 506 CURVE SMOOTH",
"463 506 OFFCURVE",
"544 427 OFFCURVE",
"544 309 CURVE SMOOTH",
"544 191 OFFCURVE",
"463 112 OFFCURVE",
"345 112 CURVE SMOOTH",
"227 112 OFFCURVE",
"146 191 OFFCURVE",
"146 309 CURVE SMOOTH",
"146 427 OFFCURVE",
"227 506 OFFCURVE"
);
}
);
width = 669;
},
{
anchors = (
{
name = abvm.e;
position = "{419, 740}";
},
{
name = blwm.u;
position = "{447, -88}";
},
{
name = blwm.virama;
position = "{427, -3}";
}
);
layerId = "22D14058-393A-410A-BECB-F56B411A01B2";
paths = (
{
closed = 1;
nodes = (
"419 534 CURVE",
"419 600 LINE",
"691 600 LINE",
"691 740 LINE",
"-20 740 LINE",
"-20 600 LINE",
"255 600 LINE",
"255 534 LINE",
"136 506 OFFCURVE",
"53 417 OFFCURVE",
"53 286 CURVE SMOOTH",
"53 126 OFFCURVE",
"176 29 OFFCURVE",
"337 29 CURVE SMOOTH",
"498 29 OFFCURVE",
"621 126 OFFCURVE",
"621 286 CURVE SMOOTH",
"621 417 OFFCURVE",
"538 506 OFFCURVE"
);
},
{
closed = 1;
nodes = (
"337 406 CURVE SMOOTH",
"412 406 OFFCURVE",
"459 357 OFFCURVE",
"459 286 CURVE SMOOTH",
"459 215 OFFCURVE",
"412 166 OFFCURVE",
"337 166 CURVE SMOOTH",
"262 166 OFFCURVE",
"215 215 OFFCURVE",
"215 286 CURVE SMOOTH",
"215 357 OFFCURVE",
"262 406 OFFCURVE"
);
}
);
width = 671;
}
);
},
{
glyphname = dvDDA;
lastChange = "2016-08-13 07:58:21 +0000";
layers = (
{
anchors = (
{
name = abvm.e;
position = "{469, 740}";
},
{
name = blwm.u;
position = "{381, -124}";
},
{
name = blwm.virama;
position = "{360, -47}";
}
);
layerId = "C0ED9D5D-A651-429A-8F5D-D93A2EDA2DC0";
paths = (
{
closed = 1;
nodes = (
"626 680 LINE",
"626 740 LINE",
"-40 740 LINE",
"-40 680 LINE"
);
},
{
closed = 1;
nodes = (
"404 512 LINE",
"469 512 LINE",
"469 718 LINE",
"404 718 LINE"
);
},
{
closed = 1;
nodes = (
"82 202 LINE",
"84 66 OFFCURVE",
"179 -10 OFFCURVE",
"324 -10 CURVE SMOOTH",
"451 -10 OFFCURVE",
"529 63 OFFCURVE",
"529 156 CURVE SMOOTH",
"529 298 OFFCURVE",
"413 316 OFFCURVE",
"301 316 CURVE SMOOTH",
"222 316 OFFCURVE",
"162 329 OFFCURVE",
"162 410 CURVE SMOOTH",
"162 488 OFFCURVE",
"230 501 OFFCURVE",
"305 501 CURVE SMOOTH",
"469 501 LINE",
"469 531 LINE",
"469 561 LINE",
"304 561 LINE SMOOTH",
"200 561 OFFCURVE",
"97 531 OFFCURVE",
"97 410 CURVE SMOOTH",
"97 289 OFFCURVE",
"190 258 OFFCURVE",
"315 258 CURVE SMOOTH",
"388 258 OFFCURVE",
"464 252 OFFCURVE",
"464 162 CURVE SMOOTH",
"464 84 OFFCURVE",
"407 50 OFFCURVE",
"321 50 CURVE",
"203 50 OFFCURVE",
"152 110 OFFCURVE",
"146 202 CURVE"
);
}
);
width = 586;
},
{
anchors = (
{
name = abvm.e;
position = "{475, 740}";
},
{
name = blwm.u;
position = "{411, -135}";
},
{
name = blwm.virama;
position = "{392, -47}";
}
);
layerId = "22D14058-393A-410A-BECB-F56B411A01B2";
paths = (
{
closed = 1;
nodes = (
"588 600 LINE",
"588 740 LINE",
"-20 740 LINE",
"-20 600 LINE"
);
},
{
closed = 1;
nodes = (
"310 496 LINE",
"475 496 LINE",
"475 718 LINE",
"310 718 LINE"
);
},
{
closed = 1;
nodes = (
"54 179 LINE",
"60 50 OFFCURVE",
"167 -20 OFFCURVE",
"305 -20 CURVE SMOOTH",
"451 -20 OFFCURVE",
"538 51 OFFCURVE",
"538 162 CURVE SMOOTH",
"538 304 OFFCURVE",
"426 336 OFFCURVE",
"321 336 CURVE",
"268 336 OFFCURVE",
"232 338 OFFCURVE",
"232 373 CURVE SMOOTH",
"232 403 OFFCURVE",
"267 411 OFFCURVE",
"320 411 CURVE SMOOTH",
"475 411 LINE",
"475 508 LINE",
"325 541 LINE",
"271 541 LINE SMOOTH",
"162 541 OFFCURVE",
"66 494 OFFCURVE",
"66 384 CURVE SMOOTH",
"66 228 OFFCURVE",
"194 210 OFFCURVE",
"285 210 CURVE SMOOTH",
"344 210 OFFCURVE",
"376 199 OFFCURVE",
"376 159 CURVE SMOOTH",
"376 122 OFFCURVE",
"346 107 OFFCURVE",
"305 107 CURVE SMOOTH",
"256 107 OFFCURVE",
"220 130 OFFCURVE",
"216 179 CURVE"
);
}
);
width = 568;
}
);
},
{
glyphname = dvDDHA;
lastChange = "2016-08-13 07:58:21 +0000";
layers = (
{
anchors = (
{
name = abvm.e;
position = "{470, 740}";
},
{
name = blwm.u;
position = "{426, -117}";
},
{
name = blwm.virama;
position = "{434, -10}";
}
);
layerId = "C0ED9D5D-A651-429A-8F5D-D93A2EDA2DC0";
paths = (
{
closed = 1;
nodes = (
"405 517 LINE",
"470 517 LINE",
"470 680 LINE",
"470 680 OFFCURVE",
"673 680 OFFCURVE",
"673 680 CURVE",
"673 740 LINE",
"-40 740 LINE",
"-40 680 LINE",
"405 680 LINE"
);
},
{
closed = 1;
nodes = (
"257 193 CURVE",
"321 193 LINE",
"321 260 OFFCURVE",
"348 311 OFFCURVE",
"421 311 CURVE SMOOTH",
"498 311 OFFCURVE",
"524 260 OFFCURVE",
"524 202 CURVE SMOOTH",
"524 126 OFFCURVE",
"474 72 OFFCURVE",
"372 72 CURVE SMOOTH",
"245 72 OFFCURVE",
"143 145 OFFCURVE",
"143 288 CURVE SMOOTH",
"143 445 OFFCURVE",
"249 518 OFFCURVE",
"406 517 CURVE",
"406 517 OFFCURVE",
"406 577 OFFCURVE",
"406 577 CURVE",
"229 579 OFFCURVE",
"78 491 OFFCURVE",
"78 288 CURVE SMOOTH",
"78 116 OFFCURVE",
"205 12 OFFCURVE",
"371 12 CURVE SMOOTH",
"502 12 OFFCURVE",
"589 86 OFFCURVE",
"589 203 CURVE SMOOTH",
"589 307 OFFCURVE",
"520 370 OFFCURVE",
"419 370 CURVE SMOOTH",
"308 370 OFFCURVE",
"257 290 OFFCURVE"
);
}
);
width = 633;
},
{
anchors = (
{
name = abvm.e;
position = "{494, 740}";
},
{
name = blwm.u;
position = "{455, -124}";
},
{
name = blwm.virama;
position = "{455, -46}";
}
);
layerId = "22D14058-393A-410A-BECB-F56B411A01B2";
paths = (
{
closed = 1;
nodes = (
"330 410 LINE",
"494 410 LINE",
"494 600 LINE",
"664 600 LINE",
"664 740 LINE",
"-20 740 LINE",
"-20 600 LINE",
"330 600 LINE"
);
},
{
closed = 1;
nodes = (
"262 195 CURVE",
"398 195 LINE",
"398 217 OFFCURVE",
"406 243 OFFCURVE",
"440 243 CURVE SMOOTH",
"471 243 OFFCURVE",
"483 221 OFFCURVE",
"483 195 CURVE SMOOTH",
"483 152 OFFCURVE",
"441 128 OFFCURVE",
"376 128 CURVE SMOOTH",
"261 128 OFFCURVE",
"209 181 OFFCURVE",
"209 260 CURVE SMOOTH",
"209 360 OFFCURVE",
"284 409 OFFCURVE",
"388 410 CURVE",
"384 546 LINE",
"191 548 OFFCURVE",
"48 458 OFFCURVE",
"48 265 CURVE SMOOTH",
"48 84 OFFCURVE",
"189 -10 OFFCURVE",
"370 -10 CURVE SMOOTH",
"512 -10 OFFCURVE",
"632 58 OFFCURVE",
"632 200 CURVE SMOOTH",
"632 303 OFFCURVE",
"547 367 OFFCURVE",
"440 367 CURVE SMOOTH",
"318 367 OFFCURVE",
"259 305 OFFCURVE"
);
}
);
width = 644;
}
);
},
{
glyphname = dvNNA;
lastChange = "2016-08-13 07:58:21 +0000";
layers = (
{
layerId = "C0ED9D5D-A651-429A-8F5D-D93A2EDA2DC0";
paths = (
{
closed = 1;
nodes = (
"492 419 CURVE SMOOTH",
"492 705 LINE",
"492 705 OFFCURVE",
"427 705 OFFCURVE",
"427 705 CURVE",
"427 418 LINE SMOOTH",
"427 309 OFFCURVE",
"406 237 OFFCURVE",
"297 237 CURVE",
"188 237 OFFCURVE",
"167 309 OFFCURVE",
"167 418 CURVE SMOOTH",
"167 705 LINE",
"167 705 OFFCURVE",
"102 705 OFFCURVE",
"102 705 CURVE",
"102 419 LINE SMOOTH",
"102 273 OFFCURVE",
"151 177 OFFCURVE",
"297 177 CURVE",
"443 177 OFFCURVE",
"492 273 OFFCURVE"
);
},
{
closed = 1;
nodes = (
"888 680 CURVE",
"888 740 LINE",
"-40 740 LINE",
"-40 680 LINE",
"683 680 LINE",
"683 0 LINE",
"748 0 LINE",
"748 680 LINE",
"748 680 OFFCURVE",
"888 680 OFFCURVE"
);
}
);
width = 848;
},
{
layerId = "22D14058-393A-410A-BECB-F56B411A01B2";
paths = (
{
closed = 1;
nodes = (
"537 367 CURVE SMOOTH",
"537 675 LINE",
"375 675 LINE",
"375 360 LINE SMOOTH",
"375 312 OFFCURVE",
"358 276 OFFCURVE",
"310 276 CURVE SMOOTH",
"263 276 OFFCURVE",
"245 312 OFFCURVE",
"245 360 CURVE SMOOTH",
"245 675 LINE",
"83 675 LINE",
"83 367 LINE SMOOTH",
"83 229 OFFCURVE",
"151 136 OFFCURVE",
"310 136 CURVE SMOOTH",
"469 136 OFFCURVE",
"537 229 OFFCURVE"
);
},
{
closed = 1;
nodes = (
"919 600 LINE",
"919 740 LINE",
"-20 740 LINE",
"-20 600 LINE",
"660 600 LINE",
"660 0 LINE",
"824 0 LINE",
"824 600 LINE"
);
}
);
width = 899;
}
);
},
{
glyphname = dvTA;
lastChange = "2016-08-13 07:58:21 +0000";
layers = (
{
layerId = "C0ED9D5D-A651-429A-8F5D-D93A2EDA2DC0";
paths = (
{
closed = 1;
nodes = (
"338 56 LINE",
"188 56 OFFCURVE",
"130 124 OFFCURVE",
"130 251 CURVE SMOOTH",
"130 389 OFFCURVE",
"225 439 OFFCURVE",
"350 439 CURVE SMOOTH",
"412 439 LINE",
"501 439 LINE",
"501 0 LINE",
"566 0 LINE",
"566 680 LINE",
"706 680 LINE",
"706 740 LINE",
"-40 740 LINE",
"-40 680 LINE",
"501 680 LINE",
"501 499 LINE",
"404 499 LINE",
"350 499 LINE SMOOTH",
"183 499 OFFCURVE",
"64 427 OFFCURVE",
"64 251 CURVE SMOOTH",
"64 106 OFFCURVE",
"140 -2 OFFCURVE",
"330 -2 CURVE SMOOTH",
"338 -2 LINE"
);
}
);
width = 666;
},
{
layerId = "22D14058-393A-410A-BECB-F56B411A01B2";
paths = (
{
closed = 1;
nodes = (
"353 129 LINE",
"259 129 OFFCURVE",
"224 172 OFFCURVE",
"224 239 CURVE",
"224 316 OFFCURVE",
"274 351 OFFCURVE",
"347 351 CURVE",
"361 351 LINE",
"462 351 LINE",
"462 0 LINE",
"626 0 LINE",
"626 600 LINE",
"721 600 LINE",
"721 740 LINE",
"-20 740 LINE",
"-20 600 LINE",
"462 600 LINE",
"462 491 LINE",
"365 491 LINE",
"344 491 LINE",
"190 491 OFFCURVE",
"59 427 OFFCURVE",
"59 239 CURVE SMOOTH",
"59 67 OFFCURVE",
"169 0 OFFCURVE",
"321 0 CURVE",
"353 0 LINE"
);
}
);
width = 701;
}
);
},
{
glyphname = dvTHA;
lastChange = "2016-08-13 07:58:21 +0000";
layers = (
{
layerId = "C0ED9D5D-A651-429A-8F5D-D93A2EDA2DC0";
paths = (
{
closed = 1;
nodes = (
"791 680 LINE",
"791 740 LINE",
"586 740 LINE",
"586 341 LINE",
"581 235 OFFCURVE",
"490 159 OFFCURVE",
"382 159 CURVE SMOOTH",
"233 159 OFFCURVE",
"163 254 OFFCURVE",
"170 389 CURVE",
"329 385 OFFCURVE",
"478 406 OFFCURVE",
"478 570 CURVE SMOOTH",
"478 678 OFFCURVE",
"405 750 OFFCURVE",
"300 750 CURVE SMOOTH",
"183 750 OFFCURVE",
"115 667 OFFCURVE",
"118 552 CURVE",
"183 552 LINE",
"181 633 OFFCURVE",
"217 690 OFFCURVE",
"299 690 CURVE SMOOTH",
"371 690 OFFCURVE",
"413 646 OFFCURVE",
"413 574 CURVE SMOOTH",
"413 461 OFFCURVE",
"330 443 OFFCURVE",
"195 443 CURVE SMOOTH",
"167 443 OFFCURVE",
"137 444 OFFCURVE",
"105 445 CURVE",
"81 251 OFFCURVE",
"179 99 OFFCURVE",
"375 99 CURVE SMOOTH",
"493 99 OFFCURVE",
"560 157 OFFCURVE",
"586 204 CURVE",
"586 0 LINE",
"651 0 LINE",
"651 680 LINE"
);
}
);
width = 751;
},
{
layerId = "22D14058-393A-410A-BECB-F56B411A01B2";
paths = (
{
closed = 1;
nodes = (
"809 600 LINE",
"809 740 LINE",
"550 740 LINE",
"550 439 LINE SMOOTH",
"550 296 OFFCURVE",
"475 218 OFFCURVE",
"368 218 CURVE SMOOTH",
"268 218 OFFCURVE",
"224 277 OFFCURVE",
"232 347 CURVE",
"389 348 OFFCURVE",
"481 426 OFFCURVE",
"481 549 CURVE SMOOTH",
"481 685 OFFCURVE",
"385 747 OFFCURVE",
"276 747 CURVE SMOOTH",
"165 747 OFFCURVE",
"68 677 OFFCURVE",
"74 538 CURVE",
"223 538 LINE",
"220 581 OFFCURVE",
"239 607 OFFCURVE",
"273 607 CURVE SMOOTH",
"303 607 OFFCURVE",
"324 588 OFFCURVE",
"324 552 CURVE SMOOTH",
"324 491 OFFCURVE",
"263 468 OFFCURVE",
"176 468 CURVE SMOOTH",
"62 468 LINE",
"30 233 OFFCURVE",
"134 78 OFFCURVE",
"344 78 CURVE SMOOTH",
"450 78 OFFCURVE",
"520 126 OFFCURVE",
"550 175 CURVE",
"550 0 LINE",
"714 0 LINE",
"714 600 LINE"
);
}
);
width = 789;
}
);
},
{
glyphname = dvDA;
lastChange = "2016-08-13 07:58:21 +0000";
layers = (
{
anchors = (
{
name = abvm.e;
position = "{474, 740}";
},
{
name = blwm.u;
position = "{514, 8}";
},
{
name = blwm.virama;
position = "{516, -35}";
}
);
layerId = "C0ED9D5D-A651-429A-8F5D-D93A2EDA2DC0";
paths = (
{
closed = 1;
nodes = (
"514 8 LINE",
"514 8 OFFCURVE",
"514 302 OFFCURVE",
"514 302 CURVE",
"514 302 OFFCURVE",
"455 302 OFFCURVE",
"455 302 CURVE",
"455 197 OFFCURVE",
"387 164 OFFCURVE",
"311 164 CURVE",
"201 164 OFFCURVE",
"129 217 OFFCURVE",
"129 331 CURVE SMOOTH",
"129 479 OFFCURVE",
"234 509 OFFCURVE",
"377 509 CURVE SMOOTH",
"474 509 LINE",
"474 680 LINE",
"632 680 LINE",
"632 740 LINE",
"-40 740 LINE",
"-40 680 LINE",
"409 680 LINE",
"409 569 LINE",
"365 569 LINE SMOOTH",
"189 569 OFFCURVE",
"63 505 OFFCURVE",
"63 331 CURVE SMOOTH",
"63 194 OFFCURVE",
"161 104 OFFCURVE",
"305 104 CURVE SMOOTH",
"367 104 OFFCURVE",
"424 126 OFFCURVE",
"449 162 CURVE",
"449 8 LINE"
);
}
);
width = 592;
},
{
anchors = (
{
name = abvm.e;
position = "{521, 740}";
},
{
name = blwm.u;
position = "{551, -28}";
},
{
name = blwm.virama;
position = "{551, -47}";
}
);
layerId = "22D14058-393A-410A-BECB-F56B411A01B2";
paths = (
{
closed = 1;
nodes = (
"551 -28 LINE",
"551 264 LINE",
"402 264 LINE",
"402 220 OFFCURVE",
"371 192 OFFCURVE",
"320 192 CURVE SMOOTH",
"260 192 OFFCURVE",
"222 223 OFFCURVE",
"222 284 CURVE SMOOTH",
"222 350 OFFCURVE",
"273 387 OFFCURVE",
"344 387 CURVE SMOOTH",
"521 387 LINE",
"521 600 LINE",
"633 600 LINE",
"633 740 LINE",
"-20 740 LINE",
"-20 600 LINE",
"357 600 LINE",
"357 532 LINE",
"334 532 LINE SMOOTH",
"177 532 OFFCURVE",
"58 454 OFFCURVE",
"58 291 CURVE SMOOTH",
"58 126 OFFCURVE",
"166 55 OFFCURVE",
"284 55 CURVE SMOOTH",
"334 55 OFFCURVE",
"369 69 OFFCURVE",
"388 88 CURVE",
"388 -28 LINE"
);
}
);
width = 613;
}
);
},
{
glyphname = dvDHA;
lastChange = "2016-08-13 07:58:21 +0000";
layers = (
{
layerId = "C0ED9D5D-A651-429A-8F5D-D93A2EDA2DC0";
paths = (
{
closed = 1;
nodes = (
"549 680 LINE",
"754 680 LINE",
"754 740 LINE",
"549 740 LINE"
);
},
{
closed = 1;
nodes = (
"614 0 LINE",
"614 690 LINE",
"614 690 OFFCURVE",
"549 698 OFFCURVE",
"549 698 CURVE",
"549 0 LINE"
);
},
{
closed = 1;
nodes = (
"371 568 CURVE",
"433 568 LINE",
"440 674 OFFCURVE",
"379 750 OFFCURVE",
"271 750 CURVE SMOOTH",
"171 750 OFFCURVE",
"105 681 OFFCURVE",
"105 586 CURVE SMOOTH",
"105 510 OFFCURVE",
"153 457 OFFCURVE",
"211 433 CURVE",
"211 427 LINE",
"147 404 OFFCURVE",
"107 357 OFFCURVE",
"107 287 CURVE SMOOTH",
"107 170 OFFCURVE",
"216 110 OFFCURVE",
"330 110 CURVE SMOOTH",
"467 110 OFFCURVE",
"578 182 OFFCURVE",
"576 305 CURVE",
"549 350 LINE",
"549 238 OFFCURVE",
"451 170 OFFCURVE",
"340 170 CURVE SMOOTH",
"259 170 OFFCURVE",
"172 202 OFFCURVE",
"172 286 CURVE SMOOTH",
"172 371 OFFCURVE",
"250 398 OFFCURVE",
"335 398 CURVE SMOOTH",
"335 398 OFFCURVE",
"383 398 OFFCURVE",
"383 398 CURVE",
"383 398 OFFCURVE",
"383 457 OFFCURVE",
"383 457 CURVE",
"335 457 LINE SMOOTH",
"239 457 OFFCURVE",
"170 497 OFFCURVE",
"170 588 CURVE SMOOTH",
"170 651 OFFCURVE",
"209 690 OFFCURVE",
"272 690 CURVE SMOOTH",
"345 690 OFFCURVE",
"373 639 OFFCURVE"
);
}
);
width = 714;
},
{
layerId = "22D14058-393A-410A-BECB-F56B411A01B2";
paths = (
{
closed = 1;
nodes = (
"500 600 LINE",
"757 600 LINE",
"757 740 LINE",
"500 740 LINE"
);
},
{
closed = 1;
nodes = (
"665 0 LINE",
"665 622 LINE",
"665 622 OFFCURVE",
"500 622 OFFCURVE",
"500 622 CURVE",
"500 0 LINE"
);
},
{
closed = 1;
nodes = (
"302 558 CURVE",
"431 558 LINE",
"439 669 OFFCURVE",
"373 750 OFFCURVE",
"251 750 CURVE SMOOTH",
"145 750 OFFCURVE",
"68 687 OFFCURVE",
"68 585 CURVE SMOOTH",
"68 498 OFFCURVE",
"118 443 OFFCURVE",
"183 422 CURVE",
"183 416 LINE",
"128 396 OFFCURVE",
"75 352 OFFCURVE",
"75 263 CURVE SMOOTH",
"75 142 OFFCURVE",
"190 78 OFFCURVE",
"308 78 CURVE SMOOTH",
"436 78 OFFCURVE",
"526 134 OFFCURVE",
"548 249 CURVE",
"500 374 LINE",
"500 276 OFFCURVE",
"435 213 OFFCURVE",
"344 213 CURVE SMOOTH",
"288 213 OFFCURVE",
"240 236 OFFCURVE",
"240 284 CURVE SMOOTH",
"240 338 OFFCURVE",
"295 354 OFFCURVE",
"359 354 CURVE SMOOTH",
"399 354 LINE",
"399 486 LINE",
"337 486 LINE SMOOTH",
"278 486 OFFCURVE",
"213 504 OFFCURVE",
"213 565 CURVE SMOOTH",
"213 593 OFFCURVE",
"233 610 OFFCURVE",
"257 610 CURVE SMOOTH",
"284 610 OFFCURVE",
"304 593 OFFCURVE"
);
}
);
width = 740;
}
);
},
{
glyphname = dvNA;
lastChange = "2016-08-13 07:58:21 +0000";
layers = (
{
layerId = "C0ED9D5D-A651-429A-8F5D-D93A2EDA2DC0";
paths = (
{
closed = 1;
nodes = (
"610 0 LINE",
"675 0 LINE",
"675 680 LINE",
"815 680 LINE",
"815 740 LINE",
"-40 740 LINE",
"-40 680 LINE",
"610 680 LINE",
"610 487 LINE",
"290 487 LINE SMOOTH",
"139 487 OFFCURVE",
"67 413 OFFCURVE",
"67 298 CURVE SMOOTH",
"67 182 OFFCURVE",
"156 110 OFFCURVE",
"268 110 CURVE SMOOTH",
"384 110 OFFCURVE",
"456 190 OFFCURVE",
"456 293 CURVE SMOOTH",
"456 352 OFFCURVE",
"432 404 OFFCURVE",
"385 429 CURVE",
"610 429 LINE"
);
},
{
closed = 1;
nodes = (
"263 428 CURVE SMOOTH",
"343 428 OFFCURVE",
"392 375 OFFCURVE",
"392 298 CURVE SMOOTH",
"392 212 OFFCURVE",
"331 169 OFFCURVE",
"268 169 CURVE SMOOTH",
"198 169 OFFCURVE",
"132 207 OFFCURVE",
"132 298 CURVE SMOOTH",
"132 382 OFFCURVE",
"193 428 OFFCURVE"
);
}
);
width = 775;
},
{
layerId = "22D14058-393A-410A-BECB-F56B411A01B2";
paths = (
{
closed = 1;
nodes = (
"571 0 LINE",
"735 0 LINE",
"735 600 LINE",
"830 600 LINE",
"830 740 LINE",
"-20 740 LINE",
"-20 600 LINE",
"571 600 LINE",
"571 489 LINE",
"274 489 LINE SMOOTH",
"134 489 OFFCURVE",
"28 419 OFFCURVE",
"28 279 CURVE SMOOTH",
"28 145 OFFCURVE",
"122 60 OFFCURVE",
"256 60 CURVE SMOOTH",
"381 60 OFFCURVE",
"466 127 OFFCURVE",
"466 247 CURVE SMOOTH",
"466 288 OFFCURVE",
"450 330 OFFCURVE",
"431 351 CURVE",
"571 351 LINE"
);
},
{
closed = 1;
nodes = (
"255 349 CURVE SMOOTH",
"303 349 OFFCURVE",
"329 324 OFFCURVE",
"329 277 CURVE SMOOTH",
"329 231 OFFCURVE",
"303 200 OFFCURVE",
"255 200 CURVE SMOOTH",
"209 200 OFFCURVE",
"176 231 OFFCURVE",
"176 277 CURVE SMOOTH",
"176 325 OFFCURVE",
"209 349 OFFCURVE"
);
}
);
width = 810;
}
);
},
{
glyphname = dvPA;
lastChange = "2016-08-13 07:58:21 +0000";
layers = (
{
layerId = "C0ED9D5D-A651-429A-8F5D-D93A2EDA2DC0";
paths = (
{
closed = 1;
nodes = (
"478 0 LINE",
"543 0 LINE",
"543 680 LINE",
"543 680 OFFCURVE",
"683 680 OFFCURVE",
"683 680 CURVE",
"683 740 LINE",
"-40 740 LINE",
"-40 680 LINE",
"93 680 LINE",
"93 456 LINE SMOOTH",
"93 315 OFFCURVE",
"163 209 OFFCURVE",
"304 209 CURVE SMOOTH",
"451 209 OFFCURVE",
"491 311 OFFCURVE",
"498 355 CURVE",
"478 444 LINE",
"478 345 OFFCURVE",
"412 269 OFFCURVE",
"318 269 CURVE SMOOTH",
"203 269 OFFCURVE",
"158 345 OFFCURVE",
"158 460 CURVE SMOOTH",
"158 680 LINE",
"478 680 LINE"
);
}
);
width = 643;
},
{
layerId = "22D14058-393A-410A-BECB-F56B411A01B2";
paths = (
{
closed = 1;
nodes = (
"453 0 LINE",
"618 0 LINE",
"618 600 LINE",
"713 600 LINE",
"713 740 LINE",
"-20 740 LINE",
"-20 600 LINE",
"80 600 LINE",
"80 426 LINE SMOOTH",
"80 280 OFFCURVE",
"158 166 OFFCURVE",
"306 166 CURVE SMOOTH",
"437 166 OFFCURVE",
"487 251 OFFCURVE",
"493 342 CURVE",
"453 423 LINE",
"453 348 OFFCURVE",
"416 305 OFFCURVE",
"351 305 CURVE SMOOTH",
"272 305 OFFCURVE",
"245 352 OFFCURVE",
"245 422 CURVE SMOOTH",
"245 600 LINE",
"453 600 LINE"
);
}
);
width = 693;
}
);
},
{
glyphname = dvPHA;
lastChange = "2016-08-13 07:58:21 +0000";
layers = (
{
anchors = (
{
name = abvm.e;
position = "{531, 740}";
},
{
name = blwm.u;
position = "{531, 0}";
},
{
name = blwm.virama;
position = "{531, 0}";
}
);
layerId = "C0ED9D5D-A651-429A-8F5D-D93A2EDA2DC0";
paths = (
{
closed = 1;
nodes = (
"466 0 LINE",
"531 0 LINE",
"531 680 LINE",
"531 680 OFFCURVE",
"1035 680 OFFCURVE",
"1035 680 CURVE",
"1035 740 LINE",
"-40 740 LINE",
"-40 680 LINE",
"101 680 LINE",
"101 490 LINE SMOOTH",
"101 350 OFFCURVE",
"166 246 OFFCURVE",
"305 246 CURVE SMOOTH",
"427 246 OFFCURVE",
"484 333 OFFCURVE",
"491 404 CURVE",
"466 488 LINE",
"466 391 OFFCURVE",
"413 306 OFFCURVE",
"319 306 CURVE SMOOTH",
"203 306 OFFCURVE",
"166 375 OFFCURVE",
"166 491 CURVE SMOOTH",
"166 680 LINE",
"466 680 LINE"
);
},
{
closed = 1;
nodes = (
"665 108 LINE",
"820 98 OFFCURVE",
"926 184 OFFCURVE",
"926 321 CURVE SMOOTH",
"926 453 OFFCURVE",
"840 543 OFFCURVE",
"710 543 CURVE SMOOTH",
"549 543 OFFCURVE",
"489 419 OFFCURVE",
"500 305 CURVE",
"531 294 LINE",
"531 402 OFFCURVE",
"592 483 OFFCURVE",
"700 483 CURVE SMOOTH",
"804 483 OFFCURVE",
"861 425 OFFCURVE",
"861 321 CURVE SMOOTH",
"861 216 OFFCURVE",
"780 155 OFFCURVE",
"665 166 CURVE"
);
}
);
width = 995;
},
{
anchors = (
{
name = abvm.e;
position = "{595, 740}";
},
{
name = blwm.u;
position = "{595, 0}";
},
{
name = blwm.virama;
position = "{595, 0}";
}
);
layerId = "22D14058-393A-410A-BECB-F56B411A01B2";
paths = (
{
closed = 1;
nodes = (
"430 0 LINE",
"595 0 LINE",
"595 600 LINE",
"992 600 LINE",
"992 740 LINE",
"-20 740 LINE",
"-20 600 LINE",
"77 600 LINE",
"77 450 LINE SMOOTH",
"77 304 OFFCURVE",
"145 186 OFFCURVE",
"293 186 CURVE SMOOTH",
"424 186 OFFCURVE",
"466 276 OFFCURVE",
"471 374 CURVE",
"430 453 LINE",
"430 375 OFFCURVE",
"405 325 OFFCURVE",
"338 325 CURVE SMOOTH",
"259 325 OFFCURVE",
"242 376 OFFCURVE",
"242 446 CURVE SMOOTH",
"242 600 LINE",
"430 600 LINE"
);
},
{
closed = 1;
nodes = (
"673 79 LINE",
"835 59 OFFCURVE",
"938 150 OFFCURVE",
"938 307 CURVE SMOOTH",
"938 432 OFFCURVE",
"861 531 OFFCURVE",
"730 531 CURVE SMOOTH",
"597 531 OFFCURVE",
"538 430 OFFCURVE",
"562 309 CURVE",
"595 287 LINE",
"595 345 OFFCURVE",
"631 390 OFFCURVE",
"690 390 CURVE SMOOTH",
"747 390 OFFCURVE",
"781 354 OFFCURVE",
"781 302 CURVE SMOOTH",
"781 237 OFFCURVE",
"742 210 OFFCURVE",
"672 213 CURVE"
);
}
);
width = 972;
}
);
},
{
glyphname = dvBA;
lastChange = "2016-08-13 07:58:21 +0000";
layers = (
{
layerId = "C0ED9D5D-A651-429A-8F5D-D93A2EDA2DC0";
paths = (
{
closed = 1;
nodes = (
"314 94 CURVE SMOOTH",
"406 94 OFFCURVE",
"472 135 OFFCURVE",
"508 194 CURVE",
"508 0 LINE",
"573 0 LINE",
"573 680 LINE",
"713 680 LINE",
"713 740 LINE",
"-40 740 LINE",
"-40 680 LINE",
"508 680 LINE",
"508 483 LINE",
"472 542 OFFCURVE",
"406 584 OFFCURVE",
"314 584 CURVE SMOOTH",
"171 584 OFFCURVE",
"62 484 OFFCURVE",
"62 339 CURVE SMOOTH",
"62 194 OFFCURVE",
"171 94 OFFCURVE"
);
},
{
closed = 1;
nodes = (
"127 339 CURVE SMOOTH",
"127 455 OFFCURVE",
"208 524 OFFCURVE",
"324 524 CURVE SMOOTH",
"432 524 OFFCURVE",
"508 447 OFFCURVE",
"508 339 CURVE",
"508 229 OFFCURVE",
"429 154 OFFCURVE",
"324 154 CURVE SMOOTH",
"208 154 OFFCURVE",
"127 223 OFFCURVE"
);
},
{
closed = 1;
nodes = (
"484 182 LINE",
"522 220 LINE",
"158 513 LINE",
"137 462 LINE"
);
}
);
width = 673;
},
{
layerId = "22D14058-393A-410A-BECB-F56B411A01B2";
paths = (
{
closed = 1;
nodes = (
"279 54 CURVE SMOOTH",
"345 54 OFFCURVE",
"401 75 OFFCURVE",
"435 115 CURVE",
"435 0 LINE",
"592 0 LINE",
"592 600 LINE",
"687 600 LINE",
"687 740 LINE",
"-20 740 LINE",
"-20 600 LINE",
"435 600 LINE",
"435 490 LINE",
"401 530 OFFCURVE",
"345 552 OFFCURVE",
"279 552 CURVE SMOOTH",
"138 552 OFFCURVE",
"35 449 OFFCURVE",
"35 303 CURVE SMOOTH",
"35 157 OFFCURVE",
"138 54 OFFCURVE"
);
},
{
closed = 1;
nodes = (
"177 303 CURVE SMOOTH",
"177 379 OFFCURVE",
"236 431 OFFCURVE",
"312 431 CURVE SMOOTH",
"388 431 OFFCURVE",
"444 379 OFFCURVE",
"444 303 CURVE SMOOTH",
"444 227 OFFCURVE",
"388 175 OFFCURVE",
"312 175 CURVE SMOOTH",
"236 175 OFFCURVE",
"177 223 OFFCURVE"
);
},
{
closed = 1;
nodes = (
"414 183 LINE",
"500 234 LINE",
"164 459 LINE",
"104 390 LINE"
);
}
);
width = 667;
}
);
},
{
glyphname = dvBHA;
lastChange = "2016-08-13 07:58:21 +0000";
layers = (
{
layerId = "C0ED9D5D-A651-429A-8F5D-D93A2EDA2DC0";
paths = (
{
closed = 1;
nodes = (
"620 0 LINE",
"685 0 LINE",
"685 730 LINE",
"685 730 OFFCURVE",
"620 730 OFFCURVE",
"620 730 CURVE"
);
},
{
closed = 1;
nodes = (
"825 680 LINE",
"825 740 LINE",
"620 740 LINE",
"620 680 LINE"
);
},
{
closed = 1;
nodes = (
"383 326 LINE",
"383 228 OFFCURVE",
"362 169 OFFCURVE",
"274 169 CURVE SMOOTH",
"209 169 OFFCURVE",
"162 214 OFFCURVE",
"162 278 CURVE SMOOTH",
"162 369 OFFCURVE",
"227 390 OFFCURVE",
"321 390 CURVE SMOOTH",
"663 390 LINE",
"663 448 LINE",
"328 448 LINE SMOOTH",
"172 448 OFFCURVE",
"97 395 OFFCURVE",
"97 280 CURVE SMOOTH",
"97 180 OFFCURVE",
"176 110 OFFCURVE",
"275 110 CURVE SMOOTH",
"394 110 OFFCURVE",
"447 185 OFFCURVE",
"447 326 CURVE SMOOTH",
"447 541 LINE",
"447 666 OFFCURVE",
"399 745 OFFCURVE",
"284 745 CURVE SMOOTH",
"168 745 OFFCURVE",
"122 665 OFFCURVE",
"122 536 CURVE",
"185 536 LINE",
"185 627 OFFCURVE",
"205 685 OFFCURVE",
"283 685 CURVE SMOOTH",
"362 685 OFFCURVE",
"383 625 OFFCURVE",
"383 541 CURVE"
);
}
);
width = 785;
},
{
layerId = "22D14058-393A-410A-BECB-F56B411A01B2";
paths = (
{
closed = 1;
nodes = (
"629 0 LINE",
"793 0 LINE",
"793 723 LINE",
"629 723 LINE"
);
},
{
closed = 1;
nodes = (
"888 600 LINE",
"888 740 LINE",
"629 740 LINE",
"629 600 LINE"
);
},
{
closed = 1;
nodes = (
"355 286 LINE",
"355 233 OFFCURVE",
"340 196 OFFCURVE",
"290 196 CURVE SMOOTH",
"250 196 OFFCURVE",
"220 220 OFFCURVE",
"220 261 CURVE SMOOTH",
"220 312 OFFCURVE",
"262 332 OFFCURVE",
"313 332 CURVE SMOOTH",
"785 332 LINE",
"785 466 LINE",
"311 466 LINE SMOOTH",
"170 466 OFFCURVE",
"68 407 OFFCURVE",
"68 266 CURVE SMOOTH",
"68 139 OFFCURVE",
"168 58 OFFCURVE",
"294 58 CURVE SMOOTH",
"439 58 OFFCURVE",
"509 148 OFFCURVE",
"509 292 CURVE SMOOTH",
"509 509 LINE",
"509 654 OFFCURVE",
"458 750 OFFCURVE",
"307 750 CURVE SMOOTH",
"149 750 OFFCURVE",
"99 652 OFFCURVE",
"101 512 CURVE",
"265 512 LINE",
"265 557 OFFCURVE",
"265 608 OFFCURVE",
"310 608 CURVE SMOOTH",
"355 608 OFFCURVE",
"355 557 OFFCURVE",
"355 512 CURVE SMOOTH"
);
}
);
width = 868;
}
);
},
{
glyphname = dvMA;
lastChange = "2016-08-13 07:58:21 +0000";
layers = (
{
layerId = "C0ED9D5D-A651-429A-8F5D-D93A2EDA2DC0";
paths = (
{
closed = 1;
nodes = (
"598 0 LINE",
"663 0 LINE",
"663 730 LINE",
"663 730 OFFCURVE",
"598 730 OFFCURVE",
"598 730 CURVE"
);
},
{
closed = 1;
nodes = (
"803 680 LINE",
"803 740 LINE",
"-40 740 LINE",
"-40 680 LINE"
);
},
{
closed = 1;
nodes = (
"336 329 LINE",
"336 231 OFFCURVE",
"315 172 OFFCURVE",
"227 172 CURVE SMOOTH",
"162 172 OFFCURVE",
"115 217 OFFCURVE",
"115 281 CURVE SMOOTH",
"115 372 OFFCURVE",
"180 393 OFFCURVE",
"274 393 CURVE SMOOTH",
"616 393 LINE",
"616 451 LINE",
"281 451 LINE SMOOTH",
"125 451 OFFCURVE",
"50 398 OFFCURVE",
"50 283 CURVE SMOOTH",
"50 183 OFFCURVE",
"129 113 OFFCURVE",
"228 113 CURVE SMOOTH",
"347 113 OFFCURVE",
"400 188 OFFCURVE",
"400 329 CURVE SMOOTH",
"400 707 LINE",
"400 707 OFFCURVE",
"336 707 OFFCURVE",
"336 707 CURVE"
);
}
);
width = 763;
},
{
layerId = "22D14058-393A-410A-BECB-F56B411A01B2";
paths = (
{
closed = 1;
nodes = (
"621 0 LINE",
"785 0 LINE",
"785 723 LINE",
"621 723 LINE"
);
},
{
closed = 1;
nodes = (
"880 600 LINE",
"880 740 LINE",
"-20 740 LINE",
"-20 600 LINE"
);
},
{
closed = 1;
nodes = (
"342 286 LINE",
"342 233 OFFCURVE",
"327 196 OFFCURVE",
"277 196 CURVE SMOOTH",
"237 196 OFFCURVE",
"207 220 OFFCURVE",
"207 261 CURVE SMOOTH",
"207 312 OFFCURVE",
"249 332 OFFCURVE",
"300 332 CURVE SMOOTH",
"772 332 LINE",
"772 466 LINE",
"298 466 LINE SMOOTH",
"157 466 OFFCURVE",
"55 407 OFFCURVE",
"55 266 CURVE SMOOTH",
"55 139 OFFCURVE",
"155 58 OFFCURVE",
"281 58 CURVE SMOOTH",
"426 58 OFFCURVE",
"496 148 OFFCURVE",
"496 292 CURVE SMOOTH",
"496 652 LINE",
"496 652 OFFCURVE",
"342 652 OFFCURVE",
"342 652 CURVE"
);
}
);
width = 860;
}
);
},
{
glyphname = dvYA;
lastChange = "2016-08-13 07:58:21 +0000";
layers = (
{
layerId = "C0ED9D5D-A651-429A-8F5D-D93A2EDA2DC0";
paths = (
{
closed = 1;
nodes = (
"272 690 LINE",
"272 645 LINE",
"272 501 OFFCURVE",
"271 450 OFFCURVE",
"71 450 CURVE",
"62 245 OFFCURVE",
"158 114 OFFCURVE",
"343 114 CURVE SMOOTH",
"505 114 OFFCURVE",
"589 236 OFFCURVE",
"569 358 CURVE",
"553 409 LINE",
"553 272 OFFCURVE",
"475 174 OFFCURVE",
"350 174 CURVE SMOOTH",
"212 174 OFFCURVE",
"138 266 OFFCURVE",
"140 395 CURVE",
"316 404 OFFCURVE",
"337 490 OFFCURVE",
"337 644 CURVE",
"337 698 LINE"
);
},
{
closed = 1;
nodes = (
"553 680 LINE",
"553 0 LINE",
"618 0 LINE",
"618 680 LINE",
"618 680 OFFCURVE",
"758 680 OFFCURVE",
"758 680 CURVE",
"758 740 LINE",
"-40 740 LINE",
"-40 680 LINE"
);
}
);
width = 718;
},
{
layerId = "22D14058-393A-410A-BECB-F56B411A01B2";
paths = (
{
closed = 1;
nodes = (
"216 611 LINE",
"216 584 LINE SMOOTH",
"216 494 OFFCURVE",
"208 438 OFFCURVE",
"61 438 CURVE",
"49 230 OFFCURVE",
"140 78 OFFCURVE",
"342 78 CURVE SMOOTH",
"493 78 OFFCURVE",
"568 176 OFFCURVE",
"561 295 CURVE",
"519 371 LINE",
"519 279 OFFCURVE",
"468 218 OFFCURVE",
"372 218 CURVE SMOOTH",
"280 218 OFFCURVE",
"231 273 OFFCURVE",
"231 351 CURVE",
"352 367 OFFCURVE",
"377 434 OFFCURVE",
"377 577 CURVE SMOOTH",
"377 611 LINE"
);
},
{
closed = 1;
nodes = (
"519 600 LINE",
"519 0 LINE",
"683 0 LINE",
"683 600 LINE",
"778 600 LINE",
"778 740 LINE",
"-20 740 LINE",
"-20 600 LINE"
);
}
);
width = 758;
}
);
},
{
glyphname = dvRA;
lastChange = "2016-08-13 07:58:21 +0000";
layers = (
{
layerId = "C0ED9D5D-A651-429A-8F5D-D93A2EDA2DC0";
paths = (
{
closed = 1;
nodes = (
"154 349 LINE",
"388 349 OFFCURVE",
"441 387 OFFCURVE",
"441 624 CURVE SMOOTH",
"441 687 LINE",
"375 690 LINE",
"375 628 LINE",
"375 400 OFFCURVE",
"352 407 OFFCURVE",
"88 407 CURVE",
"88 213 LINE SMOOTH",
"88 89 OFFCURVE",
"153 -1 OFFCURVE",
"279 -1 CURVE SMOOTH",
"401 -1 OFFCURVE",
"470 86 OFFCURVE",
"470 210 CURVE",
"404 210 LINE",
"404 120 OFFCURVE",
"367 59 OFFCURVE",
"279 59 CURVE SMOOTH",
"189 59 OFFCURVE",
"154 123 OFFCURVE",
"154 213 CURVE SMOOTH"
);
},
{
closed = 1;
nodes = (
"564 680 LINE",
"564 740 LINE",
"-40 740 LINE",
"-40 680 LINE"
);
}
);
width = 524;
},
{
layerId = "22D14058-393A-410A-BECB-F56B411A01B2";
paths = (
{
closed = 1;
nodes = (
"227 292 LINE",
"426 297 OFFCURVE",
"471 376 OFFCURVE",
"471 570 CURVE SMOOTH",
"471 610 LINE",
"471 610 OFFCURVE",
"306 610 OFFCURVE",
"306 610 CURVE",
"306 569 LINE SMOOTH",
"306 421 OFFCURVE",
"278 421 OFFCURVE",
"61 421 CURVE",
"61 210 LINE SMOOTH",
"61 66 OFFCURVE",
"140 -4 OFFCURVE",
"280 -4 CURVE SMOOTH",
"420 -4 OFFCURVE",
"491 66 OFFCURVE",
"490 212 CURVE",
"330 212 LINE",
"330 173 OFFCURVE",
"320 136 OFFCURVE",
"280 136 CURVE SMOOTH",
"235 136 OFFCURVE",
"227 171 OFFCURVE",
"227 212 CURVE SMOOTH"
);
},
{
closed = 1;
nodes = (
"545 600 LINE",
"545 740 LINE",
"-20 740 LINE",
"-20 600 LINE"
);
}
);
width = 525;
}
);
unicode = 0930;
},
{
glyphname = dvLA;
lastChange = "2016-08-13 07:58:21 +0000";
layers = (
{
anchors = (
{
name = abvm.e;
position = "{674, 740}";
},
{
name = blwm.u;
position = "{674, -85}";
},
{
name = blwm.virama;
position = "{636, -18}";
}
);
layerId = "C0ED9D5D-A651-429A-8F5D-D93A2EDA2DC0";
paths = (
{
closed = 1;
nodes = (
"490 231 LINE",
"486 357 OFFCURVE",
"519 451 OFFCURVE",
"630 451 CURVE SMOOTH",
"731 451 OFFCURVE",
"763 374 OFFCURVE",
"763 272 CURVE SMOOTH",
"763 153 OFFCURVE",
"701 72 OFFCURVE",
"564 81 CURVE",
"564 21 LINE",
"725 5 OFFCURVE",
"828 108 OFFCURVE",
"828 271 CURVE SMOOTH",
"828 396 OFFCURVE",
"784 488 OFFCURVE",
"674 507 CURVE",
"674 680 LINE",
"946 680 LINE",
"946 740 LINE",
"-40 740 LINE",
"-40 680 LINE",
"609 680 LINE",
"609 510 LINE",
"533 503 OFFCURVE",
"478 459 OFFCURVE",
"458 385 CURVE",
"436 466 OFFCURVE",
"371 511 OFFCURVE",
"285 511 CURVE SMOOTH",
"143 511 OFFCURVE",
"87 414 OFFCURVE",
"87 271 CURVE SMOOTH",
"87 108 OFFCURVE",
"190 5 OFFCURVE",
"351 21 CURVE",
"351 81 LINE",
"214 72 OFFCURVE",
"152 153 OFFCURVE",
"152 272 CURVE SMOOTH",
"152 374 OFFCURVE",
"184 451 OFFCURVE",
"285 451 CURVE SMOOTH",
"396 451 OFFCURVE",
"430 357 OFFCURVE",
"426 231 CURVE"
);
}
);
width = 906;
},
{
anchors = (
{
name = abvm.e;
position = "{691, 740}";
},
{
name = blwm.u;
position = "{704, -102}";
},
{
name = blwm.virama;
position = "{715, -29}";
}
);
layerId = "22D14058-393A-410A-BECB-F56B411A01B2";
paths = (
{
closed = 1;
nodes = (
"542 206 LINE",
"533 280 OFFCURVE",
"537 371 OFFCURVE",
"624 371 CURVE SMOOTH",
"681 371 OFFCURVE",
"708 330 OFFCURVE",
"708 270 CURVE SMOOTH",
"708 178 OFFCURVE",
"649 150 OFFCURVE",
"566 155 CURVE",
"566 13 LINE",
"760 -1 OFFCURVE",
"873 101 OFFCURVE",
"873 269 CURVE SMOOTH",
"873 414 OFFCURVE",
"795 493 OFFCURVE",
"691 511 CURVE",
"691 600 LINE",
"931 600 LINE",
"931 740 LINE",
"-20 740 LINE",
"-20 600 LINE",
"533 600 LINE",
"533 487 LINE",
"504 470 OFFCURVE",
"483 445 OFFCURVE",
"469 415 CURVE",
"438 477 OFFCURVE",
"378 515 OFFCURVE",
"290 515 CURVE SMOOTH",
"164 515 OFFCURVE",
"63 435 OFFCURVE",
"63 269 CURVE SMOOTH",
"63 101 OFFCURVE",
"176 -1 OFFCURVE",
"370 13 CURVE",
"370 155 LINE",
"287 150 OFFCURVE",
"228 178 OFFCURVE",
"228 270 CURVE SMOOTH",
"228 330 OFFCURVE",
"254 371 OFFCURVE",
"312 371 CURVE SMOOTH",
"399 371 OFFCURVE",
"400 280 OFFCURVE",
"392 206 CURVE"
);
}
);
width = 911;
}
);
},
{
glyphname = dvLLA;
lastChange = "2016-08-13 07:58:21 +0000";
layers = (
{
anchors = (
{
name = abvm.e;
position = "{689, 740}";
},
{
name = blwm.u;
position = "{747, -44}";
},
{
name = blwm.virama;
position = "{715, 31}";
}
);
layerId = "C0ED9D5D-A651-429A-8F5D-D93A2EDA2DC0";
paths = (
{
closed = 1;
nodes = (
"624 490 LINE",
"624 490 OFFCURVE",
"689 490 OFFCURVE",
"689 490 CURVE",
"689 680 LINE",
"982 680 LINE",
"982 740 LINE",
"-40 740 LINE",
"-40 680 LINE",
"624 680 LINE"
);
},
{
closed = 1;
nodes = (
"480 398 CURVE",
"444 478 OFFCURVE",
"372 522 OFFCURVE",
"284 522 CURVE SMOOTH",
"151 522 OFFCURVE",
"51 429 OFFCURVE",
"51 294 CURVE SMOOTH",
"51 160 OFFCURVE",
"149 67 OFFCURVE",
"284 67 CURVE SMOOTH",
"372 67 OFFCURVE",
"443 110 OFFCURVE",
"480 190 CURVE",
"514 112 OFFCURVE",
"591 67 OFFCURVE",
"677 67 CURVE SMOOTH",
"812 67 OFFCURVE",
"910 160 OFFCURVE",
"910 294 CURVE SMOOTH",
"910 429 OFFCURVE",
"810 522 OFFCURVE",
"677 522 CURVE SMOOTH",
"591 522 OFFCURVE",
"513 477 OFFCURVE"
);
},
{
closed = 1;
nodes = (
"677 461 CURVE SMOOTH",
"777 461 OFFCURVE",
"845 395 OFFCURVE",
"845 294 CURVE SMOOTH",
"845 194 OFFCURVE",
"779 128 OFFCURVE",
"677 128 CURVE SMOOTH",
"579 128 OFFCURVE",
"514 197 OFFCURVE",
"514 294 CURVE SMOOTH",
"514 392 OFFCURVE",
"579 461 OFFCURVE"
);
},
{
closed = 1;
nodes = (
"284 128 CURVE SMOOTH",
"184 128 OFFCURVE",
"116 195 OFFCURVE",
"116 294 CURVE SMOOTH",
"116 395 OFFCURVE",
"184 461 OFFCURVE",
"284 461 CURVE SMOOTH",
"384 461 OFFCURVE",
"447 392 OFFCURVE",
"447 294 CURVE SMOOTH",
"447 197 OFFCURVE",
"384 128 OFFCURVE"
);
}
);
width = 942;
},
{
anchors = (
{
name = abvm.e;
position = "{730, 740}";
},
{
name = blwm.u;
position = "{759, -82}";
},
{
name = blwm.virama;
position = "{759, -11}";
}
);
layerId = "22D14058-393A-410A-BECB-F56B411A01B2";
paths = (
{
closed = 1;
nodes = (
"572 392 LINE",
"730 407 LINE",
"730 600 LINE",
"947 600 LINE",
"947 740 LINE",
"-20 740 LINE",
"-20 600 LINE",
"572 600 LINE"
);
},
{
closed = 1;
nodes = (
"476 388 CURVE",
"437 472 OFFCURVE",
"351 498 OFFCURVE",
"282 498 CURVE SMOOTH",
"149 498 OFFCURVE",
"48 407 OFFCURVE",
"48 264 CURVE SMOOTH",
"48 121 OFFCURVE",
"149 30 OFFCURVE",
"282 30 CURVE SMOOTH",
"350 30 OFFCURVE",
"443 59 OFFCURVE",
"475 139 CURVE",
"512 64 OFFCURVE",
"592 30 OFFCURVE",
"670 30 CURVE SMOOTH",
"803 30 OFFCURVE",
"903 122 OFFCURVE",
"903 264 CURVE SMOOTH",
"903 407 OFFCURVE",
"803 498 OFFCURVE",
"670 498 CURVE SMOOTH",
"601 498 OFFCURVE",
"519 478 OFFCURVE"
);
},
{
closed = 1;
nodes = (
"650 358 CURVE SMOOTH",
"706 358 OFFCURVE",
"744 320 OFFCURVE",
"744 264 CURVE SMOOTH",
"744 208 OFFCURVE",
"706 170 OFFCURVE",
"650 170 CURVE SMOOTH",
"594 170 OFFCURVE",
"556 207 OFFCURVE",
"556 264 CURVE SMOOTH",
"556 318 OFFCURVE",
"593 358 OFFCURVE"
);
},
{
closed = 1;
nodes = (
"302 170 CURVE SMOOTH",
"246 170 OFFCURVE",
"208 207 OFFCURVE",
"208 264 CURVE SMOOTH",
"208 320 OFFCURVE",
"245 358 OFFCURVE",
"302 358 CURVE SMOOTH",
"358 358 OFFCURVE",
"395 319 OFFCURVE",
"396 264 CURVE",
"396 208 OFFCURVE",
"358 170 OFFCURVE"
);
}
);
width = 927;
}
);
},
{
glyphname = dvNukta;
lastChange = "2016-08-13 07:58:21 +0000";
layers = (
{
layerId = "C0ED9D5D-A651-429A-8F5D-D93A2EDA2DC0";
paths = (
{
closed = 1;
nodes = (
"-377 -122 CURVE SMOOTH",
"-350 -122 OFFCURVE",
"-328 -100 OFFCURVE",
"-328 -73 CURVE SMOOTH",
"-328 -46 OFFCURVE",
"-350 -24 OFFCURVE",
"-377 -24 CURVE SMOOTH",
"-404 -24 OFFCURVE",
"-426 -46 OFFCURVE",
"-426 -73 CURVE SMOOTH",
"-426 -100 OFFCURVE",
"-404 -122 OFFCURVE"
);
}
);
width = 0;
},
{
layerId = "22D14058-393A-410A-BECB-F56B411A01B2";
paths = (
{
closed = 1;
nodes = (
"-277 -272 CURVE SMOOTH",
"-224 -272 OFFCURVE",
"-182 -230 OFFCURVE",
"-182 -178 CURVE SMOOTH",
"-182 -125 OFFCURVE",
"-224 -83 OFFCURVE",
"-277 -83 CURVE SMOOTH",
"-329 -83 OFFCURVE",
"-371 -125 OFFCURVE",
"-371 -178 CURVE SMOOTH",
"-371 -230 OFFCURVE",
"-329 -272 OFFCURVE"
);
}
);
width = 0;
}
);
unicode = 093C;
},
{
glyphname = dvVA;
lastChange = "2016-08-13 07:58:21 +0000";
layers = (
{
layerId = "C0ED9D5D-A651-429A-8F5D-D93A2EDA2DC0";
paths = (
{
closed = 1;
nodes = (
"293 103 CURVE SMOOTH",
"450 103 OFFCURVE",
"525 216 OFFCURVE",
"515 333 CURVE",
"484 339 LINE",
"484 231 OFFCURVE",
"411 163 OFFCURVE",
"303 163 CURVE SMOOTH",
"194 163 OFFCURVE",
"124 230 OFFCURVE",
"124 339 CURVE",
"124 448 OFFCURVE",
"194 515 OFFCURVE",
"303 515 CURVE SMOOTH",
"411 515 OFFCURVE",
"484 447 OFFCURVE",
"484 339 CURVE",
"515 345 LINE",
"525 462 OFFCURVE",
"450 575 OFFCURVE",
"293 575 CURVE SMOOTH",
"156 575 OFFCURVE",
"59 477 OFFCURVE",
"59 339 CURVE",
"59 201 OFFCURVE",
"156 103 OFFCURVE"
);
},
{
closed = 1;
nodes = (
"689 740 LINE",
"-40 740 LINE",
"-40 680 LINE",
"484 680 LINE",
"484 0 LINE",
"549 0 LINE",
"549 340 OFFCURVE",
"549 680 OFFCURVE",
"549 680 CURVE",
"689 680 LINE"
);
}
);
width = 649;
},
{
layerId = "22D14058-393A-410A-BECB-F56B411A01B2";
paths = (
{
closed = 1;
nodes = (
"262 59 CURVE SMOOTH",
"388 59 OFFCURVE",
"467 147 OFFCURVE",
"456 288 CURVE",
"413 303 LINE",
"413 238 OFFCURVE",
"372 195 OFFCURVE",
"307 195 CURVE SMOOTH",
"240 195 OFFCURVE",
"197 240 OFFCURVE",
"197 303 CURVE SMOOTH",
"197 366 OFFCURVE",
"240 411 OFFCURVE",
"307 411 CURVE SMOOTH",
"372 411 OFFCURVE",
"413 369 OFFCURVE",
"413 304 CURVE",
"456 318 LINE",
"464 460 OFFCURVE",
"388 547 OFFCURVE",
"262 547 CURVE SMOOTH",
"133 547 OFFCURVE",
"37 437 OFFCURVE",
"37 303 CURVE SMOOTH",
"37 169 OFFCURVE",
"133 59 OFFCURVE"
);
},
{
closed = 1;
nodes = (
"665 740 LINE",
"-20 740 LINE",
"-20 600 LINE",
"413 600 LINE",
"413 0 LINE",
"570 0 LINE",
"570 600 LINE",
"665 600 LINE"
);
}
);
width = 645;
}
);
},
{
glyphname = dvSHA;
lastChange = "2016-08-13 07:58:21 +0000";
layers = (
{
layerId = "C0ED9D5D-A651-429A-8F5D-D93A2EDA2DC0";
paths = (
{
closed = 1;
nodes = (
"185 342 LINE",
"207 341 OFFCURVE",
"229 340 OFFCURVE",
"250 340 CURVE SMOOTH",
"400 340 OFFCURVE",
"524 378 OFFCURVE",
"524 553 CURVE SMOOTH",
"524 664 OFFCURVE",
"446 750 OFFCURVE",
"323 750 CURVE SMOOTH",
"182 750 OFFCURVE",
"111 642 OFFCURVE",
"117 515 CURVE",
"181 515 LINE",
"178 612 OFFCURVE",
"219 690 OFFCURVE",
"324 690 CURVE SMOOTH",
"407 690 OFFCURVE",
"459 640 OFFCURVE",
"459 552 CURVE SMOOTH",
"459 414 OFFCURVE",
"359 398 OFFCURVE",
"232 398 CURVE SMOOTH",
"196 398 OFFCURVE",
"158 399 OFFCURVE",
"119 400 CURVE",
"119 400 OFFCURVE",
"119 197 OFFCURVE",
"119 197 CURVE SMOOTH",
"119 68 OFFCURVE",
"198 -1 OFFCURVE",
"315 -1 CURVE SMOOTH",
"461 -1 OFFCURVE",
"508 100 OFFCURVE",
"511 220 CURVE",
"445 220 LINE",
"443 121 OFFCURVE",
"412 59 OFFCURVE",
"315 59 CURVE SMOOTH",
"235 59 OFFCURVE",
"185 105 OFFCURVE",
"185 197 CURVE"
);
},
{
closed = 1;
nodes = (
"841 680 CURVE",
"841 740 LINE",
"841 740 OFFCURVE",
"636 740 OFFCURVE",
"636 740 CURVE",
"636 0 LINE",
"701 0 LINE",
"701 680 LINE",
"701 680 OFFCURVE",
"841 680 OFFCURVE"
);
}
);
width = 801;
},
{
layerId = "22D14058-393A-410A-BECB-F56B411A01B2";
paths = (
{
closed = 1;
nodes = (
"234 288 LINE",
"250 288 OFFCURVE",
"266 288 OFFCURVE",
"281 289 CURVE SMOOTH",
"454 301 OFFCURVE",
"541 383 OFFCURVE",
"541 532 CURVE SMOOTH",
"541 671 OFFCURVE",
"447 747 OFFCURVE",
"309 747 CURVE SMOOTH",
"143 747 OFFCURVE",
"75 636 OFFCURVE",
"80 514 CURVE",
"244 514 LINE",
"242 563 OFFCURVE",
"259 607 OFFCURVE",
"311 607 CURVE SMOOTH",
"356 607 OFFCURVE",
"376 576 OFFCURVE",
"376 531 CURVE SMOOTH",
"376 433 OFFCURVE",
"275 420 OFFCURVE",
"175 420 CURVE SMOOTH",
"68 420 LINE",
"68 222 LINE SMOOTH",
"68 80 OFFCURVE",
"161 -4 OFFCURVE",
"306 -4 CURVE SMOOTH",
"457 -4 OFFCURVE",
"531 76 OFFCURVE",
"530 229 CURVE",
"370 229 LINE",
"372 171 OFFCURVE",
"355 136 OFFCURVE",
"303 136 CURVE SMOOTH",
"255 136 OFFCURVE",
"234 167 OFFCURVE",
"234 214 CURVE SMOOTH"
);
},
{
closed = 1;
nodes = (
"873 600 LINE",
"873 740 LINE",
"613 740 LINE",
"613 0 LINE",
"778 0 LINE",
"778 600 LINE"
);
}
);
width = 853;
}
);
},
{
glyphname = dvSSA;
lastChange = "2016-08-13 07:58:21 +0000";
layers = (
{
layerId = "C0ED9D5D-A651-429A-8F5D-D93A2EDA2DC0";
paths = (
{
closed = 1;
nodes = (
"478 0 LINE",
"543 0 LINE",
"543 680 LINE",
"543 680 OFFCURVE",
"683 680 OFFCURVE",
"683 680 CURVE",
"683 740 LINE",
"-40 740 LINE",
"-40 680 LINE",
"93 680 LINE",
"93 456 LINE SMOOTH",
"93 315 OFFCURVE",
"163 209 OFFCURVE",
"304 209 CURVE SMOOTH",
"451 209 OFFCURVE",
"491 311 OFFCURVE",
"498 355 CURVE",
"478 443 LINE",
"478 346 OFFCURVE",
"412 269 OFFCURVE",
"318 269 CURVE SMOOTH",
"203 269 OFFCURVE",
"158 345 OFFCURVE",
"158 460 CURVE SMOOTH",
"158 680 LINE",
"478 680 LINE"
);
},
{
closed = 1;
nodes = (
"476 345 LINE",
"513 381 LINE",
"136 692 LINE",
"116 643 LINE"
);
}
);
width = 643;
},
{
layerId = "22D14058-393A-410A-BECB-F56B411A01B2";
paths = (
{
closed = 1;
nodes = (
"461 0 LINE",
"626 0 LINE",
"626 600 LINE",
"721 600 LINE",
"721 740 LINE",
"-20 740 LINE",
"-20 600 LINE",
"78 600 LINE",
"78 390 LINE SMOOTH",
"78 244 OFFCURVE",
"163 146 OFFCURVE",
"303 146 CURVE SMOOTH",
"446 146 OFFCURVE",
"491 227 OFFCURVE",
"492 316 CURVE",
"461 403 LINE",
"456 325 OFFCURVE",
"421 285 OFFCURVE",
"357 285 CURVE SMOOTH",
"278 285 OFFCURVE",
"243 334 OFFCURVE",
"243 404 CURVE SMOOTH",
"243 600 LINE",
"461 600 LINE"
);
},
{
closed = 1;
nodes = (
"472 328 LINE",
"563 385 LINE",
"227 610 LINE",
"162 535 LINE"
);
}
);
width = 701;
}
);
},
{
glyphname = dvSA;
lastChange = "2016-08-13 07:58:21 +0000";
layers = (
{
layerId = "C0ED9D5D-A651-429A-8F5D-D93A2EDA2DC0";
paths = (
{
closed = 1;
nodes = (
"394 230 LINE",
"395 121 OFFCURVE",
"364 59 OFFCURVE",
"274 59 CURVE SMOOTH",
"184 59 OFFCURVE",
"154 123 OFFCURVE",
"154 213 CURVE SMOOTH",
"154 387 LINE",
"365 387 OFFCURVE",
"419 432 OFFCURVE",
"419 665 CURVE",
"419 731 LINE",
"355 731 LINE",
"355 663 LINE",
"355 472 OFFCURVE",
"329 424 OFFCURVE",
"128 424 CURVE SMOOTH",
"115 424 OFFCURVE",
"102 425 OFFCURVE",
"88 425 CURVE",
"88 213 LINE SMOOTH",
"88 89 OFFCURVE",
"148 -1 OFFCURVE",
"274 -1 CURVE SMOOTH",
"400 -1 OFFCURVE",
"465 90 OFFCURVE",
"460 230 CURVE"
);
},
{
closed = 1;
nodes = (
"832 680 LINE",
"832 740 LINE",
"-40 740 LINE",
"-40 680 LINE"
);
},
{
closed = 1;
nodes = (
"627 705 CURVE",
"627 0 LINE",
"692 0 LINE",
"692 705 LINE",
"692 705 OFFCURVE",
"627 705 OFFCURVE"
);
},
{
closed = 1;
nodes = (
"676 369 CURVE",
"676 424 LINE",
"170 424 LINE",
"146 369 LINE",
"146 369 OFFCURVE",
"676 369 OFFCURVE"
);
}
);
width = 792;
},
{
layerId = "22D14058-393A-410A-BECB-F56B411A01B2";
paths = (
{
closed = 1;
nodes = (
"345 218 LINE",
"344 177 OFFCURVE",
"338 136 OFFCURVE",
"287 136 CURVE SMOOTH",
"246 136 OFFCURVE",
"229 161 OFFCURVE",
"229 202 CURVE SMOOTH",
"229 289 LINE",
"365 289 OFFCURVE",
"436 368 OFFCURVE",
"436 538 CURVE SMOOTH",
"436 600 LINE",
"436 600 OFFCURVE",
"271 600 OFFCURVE",
"271 600 CURVE",
"271 548 LINE SMOOTH",
"271 448 OFFCURVE",
"255 401 OFFCURVE",
"144 401 CURVE SMOOTH",
"63 401 LINE",
"63 210 LINE SMOOTH",
"63 77 OFFCURVE",
"147 -4 OFFCURVE",
"291 -4 CURVE SMOOTH",
"453 -4 OFFCURVE",
"500 78 OFFCURVE",
"505 218 CURVE"
);
},
{
closed = 1;
nodes = (
"843 600 LINE",
"843 740 LINE",
"-20 740 LINE",
"-20 600 LINE"
);
},
{
closed = 1;
nodes = (
"584 640 LINE",
"584 0 LINE",
"748 0 LINE",
"748 640 LINE"
);
},
{
closed = 1;
nodes = (
"698 289 LINE",
"698 425 LINE",
"292 425 LINE",
"227 289 LINE"
);
}
);
width = 823;
}
);
},
{
glyphname = dvHA;
lastChange = "2016-08-13 07:58:21 +0000";
layers = (
{
anchors = (
{
name = abvm.e;
position = "{483, 740}";
},
{
name = blwm.u;
position = "{370, -214}";
},
{
name = blwm.virama;
position = "{372, -127}";
}
);
layerId = "C0ED9D5D-A651-429A-8F5D-D93A2EDA2DC0";
paths = (
{
closed = 1;
nodes = (
"327 310 LINE",
"263 308 OFFCURVE",
"175 338 OFFCURVE",
"175 410 CURVE SMOOTH",
"175 472 OFFCURVE",
"232 500 OFFCURVE",
"307 500 CURVE SMOOTH",
"483 500 LINE",
"483 530 LINE",
"483 560 LINE",
"306 560 LINE SMOOTH",
"188 560 OFFCURVE",
"109 510 OFFCURVE",
"109 412 CURVE SMOOTH",
"109 323 OFFCURVE",
"192 260 OFFCURVE",
"297 272 CURVE"
);
},
{
closed = 1;
nodes = (
"320 270 CURVE SMOOTH",
"413 270 OFFCURVE",
"457 229 OFFCURVE",
"472 173 CURVE",
"537 173 LINE",
"528 256 OFFCURVE",
"445 330 OFFCURVE",
"320 330 CURVE SMOOTH",
"187 330 OFFCURVE",
"95 244 OFFCURVE",
"95 119 CURVE",
"95 -6 OFFCURVE",
"187 -92 OFFCURVE",
"320 -92 CURVE SMOOTH",
"445 -92 OFFCURVE",
"528 -18 OFFCURVE",
"537 65 CURVE",
"472 65 LINE",
"457 9 OFFCURVE",
"413 -32 OFFCURVE",
"320 -32 CURVE SMOOTH",
"221 -32 OFFCURVE",
"160 33 OFFCURVE",
"160 120 CURVE",
"160 207 OFFCURVE",
"221 270 OFFCURVE"
);
},
{
closed = 1;
nodes = (
"418 509 LINE",
"483 509 LINE",
"483 680 LINE",
"648 680 LINE",
"648 740 LINE",
"-40 740 LINE",
"-40 680 LINE",
"418 680 LINE"
);
}
);
width = 608;
},
{
anchors = (
{
name = abvm.e;
position = "{487, 740}";
},
{
name = blwm.u;
position = "{436, -199}";
},
{
name = blwm.virama;
position = "{384, -117}";
}
);
layerId = "22D14058-393A-410A-BECB-F56B411A01B2";
paths = (
{
closed = 1;
nodes = (
"322 338 LINE",
"279 338 OFFCURVE",
"254 352 OFFCURVE",
"254 380 CURVE SMOOTH",
"254 414 OFFCURVE",
"284 420 OFFCURVE",
"323 420 CURVE SMOOTH",
"487 420 LINE",
"487 518 LINE",
"341 551 LINE",
"289 551 LINE SMOOTH",
"161 551 OFFCURVE",
"92 494 OFFCURVE",
"92 400 CURVE SMOOTH",
"92 303 OFFCURVE",
"183 245 OFFCURVE",
"322 245 CURVE"
);
},
{
closed = 1;
nodes = (
"321 215 CURVE SMOOTH",
"364 215 OFFCURVE",
"396 193 OFFCURVE",
"396 159 CURVE",
"556 159 LINE",
"556 282 OFFCURVE",
"452 350 OFFCURVE",
"321 350 CURVE SMOOTH",
"164 350 OFFCURVE",
"72 267 OFFCURVE",
"72 132 CURVE SMOOTH",
"72 -6 OFFCURVE",
"164 -91 OFFCURVE",
"321 -91 CURVE SMOOTH",
"452 -91 OFFCURVE",
"556 -23 OFFCURVE",
"556 100 CURVE",
"396 100 LINE",
"396 65 OFFCURVE",
"364 44 OFFCURVE",
"321 44 CURVE SMOOTH",
"272 44 OFFCURVE",
"235 74 OFFCURVE",
"235 131 CURVE SMOOTH",
"235 189 OFFCURVE",
"274 215 OFFCURVE"
);
},
{
closed = 1;
nodes = (
"322 516 LINE",
"487 516 LINE",
"487 600 LINE",
"638 600 LINE",
"638 740 LINE",
"-20 740 LINE",
"-20 600 LINE",
"322 600 LINE"
);
}
);
width = 618;
}
);
},
{
glyphname = danda;
lastChange = "2016-08-13 07:58:21 +0000";
layers = (
{
layerId = "C0ED9D5D-A651-429A-8F5D-D93A2EDA2DC0";
paths = (
{
closed = 1;
nodes = (
"150 741 LINE",
"150 0 LINE",
"215 0 LINE",
"215 741 LINE"
);
}
);
width = 235;
},
{
layerId = "22D14058-393A-410A-BECB-F56B411A01B2";
paths = (
{
closed = 1;
nodes = (
"140 740 LINE",
"140 0 LINE",
"304 0 LINE",
"304 740 LINE"
);
}
);
width = 334;
}
);
unicode = 0964;
},
{
glyphname = doubledanda;
lastChange = "2016-08-13 07:58:21 +0000";
layers = (
{
layerId = "C0ED9D5D-A651-429A-8F5D-D93A2EDA2DC0";
paths = (
{
closed = 1;
nodes = (
"150 741 LINE",
"150 0 LINE",
"215 0 LINE",
"215 741 LINE"
);
},
{
closed = 1;
nodes = (
"346 741 LINE",
"346 0 LINE",
"411 0 LINE",
"411 741 LINE"
);
}
);
width = 431;
},
{
layerId = "22D14058-393A-410A-BECB-F56B411A01B2";
paths = (
{
closed = 1;
nodes = (
"140 740 LINE",
"140 0 LINE",
"304 0 LINE",
"304 740 LINE"
);
},
{
closed = 1;
nodes = (
"415 740 LINE",
"415 0 LINE",
"579 0 LINE",
"579 740 LINE"
);
}
);
width = 609;
}
);
unicode = 0965;
},
{
glyphname = .notdef;
lastChange = "2016-08-13 07:58:21 +0000";
layers = (
{
layerId = "C0ED9D5D-A651-429A-8F5D-D93A2EDA2DC0";
paths = (
{
closed = 1;
nodes = (
"180 0 LINE",
"570 0 LINE",
"570 701 LINE",
"180 701 LINE"
);
},
{
closed = 1;
nodes = (
"234 651 LINE",
"516 651 LINE",
"516 50 LINE",
"234 50 LINE"
);
}
);
width = 750;
},
{
layerId = "22D14058-393A-410A-BECB-F56B411A01B2";
paths = (
{
closed = 1;
nodes = (
"160 0 LINE",
"596 0 LINE",
"596 701 LINE",
"160 701 LINE"
);
},
{
closed = 1;
nodes = (
"241 625 LINE",
"516 625 LINE",
"516 76 LINE",
"241 76 LINE"
);
}
);
width = 756;
}
);
},
{
glyphname = dvVisarga;
lastChange = "2016-08-13 07:58:21 +0000";
layers = (
{
layerId = "C0ED9D5D-A651-429A-8F5D-D93A2EDA2DC0";
paths = (
{
closed = 1;
nodes = (
"74 455 CURVE SMOOTH",
"101 455 OFFCURVE",
"123 477 OFFCURVE",
"123 504 CURVE SMOOTH",
"123 531 OFFCURVE",
"101 553 OFFCURVE",
"74 553 CURVE SMOOTH",
"47 553 OFFCURVE",
"25 531 OFFCURVE",
"25 504 CURVE SMOOTH",
"25 477 OFFCURVE",
"47 455 OFFCURVE"
);
},
{
closed = 1;
nodes = (
"74 150 CURVE SMOOTH",
"101 150 OFFCURVE",
"123 172 OFFCURVE",
"123 199 CURVE SMOOTH",
"123 226 OFFCURVE",
"101 248 OFFCURVE",
"74 248 CURVE SMOOTH",
"47 248 OFFCURVE",
"25 226 OFFCURVE",
"25 199 CURVE SMOOTH",
"25 172 OFFCURVE",
"47 150 OFFCURVE"
);
}
);
width = 148;
},
{
layerId = "22D14058-393A-410A-BECB-F56B411A01B2";
paths = (
{
closed = 1;
nodes = (
"116 401 CURVE SMOOTH",
"159 401 OFFCURVE",
"193 435 OFFCURVE",
"193 477 CURVE SMOOTH",
"193 520 OFFCURVE",
"159 554 OFFCURVE",
"116 554 CURVE SMOOTH",
"74 554 OFFCURVE",
"40 520 OFFCURVE",
"40 477 CURVE SMOOTH",
"40 435 OFFCURVE",
"74 401 OFFCURVE"
);
},
{
closed = 1;
nodes = (
"116 118 CURVE SMOOTH",
"159 118 OFFCURVE",
"193 152 OFFCURVE",
"193 194 CURVE SMOOTH",
"193 237 OFFCURVE",
"159 271 OFFCURVE",
"116 271 CURVE SMOOTH",
"74 271 OFFCURVE",
"40 237 OFFCURVE",
"40 194 CURVE SMOOTH",
"40 152 OFFCURVE",
"74 118 OFFCURVE"
);
}
);
width = 233;
}
);
unicode = 0903;
},
{
glyphname = dvmU;
lastChange = "2016-08-13 07:58:21 +0000";
layers = (
{
anchors = (
{
name = _blwm.u;
position = "{-100, 0}";
}
);
layerId = "C0ED9D5D-A651-429A-8F5D-D93A2EDA2DC0";
paths = (
{
closed = 1;
nodes = (
"-159 52 LINE",
"-36 52 OFFCURVE",
"17 -13 OFFCURVE",
"17 -101 CURVE SMOOTH",
"17 -202 OFFCURVE",
"-48 -264 OFFCURVE",
"-171 -264 CURVE SMOOTH",
"-333 -264 OFFCURVE",
"-399 -169 OFFCURVE",
"-399 -60 CURVE",
"-334 -60 LINE",
"-334 -166 OFFCURVE",
"-262 -205 OFFCURVE",
"-172 -205 CURVE SMOOTH",
"-94 -205 OFFCURVE",
"-48 -172 OFFCURVE",
"-48 -103 CURVE SMOOTH",
"-48 -35 OFFCURVE",
"-89 -8 OFFCURVE",
"-159 -5 CURVE"
);
}
);
width = 0;
},
{
anchors = (
{
name = _blwm.u;
position = "{-75, 0}";
}
);
layerId = "22D14058-393A-410A-BECB-F56B411A01B2";
paths = (
{
closed = 1;
nodes = (
"-239 63 LINE",
"-72 76 OFFCURVE",
"13 2 OFFCURVE",
"13 -131 CURVE SMOOTH",
"13 -250 OFFCURVE",
"-70 -324 OFFCURVE",
"-207 -324 CURVE SMOOTH",
"-351 -324 OFFCURVE",
"-465 -259 OFFCURVE",
"-470 -90 CURVE",
"-324 -90 LINE",
"-321 -167 OFFCURVE",
"-275 -195 OFFCURVE",
"-211 -195 CURVE SMOOTH",
"-157 -195 OFFCURVE",
"-128 -172 OFFCURVE",
"-128 -130 CURVE SMOOTH",
"-128 -81 OFFCURVE",
"-158 -62 OFFCURVE",
"-239 -64 CURVE"
);
}
);
width = 0;
}
);
unicode = 0941;
},
{
glyphname = dvmUU;
lastChange = "2016-08-13 07:58:21 +0000";
layers = (
{
anchors = (
{
name = _blwm.u;
position = "{-39, 0}";
}
);
layerId = "C0ED9D5D-A651-429A-8F5D-D93A2EDA2DC0";
paths = (
{
closed = 1;
nodes = (
"-95 -264 LINE",
"-205 -277 OFFCURVE",
"-286 -224 OFFCURVE",
"-286 -109 CURVE SMOOTH",
"-286 5 OFFCURVE",
"-193 53 OFFCURVE",
"-101 53 CURVE SMOOTH",
"58 53 OFFCURVE",
"139 -66 OFFCURVE",
"139 -251 CURVE",
"76 -251 LINE",
"76 -100 OFFCURVE",
"22 -5 OFFCURVE",
"-100 -5 CURVE SMOOTH",
"-171 -5 OFFCURVE",
"-220 -44 OFFCURVE",
"-220 -109 CURVE SMOOTH",
"-220 -184 OFFCURVE",
"-170 -218 OFFCURVE",
"-95 -205 CURVE"
);
}
);
width = 0;
},
{
anchors = (
{
name = _blwm.u;
position = "{-75, 0}";
}
);
layerId = "22D14058-393A-410A-BECB-F56B411A01B2";
paths = (
{
closed = 1;
nodes = (
"-192 -316 LINE",
"-313 -326 OFFCURVE",
"-404 -265 OFFCURVE",
"-404 -141 CURVE SMOOTH",
"-404 -12 OFFCURVE",
"-304 48 OFFCURVE",
"-191 48 CURVE SMOOTH",
"53 48 OFFCURVE",
"82 -143 OFFCURVE",
"77 -308 CURVE",
"-60 -308 LINE",
"-54 -161 OFFCURVE",
"-77 -76 OFFCURVE",
"-193 -76 CURVE SMOOTH",
"-237 -76 OFFCURVE",
"-277 -92 OFFCURVE",
"-277 -141 CURVE SMOOTH",
"-277 -185 OFFCURVE",
"-239 -200 OFFCURVE",
"-192 -196 CURVE"
);
}
);
width = 0;
}
);
unicode = 0942;
},
{
glyphname = dvmvR;
lastChange = "2016-08-13 07:58:21 +0000";
layers = (
{
anchors = (
{
name = _blwm.u;
position = "{-100, 0}";
}
);
layerId = "C0ED9D5D-A651-429A-8F5D-D93A2EDA2DC0";
paths = (
{
closed = 1;
nodes = (
"-100 56 LINE",
"-117 56 LINE SMOOTH",
"-231 56 OFFCURVE",
"-293 -7 OFFCURVE",
"-293 -108 CURVE SMOOTH",
"-293 -194 OFFCURVE",
"-240 -271 OFFCURVE",
"-124 -271 CURVE SMOOTH",
"-98 -271 OFFCURVE",
"-68 -265 OFFCURVE",
"-51 -257 CURVE",
"-51 -201 LINE",
"-69 -209 OFFCURVE",
"-92 -215 OFFCURVE",
"-122 -215 CURVE SMOOTH",
"-204 -215 OFFCURVE",
"-232 -165 OFFCURVE",
"-232 -108 CURVE SMOOTH",
"-232 -38 OFFCURVE",
"-193 0 OFFCURVE",
"-117 0 CURVE SMOOTH",
"-100 0 LINE"
);
}
);
width = 0;
},
{
anchors = (
{
name = _blwm.u;
position = "{-75, 0}";
}
);
layerId = "22D14058-393A-410A-BECB-F56B411A01B2";
paths = (
{
closed = 1;
nodes = (
"-84 113 LINE",
"-94 114 OFFCURVE",
"-103 114 OFFCURVE",
"-113 114 CURVE SMOOTH",
"-252 114 OFFCURVE",
"-331 41 OFFCURVE",
"-331 -73 CURVE SMOOTH",
"-331 -204 OFFCURVE",
"-232 -264 OFFCURVE",
"-120 -264 CURVE SMOOTH",
"-96 -264 OFFCURVE",
"-73 -261 OFFCURVE",
"-56 -255 CURVE",
"-56 -127 LINE",
"-67 -131 OFFCURVE",
"-83 -134 OFFCURVE",
"-96 -134 CURVE SMOOTH",
"-146 -134 OFFCURVE",
"-175 -112 OFFCURVE",
"-175 -67 CURVE SMOOTH",
"-175 -25 OFFCURVE",
"-150 0 OFFCURVE",
"-100 0 CURVE SMOOTH",
"-95 0 OFFCURVE",
"-89 0 OFFCURVE",
"-84 0 CURVE"
);
}
);
width = 0;
}
);
unicode = 0943;
},
{
glyphname = dvCandrabindu;
lastChange = "2016-08-13 07:58:21 +0000";
layers = (
{
anchors = (
{
name = _abvm.e;
position = "{-100, 740}";
}
);
layerId = "C0ED9D5D-A651-429A-8F5D-D93A2EDA2DC0";
paths = (
{
closed = 1;
nodes = (
"48 987 CURVE",
"-12 987 LINE",
"-12 931 OFFCURVE",
"-46 874 OFFCURVE",
"-132 874 CURVE SMOOTH",
"-218 874 OFFCURVE",
"-252 931 OFFCURVE",
"-252 987 CURVE",
"-312 987 LINE",
"-312 899 OFFCURVE",
"-263 819 OFFCURVE",
"-132 819 CURVE SMOOTH",
"-1 819 OFFCURVE",
"48 899 OFFCURVE"
);
},
{
closed = 1;
nodes = (
"-132 968 CURVE SMOOTH",
"-105 968 OFFCURVE",
"-83 990 OFFCURVE",
"-83 1017 CURVE SMOOTH",
"-83 1044 OFFCURVE",
"-105 1066 OFFCURVE",
"-132 1066 CURVE SMOOTH",
"-159 1066 OFFCURVE",
"-181 1044 OFFCURVE",
"-181 1017 CURVE SMOOTH",
"-181 990 OFFCURVE",
"-159 968 OFFCURVE"
);
}
);
width = 0;
},
{
anchors = (
{
name = _abvm.e;
position = "{-75, 740}";
}
);
layerId = "22D14058-393A-410A-BECB-F56B411A01B2";
paths = (
{
closed = 1;
nodes = (
"73 1024 CURVE",
"-59 1024 LINE",
"-59 971 OFFCURVE",
"-95 928 OFFCURVE",
"-164 928 CURVE SMOOTH",
"-233 928 OFFCURVE",
"-270 971 OFFCURVE",
"-270 1024 CURVE",
"-401 1024 LINE",
"-401 894 OFFCURVE",
"-321 810 OFFCURVE",
"-164 810 CURVE SMOOTH",
"-7 810 OFFCURVE",
"73 894 OFFCURVE"
);
},
{
closed = 1;
nodes = (
"-165 982 CURVE SMOOTH",
"-127 982 OFFCURVE",
"-98 1011 OFFCURVE",
"-98 1048 CURVE SMOOTH",
"-98 1085 OFFCURVE",
"-127 1115 OFFCURVE",
"-165 1115 CURVE SMOOTH",
"-201 1115 OFFCURVE",
"-231 1085 OFFCURVE",
"-231 1048 CURVE SMOOTH",
"-231 1011 OFFCURVE",
"-201 982 OFFCURVE"
);
}
);
width = 0;
}
);
unicode = 0901;
},
{
glyphname = dvAnusvara;
lastChange = "2016-08-13 07:58:21 +0000";
layers = (
{
anchors = (
{
name = _abvm.e;
position = "{-100, 740}";
}
);
layerId = "C0ED9D5D-A651-429A-8F5D-D93A2EDA2DC0";
paths = (
{
closed = 1;
nodes = (
"-132 841 CURVE SMOOTH",
"-105 841 OFFCURVE",
"-83 863 OFFCURVE",
"-83 890 CURVE SMOOTH",
"-83 917 OFFCURVE",
"-105 939 OFFCURVE",
"-132 939 CURVE SMOOTH",
"-159 939 OFFCURVE",
"-181 917 OFFCURVE",
"-181 890 CURVE SMOOTH",
"-181 863 OFFCURVE",
"-159 841 OFFCURVE"
);
}
);
width = 0;
},
{
anchors = (
{
name = _abvm.e;
position = "{-75, 740}";
}
);
layerId = "22D14058-393A-410A-BECB-F56B411A01B2";
paths = (
{
closed = 1;
nodes = (
"-158 838 CURVE SMOOTH",
"-105 838 OFFCURVE",
"-63 880 OFFCURVE",
"-63 932 CURVE SMOOTH",
"-63 985 OFFCURVE",
"-105 1027 OFFCURVE",
"-158 1027 CURVE SMOOTH",
"-210 1027 OFFCURVE",
"-252 985 OFFCURVE",
"-252 932 CURVE SMOOTH",
"-252 880 OFFCURVE",
"-210 838 OFFCURVE"
);
}
);
width = 0;
}
);
unicode = 0902;
},
{
glyphname = dvVirama;
lastChange = "2016-08-13 07:58:21 +0000";
layers = (
{
anchors = (
{
name = _blwm.virama;
position = "{-100, 0}";
}
);
layerId = "C0ED9D5D-A651-429A-8F5D-D93A2EDA2DC0";
paths = (
{
closed = 1;
nodes = (
"12 -214 CURVE",
"-98 -62 LINE",
"-98 -62 OFFCURVE",
"-163 -62 OFFCURVE",
"-163 -62 CURVE",
"-64 -214 LINE",
"-64 -214 OFFCURVE",
"12 -214 OFFCURVE"
);
}
);
width = 0;
},
{
anchors = (
{
name = _blwm.virama;
position = "{-75, 0}";
}
);
layerId = "22D14058-393A-410A-BECB-F56B411A01B2";
paths = (
{
closed = 1;
nodes = (
"63 -271 LINE",
"-70 -54 LINE",
"-224 -54 LINE",
"-98 -271 LINE"
);
}
);
width = 0;
}
);
unicode = 094D;
},
{
glyphname = dvK_SSA;
lastChange = "2016-08-13 07:58:21 +0000";
layers = (
{
layerId = "C0ED9D5D-A651-429A-8F5D-D93A2EDA2DC0";
paths = (
{
closed = 1;
nodes = (
"291 750 CURVE SMOOTH",
"187 750 OFFCURVE",
"100 688 OFFCURVE",
"100 576 CURVE SMOOTH",
"100 485 OFFCURVE",
"158 418 OFFCURVE",
"251 398 CURVE",
"171 357 OFFCURVE",
"79 299 OFFCURVE",
"79 193 CURVE SMOOTH",
"79 98 OFFCURVE",
"148 30 OFFCURVE",
"254 30 CURVE SMOOTH",
"328 30 OFFCURVE",
"371 63 OFFCURVE",
"388 90 CURVE",
"388 -31 LINE",
"453 -31 LINE",
"453 215 LINE",
"396 215 LINE",
"396 147 OFFCURVE",
"356 90 OFFCURVE",
"264 90 CURVE SMOOTH",
"186 90 OFFCURVE",
"144 138 OFFCURVE",
"144 201 CURVE SMOOTH",
"144 293 OFFCURVE",
"247 337 OFFCURVE",
"328 381 CURVE",
"646 381 LINE",
"646 439 LINE",
"406 439 LINE",
"455 479 OFFCURVE",
"476 529 OFFCURVE",
"476 583 CURVE SMOOTH",
"476 668 OFFCURVE",
"412 750 OFFCURVE"
);
},
{
closed = 1;
nodes = (
"293 691 CURVE SMOOTH",
"359 691 OFFCURVE",
"413 655 OFFCURVE",
"413 576 CURVE SMOOTH",
"413 514 OFFCURVE",
"377 470 OFFCURVE",
"326 439 CURVE",
"241 439 OFFCURVE",
"164 475 OFFCURVE",
"164 571 CURVE SMOOTH",
"164 658 OFFCURVE",
"224 691 OFFCURVE"
);
},
{
closed = 1;
nodes = (
"805 680 CURVE",
"805 740 LINE",
"600 740 LINE",
"600 0 LINE",
"665 0 LINE",
"665 680 LINE",
"665 680 OFFCURVE",
"805 680 OFFCURVE"
);
}
);
width = 765;
},
{
layerId = "22D14058-393A-410A-BECB-F56B411A01B2";
paths = (
{
closed = 1;
nodes = (
"310 750 CURVE SMOOTH",
"190 750 OFFCURVE",
"90 667 OFFCURVE",
"90 553 CURVE SMOOTH",
"90 468 OFFCURVE",
"135 414 OFFCURVE",
"197 390 CURVE",
"123 348 OFFCURVE",
"63 296 OFFCURVE",
"63 205 CURVE SMOOTH",
"63 99 OFFCURVE",
"143 32 OFFCURVE",
"255 32 CURVE SMOOTH",
"309 32 OFFCURVE",
"352 47 OFFCURVE",
"374 72 CURVE",
"374 -56 LINE",
"525 -56 LINE",
"525 252 LINE",
"389 252 LINE",
"389 211 OFFCURVE",
"365 168 OFFCURVE",
"308 168 CURVE SMOOTH",
"258 168 OFFCURVE",
"229 195 OFFCURVE",
"229 235 CURVE SMOOTH",
"229 287 OFFCURVE",
"271 311 OFFCURVE",
"322 338 CURVE",
"684 338 LINE",
"684 461 LINE",
"480 461 LINE",
"504 483 OFFCURVE",
"524 528 OFFCURVE",
"524 572 CURVE SMOOTH",
"524 688 OFFCURVE",
"430 750 OFFCURVE"
);
},
{
closed = 1;
nodes = (
"312 610 CURVE SMOOTH",
"360 610 OFFCURVE",
"386 581 OFFCURVE",
"386 540 CURVE SMOOTH",
"386 503 OFFCURVE",
"365 475 OFFCURVE",
"338 461 CURVE",
"280 463 OFFCURVE",
"237 489 OFFCURVE",
"237 537 CURVE SMOOTH",
"237 583 OFFCURVE",
"268 610 OFFCURVE"
);
},
{
closed = 1;
nodes = (
"883 600 LINE",
"883 740 LINE",
"631 740 LINE",
"631 0 LINE",
"788 0 LINE",
"788 600 LINE"
);
}
);
width = 863;
}
);
},
{
glyphname = dvJ_NYA;
lastChange = "2016-08-13 07:58:21 +0000";
layers = (
{
layerId = "C0ED9D5D-A651-429A-8F5D-D93A2EDA2DC0";
paths = (
{
closed = 1;
nodes = (
"618 0 LINE",
"683 0 LINE",
"683 680 LINE",
"683 680 OFFCURVE",
"823 680 OFFCURVE",
"823 680 CURVE",
"823 740 LINE",
"-40 740 LINE",
"-40 680 LINE",
"618 680 LINE"
);
},
{
closed = 1;
nodes = (
"239 475 LINE",
"638 475 LINE",
"638 532 LINE",
"239 532 LINE"
);
},
{
closed = 1;
nodes = (
"68 50 LINE",
"133 50 LINE",
"133 199 LINE",
"157 158 OFFCURVE",
"217 117 OFFCURVE",
"303 117 CURVE SMOOTH",
"425 117 OFFCURVE",
"498 201 OFFCURVE",
"498 316 CURVE SMOOTH",
"498 456 OFFCURVE",
"378 512 OFFCURVE",
"243 500 CURVE",
"240 475 LINE",
"348 475 OFFCURVE",
"433 428 OFFCURVE",
"433 319 CURVE SMOOTH",
"433 235 OFFCURVE",
"391 177 OFFCURVE",
"295 177 CURVE SMOOTH",
"206 177 OFFCURVE",
"137 232 OFFCURVE",
"129 336 CURVE",
"68 336 LINE"
);
}
);
width = 783;
},
{
layerId = "22D14058-393A-410A-BECB-F56B411A01B2";
paths = (
{
closed = 1;
nodes = (
"595 0 LINE",
"759 0 LINE",
"759 600 LINE",
"869 600 LINE",
"869 740 LINE",
"-20 740 LINE",
"-20 600 LINE",
"595 600 LINE"
);
},
{
closed = 1;
nodes = (
"232 368 LINE",
"232 368 OFFCURVE",
"603 368 OFFCURVE",
"603 368 CURVE",
"603 497 LINE",
"232 497 LINE"
);
},
{
closed = 1;
nodes = (
"39 3 LINE",
"198 3 LINE",
"198 109 LINE",
"229 81 OFFCURVE",
"281 68 OFFCURVE",
"325 68 CURVE SMOOTH",
"446 68 OFFCURVE",
"518 147 OFFCURVE",
"518 258 CURVE SMOOTH",
"518 376 OFFCURVE",
"412 425 OFFCURVE",
"312 417 CURVE",
"272 368 LINE",
"321 368 OFFCURVE",
"369 347 OFFCURVE",
"369 282 CURVE SMOOTH",
"369 237 OFFCURVE",
"340 204 OFFCURVE",
"291 204 CURVE SMOOTH",
"221 204 OFFCURVE",
"198 247 OFFCURVE",
"198 316 CURVE",
"39 316 LINE"
);
}
);
width = 857;
}
);
},
{
glyphname = dvReph;
lastChange = "2016-08-13 07:58:21 +0000";
layers = (
{
anchors = (
{
name = _abvm.e;
position = "{-100, 740}";
}
);
layerId = "C0ED9D5D-A651-429A-8F5D-D93A2EDA2DC0";
paths = (
{
closed = 1;
nodes = (
"-166 846 CURVE SMOOTH",
"-166 812 OFFCURVE",
"-166 747 OFFCURVE",
"-165 714 CURVE",
"-105 714 LINE",
"-105 846 LINE",
"-105 938 OFFCURVE",
"-79 987 OFFCURVE",
"-8 987 CURVE SMOOTH",
"61 987 OFFCURVE",
"85 947 OFFCURVE",
"87 881 CURVE",
"142 881 LINE",
"142 976 OFFCURVE",
"90 1041 OFFCURVE",
"-7 1041 CURVE SMOOTH",
"-120 1041 OFFCURVE",
"-166 971 OFFCURVE"
);
}
);
width = 0;
},
{
anchors = (
{
name = _abvm.e;
position = "{-75, 740}";
}
);
layerId = "22D14058-393A-410A-BECB-F56B411A01B2";
paths = (
{
closed = 1;
nodes = (
"-222 813 CURVE SMOOTH",
"-222 710 LINE",
"-81 710 LINE",
"-81 815 LINE SMOOTH",
"-81 882 OFFCURVE",
"-69 920 OFFCURVE",
"-24 920 CURVE SMOOTH",
"12 920 OFFCURVE",
"24 891 OFFCURVE",
"24 847 CURVE",
"165 847 LINE",
"165 976 OFFCURVE",
"102 1055 OFFCURVE",
"-24 1055 CURVE SMOOTH",
"-187 1055 OFFCURVE",
"-222 933 OFFCURVE"
);
}
);
width = 0;
}
);
},
{
glyphname = dvK;
lastChange = "2016-08-13 07:58:21 +0000";
layers = (
{
layerId = "C0ED9D5D-A651-429A-8F5D-D93A2EDA2DC0";
paths = (
{
closed = 1;
nodes = (
"313 109 CURVE SMOOTH",
"468 109 OFFCURVE",
"528 225 OFFCURVE",
"518 336 CURVE",
"487 339 LINE",
"487 236 OFFCURVE",
"431 169 OFFCURVE",
"323 169 CURVE SMOOTH",
"216 169 OFFCURVE",
"153 230 OFFCURVE",
"153 339 CURVE SMOOTH",
"153 447 OFFCURVE",
"213 510 OFFCURVE",
"321 510 CURVE SMOOTH",
"426 510 OFFCURVE",
"487 447 OFFCURVE",
"487 339 CURVE",
"518 342 LINE",
"528 455 OFFCURVE",
"466 570 OFFCURVE",
"313 570 CURVE SMOOTH",
"178 570 OFFCURVE",
"88 476 OFFCURVE",
"88 339 CURVE SMOOTH",
"88 202 OFFCURVE",
"180 109 OFFCURVE"
);
},
{
closed = 1;
nodes = (
"941 339 LINE",
"941 476 OFFCURVE",
"856 571 OFFCURVE",
"719 571 CURVE SMOOTH",
"568 571 OFFCURVE",
"511 450 OFFCURVE",
"524 325 CURVE",
"552 319 LINE",
"552 438 OFFCURVE",
"603 511 OFFCURVE",
"709 511 CURVE SMOOTH",
"818 511 OFFCURVE",
"877 446 OFFCURVE",
"877 339 CURVE"
);
},
{
closed = 1;
nodes = (
"943 740 LINE",
"-40 740 LINE",
"-40 680 LINE",
"487 680 LINE",
"487 0 LINE",
"552 0 LINE",
"552 340 OFFCURVE",
"552 680 OFFCURVE",
"552 680 CURVE",
"943 680 LINE"
);
}
);
width = 789;
},
{
layerId = "22D14058-393A-410A-BECB-F56B411A01B2";
paths = (
{
closed = 1;
nodes = (
"289 74 CURVE SMOOTH",
"418 74 OFFCURVE",
"484 170 OFFCURVE",
"466 296 CURVE",
"433 309 LINE",
"433 251 OFFCURVE",
"394 214 OFFCURVE",
"335 214 CURVE SMOOTH",
"274 214 OFFCURVE",
"239 251 OFFCURVE",
"239 308 CURVE SMOOTH",
"239 365 OFFCURVE",
"274 402 OFFCURVE",
"335 402 CURVE SMOOTH",
"394 402 OFFCURVE",
"433 366 OFFCURVE",
"433 308 CURVE",
"466 320 LINE",
"487 443 OFFCURVE",
"418 542 OFFCURVE",
"289 542 CURVE SMOOTH",
"151 542 OFFCURVE",
"74 433 OFFCURVE",
"74 308 CURVE SMOOTH",
"74 183 OFFCURVE",
"151 74 OFFCURVE"
);
},
{
closed = 1;
nodes = (
"930 308 LINE",
"930 433 OFFCURVE",
"862 542 OFFCURVE",
"724 542 CURVE SMOOTH",
"595 542 OFFCURVE",
"536 443 OFFCURVE",
"557 320 CURVE",
"590 299 LINE",
"590 360 OFFCURVE",
"622 402 OFFCURVE",
"678 402 CURVE SMOOTH",
"740 402 OFFCURVE",
"769 361 OFFCURVE",
"769 308 CURVE"
);
},
{
closed = 1;
nodes = (
"931 740 LINE",
"-20 740 LINE",
"-20 600 LINE",
"433 600 LINE",
"433 0 LINE",
"590 0 LINE",
"590 600 LINE",
"931 600 LINE"
);
}
);
width = 672;
}
);
},
{
glyphname = dvKH;
lastChange = "2016-08-13 07:58:21 +0000";
layers = (
{
layerId = "C0ED9D5D-A651-429A-8F5D-D93A2EDA2DC0";
paths = (
{
closed = 1;
nodes = (
"150 353 LINE",
"295 353 OFFCURVE",
"337 399 OFFCURVE",
"337 581 CURVE SMOOTH",
"337 687 LINE",
"273 690 LINE",
"273 582 LINE SMOOTH",
"273 416 OFFCURVE",
"253 407 OFFCURVE",
"122 407 CURVE SMOOTH",
"85 407 LINE",
"85 228 LINE SMOOTH",
"85 84 OFFCURVE",
"178 -1 OFFCURVE",
"320 -1 CURVE SMOOTH",
"447 -1 OFFCURVE",
"546 64 OFFCURVE",
"556 190 CURVE",
"490 190 LINE",
"484 106 OFFCURVE",
"419 59 OFFCURVE",
"320 59 CURVE SMOOTH",
"206 59 OFFCURVE",
"150 113 OFFCURVE",
"150 230 CURVE SMOOTH"
);
},
{
closed = 1;
nodes = (
"810 680 LINE",
"810 740 LINE",
"-43 740 LINE",
"-43 680 LINE"
);
},
{
closed = 1;
nodes = (
"384 349 CURVE SMOOTH",
"384 221 OFFCURVE",
"470 145 OFFCURVE",
"597 145 CURVE",
"724 145 OFFCURVE",
"810 221 OFFCURVE",
"810 349 CURVE SMOOTH",
"810 477 OFFCURVE",
"724 553 OFFCURVE",
"597 553 CURVE SMOOTH",
"470 553 OFFCURVE",
"384 477 OFFCURVE"
);
},
{
closed = 1;
nodes = (
"449 349 CURVE SMOOTH",
"449 437 OFFCURVE",
"508 493 OFFCURVE",
"596 493 CURVE",
"686 493 OFFCURVE",
"745 437 OFFCURVE",
"745 349 CURVE SMOOTH",
"745 261 OFFCURVE",
"686 205 OFFCURVE",
"596 205 CURVE SMOOTH",
"508 205 OFFCURVE",
"449 261 OFFCURVE"
);
}
);
width = 656;
},
{
layerId = "22D14058-393A-410A-BECB-F56B411A01B2";
paths = (
{
closed = 1;
nodes = (
"237 297 LINE",
"382 317 OFFCURVE",
"408 391 OFFCURVE",
"408 592 CURVE SMOOTH",
"408 610 LINE",
"408 610 OFFCURVE",
"243 610 OFFCURVE",
"243 610 CURVE",
"243 591 LINE SMOOTH",
"243 443 OFFCURVE",
"219 411 OFFCURVE",
"100 407 CURVE SMOOTH",
"91 407 OFFCURVE",
"81 407 OFFCURVE",
"71 407 CURVE",
"71 276 LINE SMOOTH",
"71 96 OFFCURVE",
"180 -4 OFFCURVE",
"353 -4 CURVE SMOOTH",
"515 -4 OFFCURVE",
"632 89 OFFCURVE",
"623 242 CURVE",
"471 242 LINE",
"469 177 OFFCURVE",
"433 136 OFFCURVE",
"351 136 CURVE SMOOTH",
"269 136 OFFCURVE",
"237 187 OFFCURVE",
"237 258 CURVE SMOOTH"
);
},
{
closed = 1;
nodes = (
"877 600 LINE",
"877 740 LINE",
"-20 740 LINE",
"-20 600 LINE"
);
},
{
closed = 1;
nodes = (
"419 323 CURVE SMOOTH",
"419 190 OFFCURVE",
"520 116 OFFCURVE",
"648 116 CURVE SMOOTH",
"776 116 OFFCURVE",
"875 190 OFFCURVE",
"875 323 CURVE SMOOTH",
"875 453 OFFCURVE",
"780 529 OFFCURVE",
"648 529 CURVE",
"516 529 OFFCURVE",
"419 453 OFFCURVE"
);
},
{
closed = 1;
nodes = (
"566 323 CURVE SMOOTH",
"566 373 OFFCURVE",
"598 403 OFFCURVE",
"648 403 CURVE SMOOTH",
"698 403 OFFCURVE",
"730 373 OFFCURVE",
"730 323 CURVE SMOOTH",
"730 272 OFFCURVE",
"698 243 OFFCURVE",
"648 243 CURVE",
"598 243 OFFCURVE",
"566 272 OFFCURVE"
);
}
);
width = 636;
}
);
},
{
glyphname = dvG;
lastChange = "2016-08-13 07:58:21 +0000";
layers = (
{
layerId = "C0ED9D5D-A651-429A-8F5D-D93A2EDA2DC0";
paths = (
{
closed = 1;
nodes = (
"472 680 LINE",
"472 740 LINE",
"-40 740 LINE",
"-40 680 LINE"
);
},
{
closed = 1;
nodes = (
"301 690 LINE",
"237 690 LINE",
"237 425 LINE SMOOTH",
"237 353 OFFCURVE",
"232 297 OFFCURVE",
"162 297 CURVE SMOOTH",
"92 297 OFFCURVE",
"86 353 OFFCURVE",
"86 425 CURVE",
"22 425 LINE",
"17 310 OFFCURVE",
"60 237 OFFCURVE",
"162 237 CURVE SMOOTH",
"268 237 OFFCURVE",
"301 304 OFFCURVE",
"301 425 CURVE SMOOTH"
);
}
);
width = 422;
},
{
layerId = "22D14058-393A-410A-BECB-F56B411A01B2";
paths = (
{
closed = 1;
nodes = (
"545 600 LINE",
"545 740 LINE",
"-20 740 LINE",
"-20 600 LINE"
);
},
{
closed = 1;
nodes = (
"444 641 LINE",
"444 641 OFFCURVE",
"290 620 OFFCURVE",
"290 620 CURVE",
"290 401 LINE SMOOTH",
"290 356 OFFCURVE",
"292 305 OFFCURVE",
"247 305 CURVE SMOOTH",
"204 305 OFFCURVE",
"200 348 OFFCURVE",
"200 391 CURVE",
"36 391 LINE",
"34 241 OFFCURVE",
"97 165 OFFCURVE",
"243 165 CURVE SMOOTH",
"394 165 OFFCURVE",
"444 254 OFFCURVE",
"444 404 CURVE SMOOTH"
);
}
);
width = 505;
}
);
},
{
glyphname = dvGH;
lastChange = "2016-08-13 07:58:21 +0000";
layers = (
{
layerId = "C0ED9D5D-A651-429A-8F5D-D93A2EDA2DC0";
paths = (
{
closed = 1;
nodes = (
"587 740 LINE",
"-40 740 LINE",
"-40 680 LINE",
"587 680 LINE"
);
},
{
closed = 1;
nodes = (
"588 355 CURVE",
"529 355 LINE",
"529 233 OFFCURVE",
"450 170 OFFCURVE",
"326 170 CURVE SMOOTH",
"234 170 OFFCURVE",
"143 199 OFFCURVE",
"143 291 CURVE SMOOTH",
"143 379 OFFCURVE",
"217 416 OFFCURVE",
"306 416 CURVE SMOOTH",
"306 416 OFFCURVE",
"339 416 OFFCURVE",
"339 416 CURVE",
"339 416 OFFCURVE",
"339 475 OFFCURVE",
"339 475 CURVE",
"306 475 LINE SMOOTH",
"187 475 OFFCURVE",
"162 520 OFFCURVE",
"162 642 CURVE SMOOTH",
"162 680 LINE",
"96 693 LINE",
"96 642 LINE SMOOTH",
"96 546 OFFCURVE",
"107 484 OFFCURVE",
"182 451 CURVE",
"182 445 LINE",
"122 420 OFFCURVE",
"78 368 OFFCURVE",
"78 292 CURVE SMOOTH",
"78 168 OFFCURVE",
"193 110 OFFCURVE",
"326 110 CURVE SMOOTH",
"470 110 OFFCURVE",
"588 184 OFFCURVE"
);
}
);
width = 411;
},
{
layerId = "22D14058-393A-410A-BECB-F56B411A01B2";
paths = (
{
closed = 1;
nodes = (
"620 740 LINE",
"-20 740 LINE",
"-20 600 LINE",
"620 600 LINE"
);
},
{
closed = 1;
nodes = (
"614 358 CURVE",
"462 358 LINE",
"462 278 OFFCURVE",
"423 232 OFFCURVE",
"340 232 CURVE SMOOTH",
"286 232 OFFCURVE",
"231 244 OFFCURVE",
"231 295 CURVE SMOOTH",
"231 332 OFFCURVE",
"258 356 OFFCURVE",
"318 356 CURVE SMOOTH",
"369 356 LINE",
"369 488 LINE",
"321 488 LINE SMOOTH",
"253 488 OFFCURVE",
"243 533 OFFCURVE",
"243 602 CURVE SMOOTH",
"243 655 LINE",
"78 618 LINE",
"78 602 LINE SMOOTH",
"78 496 OFFCURVE",
"104 450 OFFCURVE",
"159 424 CURVE",
"159 418 LINE",
"110 397 OFFCURVE",
"66 351 OFFCURVE",
"66 279 CURVE SMOOTH",
"66 141 OFFCURVE",
"207 98 OFFCURVE",
"338 98 CURVE",
"502 98 OFFCURVE",
"614 168 OFFCURVE"
);
}
);
width = 375;
}
);
},
{
glyphname = dvC;
lastChange = "2016-08-13 07:58:21 +0000";
layers = (
{
layerId = "C0ED9D5D-A651-429A-8F5D-D93A2EDA2DC0";
paths = (
{
closed = 1;
nodes = (
"618 740 LINE",
"-40 740 LINE",
"-40 680 LINE",
"618 680 LINE"
);
},
{
closed = 1;
nodes = (
"411 531 LINE",
"49 531 LINE",
"49 474 LINE",
"411 474 LINE"
);
},
{
closed = 1;
nodes = (
"555 349 LINE",
"555 243 OFFCURVE",
"502 164 OFFCURVE",
"381 164 CURVE SMOOTH",
"279 164 OFFCURVE",
"208 218 OFFCURVE",
"208 315 CURVE SMOOTH",
"208 416 OFFCURVE",
"277 474 OFFCURVE",
"385 474 CURVE",
"364 497 LINE",
"236 507 OFFCURVE",
"144 443 OFFCURVE",
"144 315 CURVE SMOOTH",
"144 184 OFFCURVE",
"251 104 OFFCURVE",
"382 104 CURVE SMOOTH",
"536 104 OFFCURVE",
"617 208 OFFCURVE",
"617 349 CURVE"
);
}
);
width = 467;
},
{
layerId = "22D14058-393A-410A-BECB-F56B411A01B2";
paths = (
{
closed = 1;
nodes = (
"665 740 LINE",
"-20 740 LINE",
"-20 600 LINE",
"-20 600 OFFCURVE",
"665 600 OFFCURVE",
"665 600 CURVE"
);
},
{
closed = 1;
nodes = (
"421 511 LINE",
"50 511 LINE",
"50 382 LINE",
"50 382 OFFCURVE",
"421 382 OFFCURVE",
"421 382 CURVE"
);
},
{
closed = 1;
nodes = (
"511 369 LINE",
"511 283 OFFCURVE",
"482 218 OFFCURVE",
"396 218 CURVE SMOOTH",
"337 218 OFFCURVE",
"289 244 OFFCURVE",
"289 302 CURVE SMOOTH",
"289 355 OFFCURVE",
"332 382 OFFCURVE",
"381 382 CURVE",
"341 433 LINE",
"227 438 OFFCURVE",
"135 382 OFFCURVE",
"135 278 CURVE SMOOTH",
"135 143 OFFCURVE",
"261 82 OFFCURVE",
"396 82 CURVE SMOOTH",
"588 82 OFFCURVE",
"666 188 OFFCURVE",
"666 369 CURVE"
);
}
);
width = 421;
}
);
},
{
glyphname = dvCH;
lastChange = "2016-08-13 07:58:21 +0000";
layers = (
{
layerId = "C0ED9D5D-A651-429A-8F5D-D93A2EDA2DC0";
paths = (
{
closed = 1;
nodes = (
"857 680 LINE",
"857 740 LINE",
"-40 740 LINE",
"-40 680 LINE"
);
},
{
closed = 1;
nodes = (
"588 514 CURVE SMOOTH",
"654 514 OFFCURVE",
"706 472 OFFCURVE",
"706 354 CURVE SMOOTH",
"706 171 OFFCURVE",
"580 92 OFFCURVE",
"409 92 CURVE SMOOTH",
"280 92 OFFCURVE",
"145 126 OFFCURVE",
"145 249 CURVE SMOOTH",
"145 342 OFFCURVE",
"216 386 OFFCURVE",
"320 386 CURVE",
"320 386 OFFCURVE",
"332 386 OFFCURVE",
"332 386 CURVE",
"332 386 OFFCURVE",
"332 446 OFFCURVE",
"332 446 CURVE",
"320 446 LINE SMOOTH",
"190 446 OFFCURVE",
"168 497 OFFCURVE",
"168 628 CURVE SMOOTH",
"168 680 LINE",
"103 690 LINE",
"103 634 LINE SMOOTH",
"103 516 OFFCURVE",
"118 447 OFFCURVE",
"200 422 CURVE",
"200 416 LINE",
"129 390 OFFCURVE",
"81 334 OFFCURVE",
"81 250 CURVE SMOOTH",
"81 90 OFFCURVE",
"240 32 OFFCURVE",
"409 32 CURVE SMOOTH",
"626 32 OFFCURVE",
"766 152 OFFCURVE",
"766 347 CURVE SMOOTH",
"766 484 OFFCURVE",
"699 574 OFFCURVE",
"588 574 CURVE",
"466 571 OFFCURVE",
"407 486 OFFCURVE",
"409 310 CURVE",
"469 310 LINE",
"467 489 OFFCURVE",
"523 514 OFFCURVE"
);
}
);
width = 817;
},
{
layerId = "22D14058-393A-410A-BECB-F56B411A01B2";
paths = (
{
closed = 1;
nodes = (
"850 600 LINE",
"850 740 LINE",
"-20 740 LINE",
"-20 600 LINE"
);
},
{
closed = 1;
nodes = (
"583 420 CURVE SMOOTH",
"625 420 OFFCURVE",
"639 382 OFFCURVE",
"639 334 CURVE SMOOTH",
"639 218 OFFCURVE",
"557 167 OFFCURVE",
"409 167 CURVE SMOOTH",
"320 167 OFFCURVE",
"242 196 OFFCURVE",
"242 258 CURVE SMOOTH",
"242 306 OFFCURVE",
"280 332 OFFCURVE",
"323 332 CURVE SMOOTH",
"344 332 LINE",
"344 464 LINE",
"330 464 LINE SMOOTH",
"258 464 OFFCURVE",
"247 505 OFFCURVE",
"247 590 CURVE SMOOTH",
"247 618 LINE",
"82 618 LINE",
"82 591 LINE SMOOTH",
"82 493 OFFCURVE",
"101 432 OFFCURVE",
"170 400 CURVE",
"170 394 LINE",
"112 366 OFFCURVE",
"75 312 OFFCURVE",
"75 238 CURVE SMOOTH",
"75 94 OFFCURVE",
"242 30 OFFCURVE",
"413 30 CURVE SMOOTH",
"665 30 OFFCURVE",
"778 151 OFFCURVE",
"778 332 CURVE SMOOTH",
"778 461 OFFCURVE",
"712 543 OFFCURVE",
"578 543 CURVE SMOOTH",
"452 543 OFFCURVE",
"371 493 OFFCURVE",
"387 262 CURVE",
"387 262 OFFCURVE",
"524 262 OFFCURVE",
"524 262 CURVE",
"519 376 OFFCURVE",
"539 420 OFFCURVE"
);
}
);
width = 830;
}
);
},
{
glyphname = dvJ;
lastChange = "2016-08-13 07:58:21 +0000";
layers = (
{
layerId = "C0ED9D5D-A651-429A-8F5D-D93A2EDA2DC0";
paths = (
{
closed = 1;
nodes = (
"139 398 CURVE SMOOTH",
"139 518 LINE",
"74 518 LINE",
"74 376 LINE SMOOTH",
"74 231 OFFCURVE",
"96 106 OFFCURVE",
"263 106 CURVE SMOOTH",
"430 106 OFFCURVE",
"452 231 OFFCURVE",
"452 376 CURVE SMOOTH",
"452 518 LINE",
"387 518 LINE",
"387 398 LINE SMOOTH",
"387 265 OFFCURVE",
"387 166 OFFCURVE",
"263 166 CURVE SMOOTH",
"139 166 OFFCURVE",
"139 265 OFFCURVE"
);
},
{
closed = 1;
nodes = (
"720 518 LINE",
"392 518 LINE",
"392 460 LINE",
"720 460 LINE"
);
},
{
closed = 1;
nodes = (
"721 680 CURVE",
"721 740 LINE",
"-40 740 LINE",
"-40 680 LINE",
"654 680 OFFCURVE",
"721 680 OFFCURVE"
);
}
);
width = 559;
},
{
layerId = "22D14058-393A-410A-BECB-F56B411A01B2";
paths = (
{
closed = 1;
nodes = (
"211 357 CURVE SMOOTH",
"211 497 LINE",
"47 497 LINE",
"47 330 LINE SMOOTH",
"47 204 OFFCURVE",
"112 96 OFFCURVE",
"287 96 CURVE SMOOTH",
"442 96 OFFCURVE",
"513 178 OFFCURVE",
"513 330 CURVE SMOOTH",
"513 497 LINE",
"352 497 LINE",
"352 357 LINE SMOOTH",
"352 283 OFFCURVE",
"345 236 OFFCURVE",
"285 236 CURVE SMOOTH",
"225 236 OFFCURVE",
"211 283 OFFCURVE"
);
},
{
closed = 1;
nodes = (
"720 497 LINE",
"366 497 LINE",
"366 366 LINE",
"720 366 LINE"
);
},
{
closed = 1;
nodes = (
"721 600 LINE",
"721 740 LINE",
"-20 740 LINE",
"-20 600 LINE"
);
}
);
width = 548;
}
);
},
{
glyphname = dvJH;
lastChange = "2016-08-13 07:58:21 +0000";
layers = (
{
layerId = "C0ED9D5D-A651-429A-8F5D-D93A2EDA2DC0";
paths = (
{
closed = 1;
nodes = (
"705 680 LINE",
"705 740 LINE",
"-40 740 LINE",
"-40 680 LINE"
);
},
{
closed = 1;
nodes = (
"418 522 LINE",
"483 522 LINE",
"483 718 LINE",
"418 718 LINE"
);
},
{
closed = 1;
nodes = (
"705 290 LINE",
"705 343 LINE",
"297 343 LINE SMOOTH",
"230 343 OFFCURVE",
"176 354 OFFCURVE",
"176 430 CURVE SMOOTH",
"176 509 OFFCURVE",
"244 511 OFFCURVE",
"319 511 CURVE SMOOTH",
"483 511 LINE",
"483 541 LINE",
"483 571 LINE",
"318 571 LINE SMOOTH",
"214 571 OFFCURVE",
"111 554 OFFCURVE",
"111 430 CURVE SMOOTH",
"111 304 OFFCURVE",
"206 288 OFFCURVE",
"325 288 CURVE SMOOTH",
"396 288 OFFCURVE",
"457 284 OFFCURVE",
"457 198 CURVE SMOOTH",
"457 130 OFFCURVE",
"414 93 OFFCURVE",
"328 93 CURVE SMOOTH",
"236 93 OFFCURVE",
"175 148 OFFCURVE",
"170 231 CURVE",
"105 231 LINE",
"105 -30 LINE",
"170 -30 LINE",
"170 114 LINE",
"198 69 OFFCURVE",
"260 34 OFFCURVE",
"336 34 CURVE SMOOTH",
"463 34 OFFCURVE",
"522 110 OFFCURVE",
"522 192 CURVE SMOOTH",
"522 238 OFFCURVE",
"495 276 OFFCURVE",
"466 290 CURVE"
);
}
);
width = 560;
},
{
layerId = "22D14058-393A-410A-BECB-F56B411A01B2";
paths = (
{
closed = 1;
nodes = (
"695 600 LINE",
"695 740 LINE",
"-20 740 LINE",
"-20 600 LINE"
);
},
{
closed = 1;
nodes = (
"307 506 LINE",
"472 506 LINE",
"472 718 LINE",
"307 718 LINE"
);
},
{
closed = 1;
nodes = (
"695 226 LINE",
"695 356 LINE",
"306 356 LINE SMOOTH",
"259 356 OFFCURVE",
"229 356 OFFCURVE",
"229 388 CURVE SMOOTH",
"229 418 OFFCURVE",
"264 421 OFFCURVE",
"317 421 CURVE SMOOTH",
"472 421 LINE",
"472 518 LINE",
"322 551 LINE",
"268 551 LINE SMOOTH",
"159 551 OFFCURVE",
"63 509 OFFCURVE",
"63 399 CURVE SMOOTH",
"63 243 OFFCURVE",
"191 231 OFFCURVE",
"282 231 CURVE SMOOTH",
"336 231 OFFCURVE",
"373 231 OFFCURVE",
"373 189 CURVE SMOOTH",
"373 154 OFFCURVE",
"346 137 OFFCURVE",
"308 137 CURVE SMOOTH",
"262 137 OFFCURVE",
"234 158 OFFCURVE",
"234 204 CURVE",
"79 204 LINE",
"79 -60 LINE",
"234 -60 LINE",
"234 44 LINE",
"260 20 OFFCURVE",
"305 11 OFFCURVE",
"342 11 CURVE SMOOTH",
"458 11 OFFCURVE",
"523 84 OFFCURVE",
"523 186 CURVE SMOOTH",
"523 201 OFFCURVE",
"520 216 OFFCURVE",
"512 226 CURVE"
);
}
);
width = 529;
}
);
},
{
glyphname = dvNY;
lastChange = "2016-08-13 07:58:21 +0000";
layers = (
{
layerId = "C0ED9D5D-A651-429A-8F5D-D93A2EDA2DC0";
paths = (
{
closed = 1;
nodes = (
"678 680 CURVE",
"678 740 LINE",
"-40 740 LINE",
"-40 680 LINE",
"633 680 OFFCURVE",
"678 680 OFFCURVE"
);
},
{
closed = 1;
nodes = (
"678 325 LINE",
"678 383 LINE",
"468 383 LINE",
"468 325 LINE"
);
},
{
closed = 1;
nodes = (
"288 589 CURVE SMOOTH",
"146 589 OFFCURVE",
"82 502 OFFCURVE",
"66 424 CURVE",
"132 424 LINE",
"145 476 OFFCURVE",
"192 529 OFFCURVE",
"288 529 CURVE SMOOTH",
"398 529 OFFCURVE",
"448 460 OFFCURVE",
"448 351 CURVE SMOOTH",
"448 242 OFFCURVE",
"398 173 OFFCURVE",
"288 173 CURVE SMOOTH",
"192 173 OFFCURVE",
"145 226 OFFCURVE",
"132 278 CURVE",
"66 278 LINE",
"82 200 OFFCURVE",
"146 113 OFFCURVE",
"288 113 CURVE SMOOTH",
"445 113 OFFCURVE",
"513 224 OFFCURVE",
"513 351 CURVE SMOOTH",
"513 478 OFFCURVE",
"445 589 OFFCURVE"
);
}
);
width = 554;
},
{
layerId = "22D14058-393A-410A-BECB-F56B411A01B2";
paths = (
{
closed = 1;
nodes = (
"729 600 LINE",
"729 740 LINE",
"-20 740 LINE",
"-20 600 LINE"
);
},
{
closed = 1;
nodes = (
"728 232 LINE",
"728 372 LINE",
"470 372 LINE",
"470 232 LINE"
);
},
{
closed = 1;
nodes = (
"296 542 CURVE SMOOTH",
"160 542 OFFCURVE",
"71 469 OFFCURVE",
"56 357 CURVE",
"216 357 LINE",
"225 384 OFFCURVE",
"256 403 OFFCURVE",
"296 403 CURVE SMOOTH",
"356 403 OFFCURVE",
"385 357 OFFCURVE",
"385 300 CURVE SMOOTH",
"385 243 OFFCURVE",
"356 197 OFFCURVE",
"296 197 CURVE SMOOTH",
"256 197 OFFCURVE",
"225 216 OFFCURVE",
"216 243 CURVE",
"56 243 LINE",
"71 131 OFFCURVE",
"160 58 OFFCURVE",
"296 58 CURVE SMOOTH",
"445 58 OFFCURVE",
"541 152 OFFCURVE",
"541 300 CURVE SMOOTH",
"541 448 OFFCURVE",
"445 542 OFFCURVE"
);
}
);
width = 565;
}
);
},
{
glyphname = dvNN;
lastChange = "2016-08-13 07:58:21 +0000";
layers = (
{
layerId = "C0ED9D5D-A651-429A-8F5D-D93A2EDA2DC0";
paths = (
{
closed = 1;
nodes = (
"631 680 CURVE",
"631 740 LINE",
"-40 740 LINE",
"-40 680 LINE",
"184 680 OFFCURVE",
"408 680 OFFCURVE"
);
},
{
closed = 1;
nodes = (
"492 419 CURVE SMOOTH",
"492 705 LINE",
"492 705 OFFCURVE",
"427 705 OFFCURVE",
"427 705 CURVE",
"427 418 LINE SMOOTH",
"427 309 OFFCURVE",
"406 237 OFFCURVE",
"297 237 CURVE SMOOTH",
"188 237 OFFCURVE",
"167 309 OFFCURVE",
"167 418 CURVE SMOOTH",
"167 705 LINE",
"167 705 OFFCURVE",
"102 705 OFFCURVE",
"102 705 CURVE",
"102 419 LINE SMOOTH",
"102 273 OFFCURVE",
"151 177 OFFCURVE",
"297 177 CURVE SMOOTH",
"443 177 OFFCURVE",
"492 273 OFFCURVE"
);
}
);
width = 591;
},
{
layerId = "22D14058-393A-410A-BECB-F56B411A01B2";
paths = (
{
closed = 1;
nodes = (
"601 600 LINE",
"601 740 LINE",
"-20 740 LINE",
"-20 600 LINE"
);
},
{
closed = 1;
nodes = (
"537 367 CURVE SMOOTH",
"537 675 LINE",
"375 675 LINE",
"375 360 LINE SMOOTH",
"375 312 OFFCURVE",
"358 276 OFFCURVE",
"310 276 CURVE SMOOTH",
"263 276 OFFCURVE",
"245 312 OFFCURVE",
"245 360 CURVE SMOOTH",
"245 675 LINE",
"83 675 LINE",
"83 367 LINE SMOOTH",
"83 229 OFFCURVE",
"151 136 OFFCURVE",
"310 136 CURVE SMOOTH",
"469 136 OFFCURVE",
"537 229 OFFCURVE"
);
}
);
width = 581;
}
);
},
{
glyphname = dvT;
lastChange = "2016-08-13 07:58:21 +0000";
layers = (
{
layerId = "C0ED9D5D-A651-429A-8F5D-D93A2EDA2DC0";
paths = (
{
closed = 1;
nodes = (
"513 680 LINE",
"513 740 LINE",
"-40 740 LINE",
"-40 680 LINE"
);
},
{
closed = 1;
nodes = (
"513 499 LINE",
"380 499 LINE",
"350 499 LINE SMOOTH",
"183 499 OFFCURVE",
"64 427 OFFCURVE",
"64 251 CURVE SMOOTH",
"64 106 OFFCURVE",
"140 -2 OFFCURVE",
"330 -2 CURVE SMOOTH",
"338 -2 LINE",
"338 56 LINE",
"188 56 OFFCURVE",
"130 124 OFFCURVE",
"130 251 CURVE SMOOTH",
"130 389 OFFCURVE",
"225 439 OFFCURVE",
"350 439 CURVE SMOOTH",
"380 439 LINE",
"513 439 LINE"
);
}
);
width = 357;
},
{
layerId = "22D14058-393A-410A-BECB-F56B411A01B2";
paths = (
{
closed = 1;
nodes = (
"542 600 LINE",
"542 740 LINE",
"-20 740 LINE",
"-20 600 LINE"
);
},
{
closed = 1;
nodes = (
"542 491 LINE",
"365 491 LINE",
"344 491 LINE SMOOTH",
"190 491 OFFCURVE",
"59 427 OFFCURVE",
"59 239 CURVE SMOOTH",
"59 67 OFFCURVE",
"169 0 OFFCURVE",
"321 0 CURVE SMOOTH",
"353 0 LINE",
"353 129 LINE",
"259 129 OFFCURVE",
"224 172 OFFCURVE",
"224 239 CURVE SMOOTH",
"224 316 OFFCURVE",
"274 351 OFFCURVE",
"347 351 CURVE SMOOTH",
"361 351 LINE",
"542 351 LINE"
);
}
);
width = 354;
}
);
},
{
glyphname = dvTH;
lastChange = "2016-08-13 07:58:21 +0000";
layers = (
{
layerId = "C0ED9D5D-A651-429A-8F5D-D93A2EDA2DC0";
paths = (
{
closed = 1;
nodes = (
"587 349 LINE",
"587 234 OFFCURVE",
"507 159 OFFCURVE",
"382 159 CURVE SMOOTH",
"233 159 OFFCURVE",
"163 254 OFFCURVE",
"170 389 CURVE",
"329 385 OFFCURVE",
"478 406 OFFCURVE",
"478 570 CURVE SMOOTH",
"478 678 OFFCURVE",
"405 750 OFFCURVE",
"300 750 CURVE SMOOTH",
"183 750 OFFCURVE",
"115 667 OFFCURVE",
"118 552 CURVE",
"183 552 LINE",
"181 633 OFFCURVE",
"217 690 OFFCURVE",
"299 690 CURVE SMOOTH",
"371 690 OFFCURVE",
"413 646 OFFCURVE",
"413 574 CURVE SMOOTH",
"413 461 OFFCURVE",
"330 443 OFFCURVE",
"195 443 CURVE SMOOTH",
"167 443 OFFCURVE",
"137 444 OFFCURVE",
"105 445 CURVE",
"81 251 OFFCURVE",
"177 99 OFFCURVE",
"382 99 CURVE SMOOTH",
"543 99 OFFCURVE",
"645 200 OFFCURVE",
"645 349 CURVE"
);
}
);
width = 480;
},
{
layerId = "22D14058-393A-410A-BECB-F56B411A01B2";
paths = (
{
closed = 1;
nodes = (
"551 384 LINE",
"551 264 OFFCURVE",
"481 219 OFFCURVE",
"391 219 CURVE SMOOTH",
"303 219 OFFCURVE",
"226 255 OFFCURVE",
"232 347 CURVE",
"389 348 OFFCURVE",
"481 426 OFFCURVE",
"481 549 CURVE SMOOTH",
"481 685 OFFCURVE",
"385 747 OFFCURVE",
"276 747 CURVE SMOOTH",
"165 747 OFFCURVE",
"68 677 OFFCURVE",
"74 538 CURVE",
"223 538 LINE",
"220 581 OFFCURVE",
"239 607 OFFCURVE",
"273 607 CURVE SMOOTH",
"303 607 OFFCURVE",
"324 588 OFFCURVE",
"324 552 CURVE SMOOTH",
"324 491 OFFCURVE",
"263 468 OFFCURVE",
"176 468 CURVE SMOOTH",
"62 468 LINE",
"31 203 OFFCURVE",
"176 79 OFFCURVE",
"393 79 CURVE SMOOTH",
"590 79 OFFCURVE",
"713 188 OFFCURVE",
"713 384 CURVE"
);
}
);
width = 471;
}
);
},
{
glyphname = dvDH;
lastChange = "2016-08-13 07:58:21 +0000";
layers = (
{
layerId = "C0ED9D5D-A651-429A-8F5D-D93A2EDA2DC0";
paths = (
{
closed = 1;
nodes = (
"361 568 CURVE",
"423 568 LINE",
"430 674 OFFCURVE",
"369 750 OFFCURVE",
"261 750 CURVE SMOOTH",
"161 750 OFFCURVE",
"95 681 OFFCURVE",
"95 586 CURVE SMOOTH",
"95 510 OFFCURVE",
"143 457 OFFCURVE",
"201 433 CURVE",
"201 427 LINE",
"137 404 OFFCURVE",
"97 357 OFFCURVE",
"97 287 CURVE SMOOTH",
"97 165 OFFCURVE",
"211 110 OFFCURVE",
"330 110 CURVE SMOOTH",
"483 110 OFFCURVE",
"587 189 OFFCURVE",
"587 350 CURVE",
"527 350 LINE",
"527 219 OFFCURVE",
"443 170 OFFCURVE",
"330 170 CURVE SMOOTH",
"249 170 OFFCURVE",
"162 202 OFFCURVE",
"162 286 CURVE SMOOTH",
"162 371 OFFCURVE",
"240 398 OFFCURVE",
"325 398 CURVE SMOOTH",
"325 398 OFFCURVE",
"373 398 OFFCURVE",
"373 398 CURVE",
"373 398 OFFCURVE",
"373 457 OFFCURVE",
"373 457 CURVE",
"325 457 LINE SMOOTH",
"229 457 OFFCURVE",
"160 497 OFFCURVE",
"160 588 CURVE SMOOTH",
"160 651 OFFCURVE",
"199 690 OFFCURVE",
"262 690 CURVE SMOOTH",
"335 690 OFFCURVE",
"363 639 OFFCURVE"
);
}
);
width = 417;
},
{
layerId = "22D14058-393A-410A-BECB-F56B411A01B2";
paths = (
{
closed = 1;
nodes = (
"302 558 CURVE",
"431 558 LINE",
"439 669 OFFCURVE",
"373 750 OFFCURVE",
"251 750 CURVE SMOOTH",
"145 750 OFFCURVE",
"68 687 OFFCURVE",
"68 585 CURVE SMOOTH",
"68 498 OFFCURVE",
"118 443 OFFCURVE",
"183 422 CURVE",
"183 416 LINE",
"128 396 OFFCURVE",
"75 351 OFFCURVE",
"75 270 CURVE SMOOTH",
"75 130 OFFCURVE",
"219 80 OFFCURVE",
"360 80 CURVE SMOOTH",
"488 80 OFFCURVE",
"673 124 OFFCURVE",
"670 374 CURVE",
"510 374 LINE",
"510 267 OFFCURVE",
"458 213 OFFCURVE",
"361 213 CURVE SMOOTH",
"294 213 OFFCURVE",
"240 233 OFFCURVE",
"240 284 CURVE SMOOTH",
"240 338 OFFCURVE",
"295 354 OFFCURVE",
"359 354 CURVE SMOOTH",
"399 354 LINE",
"399 486 LINE",
"337 486 LINE SMOOTH",
"278 486 OFFCURVE",
"213 504 OFFCURVE",
"213 565 CURVE SMOOTH",
"213 593 OFFCURVE",
"233 610 OFFCURVE",
"257 610 CURVE SMOOTH",
"284 610 OFFCURVE",
"304 593 OFFCURVE"
);
}
);
width = 433;
}
);
},
{
glyphname = dvN;
lastChange = "2016-08-13 07:58:21 +0000";
layers = (
{
layerId = "C0ED9D5D-A651-429A-8F5D-D93A2EDA2DC0";
paths = (
{
closed = 1;
nodes = (
"654 680 CURVE",
"654 740 LINE",
"-40 740 LINE",
"-40 680 LINE",
"570 680 OFFCURVE",
"654 680 OFFCURVE"
);
},
{
closed = 1;
nodes = (
"654 487 LINE",
"290 487 LINE SMOOTH",
"139 487 OFFCURVE",
"67 413 OFFCURVE",
"67 298 CURVE SMOOTH",
"67 182 OFFCURVE",
"156 110 OFFCURVE",
"268 110 CURVE SMOOTH",
"384 110 OFFCURVE",
"456 190 OFFCURVE",
"456 293 CURVE SMOOTH",
"456 352 OFFCURVE",
"432 404 OFFCURVE",
"385 429 CURVE",
"654 429 LINE"
);
},
{
closed = 1;
nodes = (
"263 428 CURVE SMOOTH",
"343 428 OFFCURVE",
"392 375 OFFCURVE",
"392 298 CURVE SMOOTH",
"392 212 OFFCURVE",
"331 169 OFFCURVE",
"268 169 CURVE SMOOTH",
"198 169 OFFCURVE",
"132 207 OFFCURVE",
"132 298 CURVE SMOOTH",
"132 382 OFFCURVE",
"193 428 OFFCURVE"
);
}
);
width = 502;
},
{
layerId = "22D14058-393A-410A-BECB-F56B411A01B2";
paths = (
{
closed = 1;
nodes = (
"678 600 LINE",
"678 740 LINE",
"-20 740 LINE",
"-20 600 LINE"
);
},
{
closed = 1;
nodes = (
"678 489 LINE",
"274 489 LINE SMOOTH",
"134 489 OFFCURVE",
"28 419 OFFCURVE",
"28 279 CURVE SMOOTH",
"28 145 OFFCURVE",
"122 60 OFFCURVE",
"256 60 CURVE SMOOTH",
"381 60 OFFCURVE",
"466 127 OFFCURVE",
"466 247 CURVE SMOOTH",
"466 288 OFFCURVE",
"450 330 OFFCURVE",
"431 351 CURVE",
"678 351 LINE"
);
},
{
closed = 1;
nodes = (
"255 349 CURVE SMOOTH",
"303 349 OFFCURVE",
"329 324 OFFCURVE",
"329 277 CURVE SMOOTH",
"329 231 OFFCURVE",
"303 200 OFFCURVE",
"255 200 CURVE SMOOTH",
"209 200 OFFCURVE",
"176 231 OFFCURVE",
"176 277 CURVE SMOOTH",
"176 325 OFFCURVE",
"209 349 OFFCURVE"
);
}
);
width = 487;
}
);
},
{
glyphname = dvP;
lastChange = "2016-08-13 07:58:21 +0000";
layers = (
{
layerId = "C0ED9D5D-A651-429A-8F5D-D93A2EDA2DC0";
paths = (
{
closed = 1;
nodes = (
"478 444 LINE",
"478 335 OFFCURVE",
"427 269 OFFCURVE",
"318 269 CURVE SMOOTH",
"201 269 OFFCURVE",
"158 345 OFFCURVE",
"158 460 CURVE SMOOTH",
"158 680 LINE",
"478 680 OFFCURVE",
"542 680 OFFCURVE",
"542 680 CURVE",
"542 740 LINE",
"-40 740 LINE",
"-40 680 LINE",
"93 680 LINE",
"93 456 LINE SMOOTH",
"93 311 OFFCURVE",
"159 209 OFFCURVE",
"318 209 CURVE SMOOTH",
"456 209 OFFCURVE",
"540 301 OFFCURVE",
"540 444 CURVE"
);
}
);
width = 379;
},
{
layerId = "22D14058-393A-410A-BECB-F56B411A01B2";
paths = (
{
closed = 1;
nodes = (
"453 422 LINE",
"453 352 OFFCURVE",
"431 305 OFFCURVE",
"352 305 CURVE",
"272 305 OFFCURVE",
"245 352 OFFCURVE",
"245 422 CURVE SMOOTH",
"245 600 LINE",
"613 600 LINE",
"613 740 LINE",
"-20 740 LINE",
"-20 600 LINE",
"80 600 LINE",
"80 426 LINE SMOOTH",
"80 261 OFFCURVE",
"182 166 OFFCURVE",
"352 166 CURVE SMOOTH",
"521 166 OFFCURVE",
"613 257 OFFCURVE",
"613 422 CURVE"
);
}
);
width = 369;
}
);
},
{
glyphname = dvPH;
lastChange = "2016-08-13 07:58:21 +0000";
layers = (
{
layerId = "C0ED9D5D-A651-429A-8F5D-D93A2EDA2DC0";
paths = (
{
closed = 1;
nodes = (
"466 0 LINE",
"531 0 LINE",
"531 680 LINE",
"531 680 OFFCURVE",
"925 680 OFFCURVE",
"925 680 CURVE",
"925 740 LINE",
"-40 740 LINE",
"-40 680 LINE",
"101 680 LINE",
"101 490 LINE SMOOTH",
"101 350 OFFCURVE",
"166 246 OFFCURVE",
"305 246 CURVE SMOOTH",
"427 246 OFFCURVE",
"484 333 OFFCURVE",
"491 404 CURVE",
"466 488 LINE",
"466 391 OFFCURVE",
"413 306 OFFCURVE",
"319 306 CURVE SMOOTH",
"203 306 OFFCURVE",
"166 375 OFFCURVE",
"166 491 CURVE SMOOTH",
"166 680 LINE",
"466 680 LINE"
);
},
{
closed = 1;
nodes = (
"926 321 LINE",
"926 453 OFFCURVE",
"840 543 OFFCURVE",
"710 543 CURVE SMOOTH",
"549 543 OFFCURVE",
"489 419 OFFCURVE",
"500 305 CURVE",
"531 294 LINE",
"531 402 OFFCURVE",
"592 483 OFFCURVE",
"700 483 CURVE SMOOTH",
"804 483 OFFCURVE",
"861 425 OFFCURVE",
"861 321 CURVE"
);
}
);
width = 769;
},
{
layerId = "22D14058-393A-410A-BECB-F56B411A01B2";
paths = (
{
closed = 1;
nodes = (
"430 0 LINE",
"595 0 LINE",
"595 600 LINE",
"992 600 LINE",
"992 740 LINE",
"-20 740 LINE",
"-20 600 LINE",
"77 600 LINE",
"77 450 LINE SMOOTH",
"77 304 OFFCURVE",
"145 186 OFFCURVE",
"293 186 CURVE SMOOTH",
"424 186 OFFCURVE",
"466 276 OFFCURVE",
"471 374 CURVE",
"430 453 LINE",
"430 375 OFFCURVE",
"405 325 OFFCURVE",
"338 325 CURVE SMOOTH",
"259 325 OFFCURVE",
"242 376 OFFCURVE",
"242 446 CURVE SMOOTH",
"242 600 LINE",
"430 600 LINE"
);
},
{
closed = 1;
nodes = (
"932 302 LINE",
"934 432 OFFCURVE",
"861 531 OFFCURVE",
"730 531 CURVE SMOOTH",
"597 531 OFFCURVE",
"538 430 OFFCURVE",
"562 309 CURVE",
"595 287 LINE",
"595 345 OFFCURVE",
"631 390 OFFCURVE",
"690 390 CURVE SMOOTH",
"747 390 OFFCURVE",
"783 354 OFFCURVE",
"783 302 CURVE"
);
}
);
width = 683;
}
);
},
{
glyphname = dvB;
lastChange = "2016-08-13 07:58:21 +0000";
layers = (
{
layerId = "C0ED9D5D-A651-429A-8F5D-D93A2EDA2DC0";
paths = (
{
closed = 1;
nodes = (
"585 680 LINE",
"585 740 LINE",
"-40 740 LINE",
"-40 680 LINE"
);
},
{
closed = 1;
nodes = (
"127 339 CURVE SMOOTH",
"127 455 OFFCURVE",
"208 524 OFFCURVE",
"324 524 CURVE",
"440 524 OFFCURVE",
"521 455 OFFCURVE",
"521 339 CURVE SMOOTH",
"521 223 OFFCURVE",
"440 154 OFFCURVE",
"324 154 CURVE SMOOTH",
"208 154 OFFCURVE",
"127 223 OFFCURVE"
);
},
{
closed = 1;
nodes = (
"484 182 LINE",
"522 220 LINE",
"158 513 LINE",
"137 462 LINE"
);
},
{
closed = 1;
nodes = (
"62 339 CURVE SMOOTH",
"62 188 OFFCURVE",
"175 94 OFFCURVE",
"324 94 CURVE",
"473 94 OFFCURVE",
"586 188 OFFCURVE",
"586 339 CURVE SMOOTH",
"586 490 OFFCURVE",
"473 584 OFFCURVE",
"324 584 CURVE SMOOTH",
"175 584 OFFCURVE",
"62 490 OFFCURVE"
);
}
);
width = 428;
},
{
layerId = "22D14058-393A-410A-BECB-F56B411A01B2";
paths = (
{
closed = 1;
nodes = (
"591 600 LINE",
"591 740 LINE",
"-20 740 LINE",
"-20 600 LINE"
);
},
{
closed = 1;
nodes = (
"177 303 CURVE SMOOTH",
"177 379 OFFCURVE",
"236 431 OFFCURVE",
"312 431 CURVE SMOOTH",
"388 431 OFFCURVE",
"447 379 OFFCURVE",
"447 303 CURVE SMOOTH",
"447 223 OFFCURVE",
"388 175 OFFCURVE",
"312 175 CURVE",
"236 175 OFFCURVE",
"177 223 OFFCURVE"
);
},
{
closed = 1;
nodes = (
"414 183 LINE",
"500 234 LINE",
"164 459 LINE",
"104 390 LINE"
);
},
{
closed = 1;
nodes = (
"35 303 CURVE SMOOTH",
"35 145 OFFCURVE",
"155 54 OFFCURVE",
"312 54 CURVE SMOOTH",
"467 54 OFFCURVE",
"589 145 OFFCURVE",
"589 303 CURVE SMOOTH",
"589 460 OFFCURVE",
"466 552 OFFCURVE",
"313 552 CURVE",
"158 552 OFFCURVE",
"35 462 OFFCURVE"
);
}
);
width = 359;
}
);
},
{
glyphname = dvBH;
lastChange = "2016-08-13 07:58:21 +0000";
layers = (
{
layerId = "C0ED9D5D-A651-429A-8F5D-D93A2EDA2DC0";
paths = (
{
closed = 1;
nodes = (
"383 326 LINE",
"383 228 OFFCURVE",
"362 169 OFFCURVE",
"274 169 CURVE SMOOTH",
"209 169 OFFCURVE",
"162 214 OFFCURVE",
"162 278 CURVE SMOOTH",
"162 369 OFFCURVE",
"227 390 OFFCURVE",
"321 390 CURVE SMOOTH",
"663 390 LINE",
"663 448 LINE",
"328 448 LINE SMOOTH",
"172 448 OFFCURVE",
"97 395 OFFCURVE",
"97 280 CURVE SMOOTH",
"97 180 OFFCURVE",
"176 110 OFFCURVE",
"275 110 CURVE SMOOTH",
"394 110 OFFCURVE",
"447 185 OFFCURVE",
"447 326 CURVE SMOOTH",
"447 541 LINE SMOOTH",
"447 666 OFFCURVE",
"399 745 OFFCURVE",
"284 745 CURVE SMOOTH",
"168 745 OFFCURVE",
"122 665 OFFCURVE",
"122 536 CURVE",
"185 536 LINE",
"185 627 OFFCURVE",
"205 685 OFFCURVE",
"283 685 CURVE SMOOTH",
"362 685 OFFCURVE",
"383 625 OFFCURVE",
"383 541 CURVE"
);
}
);
width = 522;
},
{
layerId = "22D14058-393A-410A-BECB-F56B411A01B2";
paths = (
{
closed = 1;
nodes = (
"355 286 LINE",
"355 233 OFFCURVE",
"340 196 OFFCURVE",
"290 196 CURVE SMOOTH",
"250 196 OFFCURVE",
"220 220 OFFCURVE",
"220 261 CURVE SMOOTH",
"220 312 OFFCURVE",
"262 332 OFFCURVE",
"313 332 CURVE SMOOTH",
"785 332 LINE",
"785 466 LINE",
"311 466 LINE SMOOTH",
"170 466 OFFCURVE",
"68 407 OFFCURVE",
"68 266 CURVE SMOOTH",
"68 139 OFFCURVE",
"168 58 OFFCURVE",
"294 58 CURVE SMOOTH",
"439 58 OFFCURVE",
"509 148 OFFCURVE",
"509 292 CURVE SMOOTH",
"509 509 LINE SMOOTH",
"509 654 OFFCURVE",
"458 750 OFFCURVE",
"307 750 CURVE SMOOTH",
"149 750 OFFCURVE",
"99 652 OFFCURVE",
"101 512 CURVE",
"265 512 LINE",
"265 557 OFFCURVE",
"265 608 OFFCURVE",
"310 608 CURVE SMOOTH",
"355 608 OFFCURVE",
"355 557 OFFCURVE",
"355 512 CURVE SMOOTH"
);
}
);
width = 577;
}
);
},
{
glyphname = dvM;
lastChange = "2016-08-13 07:58:21 +0000";
layers = (
{
layerId = "C0ED9D5D-A651-429A-8F5D-D93A2EDA2DC0";
paths = (
{
closed = 1;
nodes = (
"661 680 LINE",
"661 740 LINE",
"-40 740 LINE",
"-40 680 LINE"
);
},
{
closed = 1;
nodes = (
"336 329 LINE",
"336 231 OFFCURVE",
"315 172 OFFCURVE",
"227 172 CURVE SMOOTH",
"162 172 OFFCURVE",
"115 217 OFFCURVE",
"115 281 CURVE SMOOTH",
"115 372 OFFCURVE",
"180 393 OFFCURVE",
"274 393 CURVE SMOOTH",
"661 393 LINE",
"661 451 LINE",
"281 451 LINE SMOOTH",
"125 451 OFFCURVE",
"50 398 OFFCURVE",
"50 283 CURVE SMOOTH",
"50 183 OFFCURVE",
"129 113 OFFCURVE",
"228 113 CURVE SMOOTH",
"347 113 OFFCURVE",
"400 188 OFFCURVE",
"400 329 CURVE SMOOTH",
"400 707 LINE",
"400 707 OFFCURVE",
"336 707 OFFCURVE",
"336 707 CURVE"
);
}
);
width = 508;
},
{
layerId = "22D14058-393A-410A-BECB-F56B411A01B2";
paths = (
{
closed = 1;
nodes = (
"752 600 LINE",
"752 740 LINE",
"-20 740 LINE",
"-20 600 LINE"
);
},
{
closed = 1;
nodes = (
"342 286 LINE",
"342 233 OFFCURVE",
"327 196 OFFCURVE",
"277 196 CURVE SMOOTH",
"237 196 OFFCURVE",
"207 220 OFFCURVE",
"207 261 CURVE SMOOTH",
"207 312 OFFCURVE",
"249 332 OFFCURVE",
"300 332 CURVE SMOOTH",
"752 332 LINE",
"752 466 LINE",
"298 466 LINE SMOOTH",
"157 466 OFFCURVE",
"55 407 OFFCURVE",
"55 266 CURVE SMOOTH",
"55 139 OFFCURVE",
"155 58 OFFCURVE",
"281 58 CURVE SMOOTH",
"426 58 OFFCURVE",
"496 148 OFFCURVE",
"496 292 CURVE SMOOTH",
"496 652 LINE",
"496 652 OFFCURVE",
"342 652 OFFCURVE",
"342 652 CURVE"
);
}
);
width = 554;
}
);
},
{
glyphname = dvY;
lastChange = "2016-08-13 07:58:21 +0000";
layers = (
{
layerId = "C0ED9D5D-A651-429A-8F5D-D93A2EDA2DC0";
paths = (
{
closed = 1;
nodes = (
"272 690 LINE",
"272 645 LINE SMOOTH",
"272 501 OFFCURVE",
"271 450 OFFCURVE",
"71 450 CURVE",
"62 245 OFFCURVE",
"155 114 OFFCURVE",
"350 114 CURVE SMOOTH",
"524 114 OFFCURVE",
"615 235 OFFCURVE",
"615 409 CURVE",
"553 409 LINE",
"553 262 OFFCURVE",
"485 174 OFFCURVE",
"350 174 CURVE SMOOTH",
"212 174 OFFCURVE",
"138 266 OFFCURVE",
"140 395 CURVE",
"316 404 OFFCURVE",
"337 490 OFFCURVE",
"337 644 CURVE SMOOTH",
"337 698 LINE"
);
},
{
closed = 1;
nodes = (
"616 680 CURVE",
"616 740 LINE",
"-40 740 LINE",
"-40 680 LINE",
"553 680 OFFCURVE",
"616 680 OFFCURVE"
);
}
);
width = 457;
},
{
layerId = "22D14058-393A-410A-BECB-F56B411A01B2";
paths = (
{
closed = 1;
nodes = (
"216 611 LINE",
"216 584 LINE SMOOTH",
"216 494 OFFCURVE",
"208 438 OFFCURVE",
"61 438 CURVE",
"47 222 OFFCURVE",
"147 78 OFFCURVE",
"372 78 CURVE SMOOTH",
"523 78 OFFCURVE",
"677 145 OFFCURVE",
"673 371 CURVE",
"515 371 LINE",
"515 279 OFFCURVE",
"474 218 OFFCURVE",
"372 218 CURVE SMOOTH",
"276 218 OFFCURVE",
"230 271 OFFCURVE",
"231 351 CURVE",
"352 367 OFFCURVE",
"377 434 OFFCURVE",
"377 577 CURVE SMOOTH",
"377 611 LINE"
);
},
{
closed = 1;
nodes = (
"673 600 LINE",
"673 740 LINE",
"-20 740 LINE",
"-20 600 LINE"
);
}
);
width = 431;
}
);
},
{
glyphname = dvL;
lastChange = "2016-08-13 07:58:21 +0000";
layers = (
{
layerId = "C0ED9D5D-A651-429A-8F5D-D93A2EDA2DC0";
paths = (
{
closed = 1;
nodes = (
"827 680 LINE",
"827 740 LINE",
"-40 740 LINE",
"-40 680 LINE"
);
},
{
closed = 1;
nodes = (
"828 271 LINE",
"828 396 OFFCURVE",
"783 511 OFFCURVE",
"629 511 CURVE",
"537 511 OFFCURVE",
"478 459 OFFCURVE",
"458 385 CURVE",
"436 466 OFFCURVE",
"371 511 OFFCURVE",
"285 511 CURVE SMOOTH",
"143 511 OFFCURVE",
"87 414 OFFCURVE",
"87 271 CURVE SMOOTH",
"87 108 OFFCURVE",
"190 5 OFFCURVE",
"351 21 CURVE",
"351 81 LINE",
"214 72 OFFCURVE",
"152 153 OFFCURVE",
"152 272 CURVE SMOOTH",
"152 374 OFFCURVE",
"184 451 OFFCURVE",
"285 451 CURVE SMOOTH",
"396 451 OFFCURVE",
"430 357 OFFCURVE",
"426 231 CURVE",
"490 231 LINE",
"486 357 OFFCURVE",
"519 451 OFFCURVE",
"630 451 CURVE SMOOTH",
"731 451 OFFCURVE",
"763 375 OFFCURVE",
"763 271 CURVE"
);
}
);
width = 707;
},
{
layerId = "22D14058-393A-410A-BECB-F56B411A01B2";
paths = (
{
closed = 1;
nodes = (
"874 600 LINE",
"874 740 LINE",
"-20 740 LINE",
"-20 600 LINE"
);
},
{
closed = 1;
nodes = (
"873 270 LINE",
"873 436 OFFCURVE",
"772 515 OFFCURVE",
"646 515 CURVE SMOOTH",
"558 515 OFFCURVE",
"498 477 OFFCURVE",
"469 415 CURVE",
"438 477 OFFCURVE",
"378 515 OFFCURVE",
"290 515 CURVE SMOOTH",
"164 515 OFFCURVE",
"63 435 OFFCURVE",
"63 269 CURVE SMOOTH",
"63 101 OFFCURVE",
"176 -1 OFFCURVE",
"370 13 CURVE",
"370 155 LINE",
"287 150 OFFCURVE",
"228 178 OFFCURVE",
"228 270 CURVE SMOOTH",
"228 330 OFFCURVE",
"254 371 OFFCURVE",
"312 371 CURVE SMOOTH",
"399 371 OFFCURVE",
"400 280 OFFCURVE",
"392 206 CURVE",
"542 206 LINE",
"533 280 OFFCURVE",
"537 371 OFFCURVE",
"624 371 CURVE SMOOTH",
"681 371 OFFCURVE",
"708 330 OFFCURVE",
"708 270 CURVE"
);
}
);
width = 669;
}
);
},
{
glyphname = dvLL;
lastChange = "2016-08-13 07:58:21 +0000";
layers = (
{
layerId = "C0ED9D5D-A651-429A-8F5D-D93A2EDA2DC0";
paths = (
{
closed = 1;
nodes = (
"982 680 LINE",
"982 740 LINE",
"-40 740 LINE",
"-40 680 LINE"
);
},
{
closed = 1;
nodes = (
"480 398 CURVE",
"444 478 OFFCURVE",
"372 522 OFFCURVE",
"284 522 CURVE SMOOTH",
"151 522 OFFCURVE",
"51 429 OFFCURVE",
"51 294 CURVE SMOOTH",
"51 160 OFFCURVE",
"149 67 OFFCURVE",
"284 67 CURVE SMOOTH",
"372 67 OFFCURVE",
"443 110 OFFCURVE",
"480 190 CURVE",
"514 112 OFFCURVE",
"591 67 OFFCURVE",
"677 67 CURVE SMOOTH",
"812 67 OFFCURVE",
"910 160 OFFCURVE",
"910 294 CURVE SMOOTH",
"910 429 OFFCURVE",
"810 522 OFFCURVE",
"677 522 CURVE SMOOTH",
"591 522 OFFCURVE",
"513 477 OFFCURVE"
);
},
{
closed = 1;
nodes = (
"677 461 CURVE SMOOTH",
"777 461 OFFCURVE",
"845 395 OFFCURVE",
"845 294 CURVE SMOOTH",
"845 194 OFFCURVE",
"779 128 OFFCURVE",
"677 128 CURVE SMOOTH",
"579 128 OFFCURVE",
"514 197 OFFCURVE",
"514 294 CURVE SMOOTH",
"514 392 OFFCURVE",
"579 461 OFFCURVE"
);
},
{
closed = 1;
nodes = (
"284 128 CURVE SMOOTH",
"184 128 OFFCURVE",
"116 195 OFFCURVE",
"116 294 CURVE SMOOTH",
"116 395 OFFCURVE",
"184 461 OFFCURVE",
"284 461 CURVE SMOOTH",
"384 461 OFFCURVE",
"447 392 OFFCURVE",
"447 294 CURVE SMOOTH",
"447 197 OFFCURVE",
"384 128 OFFCURVE"
);
}
);
width = 942;
},
{
layerId = "22D14058-393A-410A-BECB-F56B411A01B2";
paths = (
{
closed = 1;
nodes = (
"947 600 LINE",
"947 740 LINE",
"-20 740 LINE",
"-20 600 LINE"
);
},
{
closed = 1;
nodes = (
"476 388 CURVE",
"437 472 OFFCURVE",
"351 498 OFFCURVE",
"282 498 CURVE SMOOTH",
"149 498 OFFCURVE",
"48 407 OFFCURVE",
"48 264 CURVE SMOOTH",
"48 121 OFFCURVE",
"149 30 OFFCURVE",
"282 30 CURVE SMOOTH",
"350 30 OFFCURVE",
"443 59 OFFCURVE",
"475 139 CURVE",
"512 64 OFFCURVE",
"592 30 OFFCURVE",
"670 30 CURVE SMOOTH",
"803 30 OFFCURVE",
"903 122 OFFCURVE",
"903 264 CURVE SMOOTH",
"903 407 OFFCURVE",
"803 498 OFFCURVE",
"670 498 CURVE SMOOTH",
"601 498 OFFCURVE",
"519 478 OFFCURVE"
);
},
{
closed = 1;
nodes = (
"650 358 CURVE SMOOTH",
"706 358 OFFCURVE",
"744 320 OFFCURVE",
"744 264 CURVE SMOOTH",
"744 208 OFFCURVE",
"706 170 OFFCURVE",
"650 170 CURVE SMOOTH",
"594 170 OFFCURVE",
"556 207 OFFCURVE",
"556 264 CURVE SMOOTH",
"556 318 OFFCURVE",
"593 358 OFFCURVE"
);
},
{
closed = 1;
nodes = (
"302 170 CURVE SMOOTH",
"246 170 OFFCURVE",
"208 207 OFFCURVE",
"208 264 CURVE SMOOTH",
"208 320 OFFCURVE",
"245 358 OFFCURVE",
"302 358 CURVE SMOOTH",
"358 358 OFFCURVE",
"395 319 OFFCURVE",
"396 264 CURVE",
"396 208 OFFCURVE",
"358 170 OFFCURVE"
);
}
);
width = 927;
}
);
},
{
glyphname = dvV;
lastChange = "2016-08-13 07:58:21 +0000";
layers = (
{
layerId = "C0ED9D5D-A651-429A-8F5D-D93A2EDA2DC0";
paths = (
{
closed = 1;
nodes = (
"547 680 LINE",
"547 740 LINE",
"-40 740 LINE",
"-40 680 LINE"
);
},
{
closed = 1;
nodes = (
"59 339 CURVE SMOOTH",
"59 195 OFFCURVE",
"160 103 OFFCURVE",
"303 103 CURVE",
"446 103 OFFCURVE",
"547 195 OFFCURVE",
"547 339 CURVE SMOOTH",
"547 483 OFFCURVE",
"446 575 OFFCURVE",
"303 575 CURVE SMOOTH",
"160 575 OFFCURVE",
"59 483 OFFCURVE"
);
},
{
closed = 1;
nodes = (
"124 339 CURVE SMOOTH",
"124 448 OFFCURVE",
"194 515 OFFCURVE",
"303 515 CURVE",
"412 515 OFFCURVE",
"482 448 OFFCURVE",
"482 339 CURVE SMOOTH",
"482 230 OFFCURVE",
"412 163 OFFCURVE",
"303 163 CURVE SMOOTH",
"194 163 OFFCURVE",
"124 230 OFFCURVE"
);
}
);
width = 390;
},
{
layerId = "22D14058-393A-410A-BECB-F56B411A01B2";
paths = (
{
closed = 1;
nodes = (
"580 600 LINE",
"580 740 LINE",
"-20 740 LINE",
"-20 600 LINE"
);
},
{
closed = 1;
nodes = (
"37 303 CURVE SMOOTH",
"37 145 OFFCURVE",
"157 59 OFFCURVE",
"308 59 CURVE",
"458 59 OFFCURVE",
"578 145 OFFCURVE",
"578 303 CURVE SMOOTH",
"578 461 OFFCURVE",
"458 547 OFFCURVE",
"308 547 CURVE",
"158 547 OFFCURVE",
"37 461 OFFCURVE"
);
},
{
closed = 1;
nodes = (
"197 303 CURVE",
"197 366 OFFCURVE",
"240 411 OFFCURVE",
"307 411 CURVE SMOOTH",
"375 411 OFFCURVE",
"418 366 OFFCURVE",
"418 303 CURVE SMOOTH",
"418 240 OFFCURVE",
"375 195 OFFCURVE",
"307 195 CURVE",
"240 195 OFFCURVE",
"197 240 OFFCURVE"
);
}
);
width = 335;
}
);
},
{
glyphname = dvSH;
lastChange = "2016-08-13 07:58:21 +0000";
layers = (
{
layerId = "C0ED9D5D-A651-429A-8F5D-D93A2EDA2DC0";
paths = (
{
closed = 1;
nodes = (
"117 515 CURVE",
"181 515 LINE",
"178 612 OFFCURVE",
"219 690 OFFCURVE",
"324 690 CURVE SMOOTH",
"407 690 OFFCURVE",
"459 640 OFFCURVE",
"459 552 CURVE SMOOTH",
"459 414 OFFCURVE",
"359 398 OFFCURVE",
"232 398 CURVE",
"119 398 LINE",
"119 197 LINE",
"119 68 OFFCURVE",
"198 -1 OFFCURVE",
"315 -1 CURVE SMOOTH",
"461 -1 OFFCURVE",
"508 100 OFFCURVE",
"511 220 CURVE",
"445 220 LINE",
"443 121 OFFCURVE",
"412 59 OFFCURVE",
"315 59 CURVE SMOOTH",
"235 59 OFFCURVE",
"185 105 OFFCURVE",
"185 197 CURVE",
"185 342 LINE",
"207 341 OFFCURVE",
"229 340 OFFCURVE",
"250 340 CURVE SMOOTH",
"400 340 OFFCURVE",
"524 378 OFFCURVE",
"524 553 CURVE SMOOTH",
"524 664 OFFCURVE",
"446 750 OFFCURVE",
"323 750 CURVE SMOOTH",
"182 750 OFFCURVE",
"111 642 OFFCURVE"
);
}
);
width = 562;
},
{
layerId = "22D14058-393A-410A-BECB-F56B411A01B2";
paths = (
{
closed = 1;
nodes = (
"80 514 CURVE",
"244 514 LINE",
"242 563 OFFCURVE",
"259 607 OFFCURVE",
"311 607 CURVE SMOOTH",
"356 607 OFFCURVE",
"376 576 OFFCURVE",
"376 531 CURVE SMOOTH",
"376 433 OFFCURVE",
"275 420 OFFCURVE",
"175 420 CURVE SMOOTH",
"68 420 LINE",
"68 222 LINE SMOOTH",
"68 80 OFFCURVE",
"161 -4 OFFCURVE",
"306 -4 CURVE SMOOTH",
"457 -4 OFFCURVE",
"531 76 OFFCURVE",
"530 229 CURVE",
"370 229 LINE",
"372 171 OFFCURVE",
"355 136 OFFCURVE",
"303 136 CURVE SMOOTH",
"255 136 OFFCURVE",
"234 167 OFFCURVE",
"234 214 CURVE SMOOTH",
"234 288 LINE",
"248 288 OFFCURVE",
"262 288 OFFCURVE",
"275 289 CURVE SMOOTH",
"451 300 OFFCURVE",
"541 381 OFFCURVE",
"541 532 CURVE SMOOTH",
"541 671 OFFCURVE",
"447 747 OFFCURVE",
"309 747 CURVE SMOOTH",
"143 747 OFFCURVE",
"75 636 OFFCURVE"
);
}
);
width = 531;
}
);
},
{
glyphname = dvSS;
lastChange = "2016-08-13 07:58:21 +0000";
layers = (
{
layerId = "C0ED9D5D-A651-429A-8F5D-D93A2EDA2DC0";
paths = (
{
closed = 1;
nodes = (
"516 680 CURVE",
"516 740 LINE",
"-40 740 LINE",
"-40 680 LINE",
"93 680 LINE",
"93 456 LINE SMOOTH",
"93 308 OFFCURVE",
"172 209 OFFCURVE",
"322 209 CURVE SMOOTH",
"449 209 OFFCURVE",
"515 293 OFFCURVE",
"515 381 CURVE",
"457 381 LINE",
"457 323 OFFCURVE",
"413 269 OFFCURVE",
"322 269 CURVE SMOOTH",
"207 269 OFFCURVE",
"158 343 OFFCURVE",
"158 460 CURVE SMOOTH",
"158 680 LINE",
"478 680 OFFCURVE",
"516 680 OFFCURVE"
);
},
{
closed = 1;
nodes = (
"477 346 LINE",
"515 381 LINE",
"136 692 LINE",
"116 643 LINE"
);
}
);
width = 384;
},
{
layerId = "22D14058-393A-410A-BECB-F56B411A01B2";
paths = (
{
closed = 1;
nodes = (
"604 600 LINE",
"604 740 LINE",
"-20 740 LINE",
"-20 600 LINE",
"78 600 LINE",
"78 402 LINE SMOOTH",
"78 236 OFFCURVE",
"189 146 OFFCURVE",
"349 146 CURVE SMOOTH",
"492 146 OFFCURVE",
"602 224 OFFCURVE",
"603 373 CURVE",
"453 373 LINE",
"453 318 OFFCURVE",
"408 285 OFFCURVE",
"349 285 CURVE SMOOTH",
"270 285 OFFCURVE",
"243 334 OFFCURVE",
"243 404 CURVE SMOOTH",
"243 600 LINE"
);
},
{
closed = 1;
nodes = (
"484 326 LINE",
"603 373 LINE",
"227 610 LINE",
"160 534 LINE"
);
}
);
width = 393;
}
);
},
{
glyphname = dvS;
lastChange = "2016-08-13 07:58:21 +0000";
layers = (
{
layerId = "C0ED9D5D-A651-429A-8F5D-D93A2EDA2DC0";
paths = (
{
closed = 1;
nodes = (
"394 230 LINE",
"395 121 OFFCURVE",
"364 59 OFFCURVE",
"274 59 CURVE SMOOTH",
"184 59 OFFCURVE",
"154 123 OFFCURVE",
"154 213 CURVE SMOOTH",
"154 387 LINE",
"161 387 OFFCURVE",
"167 387 OFFCURVE",
"174 387 CURVE SMOOTH",
"383 390 OFFCURVE",
"417 439 OFFCURVE",
"419 706 CURVE SMOOTH",
"419 714 OFFCURVE",
"419 723 OFFCURVE",
"419 731 CURVE",
"355 731 LINE",
"355 727 OFFCURVE",
"355 723 OFFCURVE",
"355 719 CURVE SMOOTH",
"355 479 OFFCURVE",
"353 424 OFFCURVE",
"133 424 CURVE SMOOTH",
"119 424 OFFCURVE",
"104 425 OFFCURVE",
"88 425 CURVE",
"88 213 LINE",
"88 89 OFFCURVE",
"148 -1 OFFCURVE",
"274 -1 CURVE SMOOTH",
"400 -1 OFFCURVE",
"465 90 OFFCURVE",
"460 230 CURVE"
);
},
{
closed = 1;
nodes = (
"676 680 LINE",
"676 740 LINE",
"-40 740 LINE",
"-40 680 LINE"
);
},
{
closed = 1;
nodes = (
"676 369 CURVE",
"676 424 LINE",
"170 424 LINE",
"146 369 LINE",
"146 369 OFFCURVE",
"676 369 OFFCURVE"
);
}
);
width = 523;
},
{
layerId = "22D14058-393A-410A-BECB-F56B411A01B2";
paths = (
{
closed = 1;
nodes = (
"345 218 LINE",
"344 177 OFFCURVE",
"338 136 OFFCURVE",
"287 136 CURVE SMOOTH",
"246 136 OFFCURVE",
"229 161 OFFCURVE",
"229 202 CURVE SMOOTH",
"229 289 LINE",
"231 289 LINE SMOOTH",
"365 289 OFFCURVE",
"436 368 OFFCURVE",
"436 538 CURVE SMOOTH",
"436 600 LINE",
"436 600 OFFCURVE",
"271 600 OFFCURVE",
"271 600 CURVE",
"271 548 LINE SMOOTH",
"271 448 OFFCURVE",
"255 401 OFFCURVE",
"144 401 CURVE SMOOTH",
"63 401 LINE",
"63 210 LINE SMOOTH",
"63 77 OFFCURVE",
"147 -4 OFFCURVE",
"291 -4 CURVE SMOOTH",
"453 -4 OFFCURVE",
"500 78 OFFCURVE",
"505 218 CURVE"
);
},
{
closed = 1;
nodes = (
"678 600 LINE",
"678 740 LINE",
"-20 740 LINE",
"-20 600 LINE"
);
},
{
closed = 1;
nodes = (
"678 289 LINE",
"678 425 LINE",
"286 425 LINE",
"221 289 LINE"
);
}
);
width = 500;
}
);
},
{
glyphname = dvJ_NY;
lastChange = "2016-08-13 07:58:21 +0000";
layers = (
{
layerId = "C0ED9D5D-A651-429A-8F5D-D93A2EDA2DC0";
paths = (
{
closed = 1;
nodes = (
"716 680 CURVE",
"716 740 LINE",
"-10 740 LINE",
"-10 680 LINE",
"636 680 OFFCURVE",
"716 680 OFFCURVE"
);
},
{
closed = 1;
nodes = (
"716 532 LINE",
"284 532 LINE",
"284 474 LINE",
"716 474 LINE"
);
},
{
closed = 1;
nodes = (
"145 287 CURVE",
"80 287 LINE",
"80 -21 LINE",
"145 -21 LINE",
"145 166 LINE",
"178 120 OFFCURVE",
"234 92 OFFCURVE",
"309 92 CURVE SMOOTH",
"437 92 OFFCURVE",
"512 191 OFFCURVE",
"512 306 CURVE SMOOTH",
"512 408 OFFCURVE",
"443 497 OFFCURVE",
"327 492 CURVE",
"284 474 LINE",
"374 473 OFFCURVE",
"447 420 OFFCURVE",
"447 307 CURVE SMOOTH",
"447 212 OFFCURVE",
"394 152 OFFCURVE",
"297 152 CURVE SMOOTH",
"217 152 OFFCURVE",
"145 208 OFFCURVE"
);
}
);
width = 576;
},
{
layerId = "22D14058-393A-410A-BECB-F56B411A01B2";
paths = (
{
closed = 1;
nodes = (
"683 600 LINE",
"683 740 LINE",
"-20 740 LINE",
"-20 600 LINE"
);
},
{
closed = 1;
nodes = (
"683 503 LINE",
"269 503 LINE",
"269 367 LINE",
"683 367 LINE"
);
},
{
closed = 1;
nodes = (
"193 287 CURVE",
"52 287 LINE",
"52 -11 LINE",
"208 -11 LINE",
"208 107 LINE",
"240 78 OFFCURVE",
"282 65 OFFCURVE",
"335 65 CURVE SMOOTH",
"454 65 OFFCURVE",
"513 147 OFFCURVE",
"513 245 CURVE SMOOTH",
"513 395 OFFCURVE",
"368 407 OFFCURVE",
"278 396 CURVE",
"269 367 LINE",
"328 366 OFFCURVE",
"365 341 OFFCURVE",
"365 285 CURVE SMOOTH",
"365 241 OFFCURVE",
"338 205 OFFCURVE",
"284 205 CURVE SMOOTH",
"229 205 OFFCURVE",
"193 245 OFFCURVE"
);
}
);
width = 539;
}
);
},
{
glyphname = dvK_R;
lastChange = "2016-08-13 07:58:21 +0000";
layers = (
{
layerId = "C0ED9D5D-A651-429A-8F5D-D93A2EDA2DC0";
paths = (
{
closed = 1;
nodes = (
"313 114 CURVE SMOOTH",
"468 114 OFFCURVE",
"528 230 OFFCURVE",
"518 341 CURVE",
"487 339 LINE",
"487 236 OFFCURVE",
"431 169 OFFCURVE",
"323 169 CURVE SMOOTH",
"216 169 OFFCURVE",
"153 230 OFFCURVE",
"153 339 CURVE SMOOTH",
"153 447 OFFCURVE",
"213 510 OFFCURVE",
"321 510 CURVE SMOOTH",
"426 510 OFFCURVE",
"487 447 OFFCURVE",
"487 339 CURVE",
"518 342 LINE",
"528 455 OFFCURVE",
"466 570 OFFCURVE",
"313 570 CURVE SMOOTH",
"178 570 OFFCURVE",
"88 476 OFFCURVE",
"88 339 CURVE SMOOTH",
"88 202 OFFCURVE",
"180 114 OFFCURVE"
);
},
{
closed = 1;
nodes = (
"941 339 LINE",
"941 476 OFFCURVE",
"856 571 OFFCURVE",
"719 571 CURVE SMOOTH",
"568 571 OFFCURVE",
"511 450 OFFCURVE",
"524 325 CURVE",
"552 319 LINE",
"552 438 OFFCURVE",
"603 511 OFFCURVE",
"709 511 CURVE SMOOTH",
"818 511 OFFCURVE",
"877 446 OFFCURVE",
"877 339 CURVE"
);
},
{
closed = 1;
nodes = (
"199 -29 LINE",
"199 -29 OFFCURVE",
"282 -29 OFFCURVE",
"282 -29 CURVE",
"546 258 LINE",
"546 258 OFFCURVE",
"403 174 OFFCURVE",
"403 174 CURVE"
);
},
{
closed = 1;
nodes = (
"943 740 LINE",
"-40 740 LINE",
"-40 680 LINE",
"487 680 LINE",
"487 0 LINE",
"552 0 LINE",
"552 340 OFFCURVE",
"552 680 OFFCURVE",
"552 680 CURVE",
"943 680 LINE"
);
}
);
width = 789;
},
{
layerId = "22D14058-393A-410A-BECB-F56B411A01B2";
paths = (
{
closed = 1;
nodes = (
"305 86 CURVE SMOOTH",
"434 86 OFFCURVE",
"481 193 OFFCURVE",
"464 308 CURVE",
"433 309 LINE",
"433 251 OFFCURVE",
"394 214 OFFCURVE",
"335 214 CURVE SMOOTH",
"274 214 OFFCURVE",
"239 251 OFFCURVE",
"239 308 CURVE SMOOTH",
"239 365 OFFCURVE",
"274 402 OFFCURVE",
"335 402 CURVE SMOOTH",
"394 402 OFFCURVE",
"433 366 OFFCURVE",
"433 308 CURVE",
"466 320 LINE",
"487 443 OFFCURVE",
"418 542 OFFCURVE",
"289 542 CURVE SMOOTH",
"151 542 OFFCURVE",
"74 433 OFFCURVE",
"74 308 CURVE SMOOTH",
"74 183 OFFCURVE",
"161 86 OFFCURVE"
);
},
{
closed = 1;
nodes = (
"930 308 LINE",
"930 433 OFFCURVE",
"862 542 OFFCURVE",
"724 542 CURVE SMOOTH",
"595 542 OFFCURVE",
"536 443 OFFCURVE",
"557 320 CURVE",
"590 299 LINE",
"590 360 OFFCURVE",
"622 402 OFFCURVE",
"678 402 CURVE SMOOTH",
"740 402 OFFCURVE",
"769 361 OFFCURVE",
"769 308 CURVE"
);
},
{
closed = 1;
nodes = (
"125 -46 CURVE",
"125 -46 OFFCURVE",
"293 -46 OFFCURVE",
"293 -46 CURVE",
"293 -46 OFFCURVE",
"449 166 OFFCURVE",
"449 166 CURVE",
"449 166 OFFCURVE",
"271 129 OFFCURVE",
"271 129 CURVE",
"260 113 OFFCURVE",
"125 -46 OFFCURVE"
);
},
{
closed = 1;
nodes = (
"930 740 LINE",
"-20 740 LINE",
"-20 600 LINE",
"433 600 LINE",
"433 0 LINE",
"590 0 LINE",
"590 600 LINE",
"930 600 LINE"
);
}
);
width = 672;
}
);
},
{
glyphname = dvKH_R;
lastChange = "2016-08-13 07:58:21 +0000";
layers = (
{
layerId = "C0ED9D5D-A651-429A-8F5D-D93A2EDA2DC0";
paths = (
{
closed = 1;
nodes = (
"810 680 LINE",
"810 740 LINE",
"-43 740 LINE",
"-43 680 LINE"
);
},
{
closed = 1;
nodes = (
"384 349 CURVE SMOOTH",
"384 221 OFFCURVE",
"470 145 OFFCURVE",
"597 145 CURVE",
"724 145 OFFCURVE",
"810 221 OFFCURVE",
"810 349 CURVE SMOOTH",
"810 477 OFFCURVE",
"724 553 OFFCURVE",
"597 553 CURVE SMOOTH",
"470 553 OFFCURVE",
"384 477 OFFCURVE"
);
},
{
closed = 1;
nodes = (
"449 349 CURVE SMOOTH",
"449 437 OFFCURVE",
"508 493 OFFCURVE",
"596 493 CURVE",
"686 493 OFFCURVE",
"745 437 OFFCURVE",
"745 349 CURVE SMOOTH",
"745 261 OFFCURVE",
"686 205 OFFCURVE",
"596 205 CURVE SMOOTH",
"508 205 OFFCURVE",
"449 261 OFFCURVE"
);
},
{
closed = 1;
nodes = (
"239 -79 LINE",
"239 -84 LINE",
"239 -84 OFFCURVE",
"322 -84 OFFCURVE",
"322 -84 CURVE",
"578 197 LINE",
"578 197 OFFCURVE",
"451 117 OFFCURVE",
"451 117 CURVE"
);
},
{
closed = 1;
nodes = (
"150 353 LINE",
"295 353 OFFCURVE",
"337 399 OFFCURVE",
"337 581 CURVE SMOOTH",
"337 687 LINE",
"273 690 LINE",
"273 582 LINE SMOOTH",
"273 416 OFFCURVE",
"253 407 OFFCURVE",
"122 407 CURVE SMOOTH",
"85 407 LINE",
"85 253 LINE SMOOTH",
"85 109 OFFCURVE",
"177 30 OFFCURVE",
"319 30 CURVE SMOOTH",
"446 30 OFFCURVE",
"524 116 OFFCURVE",
"532 214 CURVE",
"490 220 LINE",
"484 140 OFFCURVE",
"435 89 OFFCURVE",
"322 89 CURVE SMOOTH",
"208 89 OFFCURVE",
"150 138 OFFCURVE",
"150 255 CURVE SMOOTH"
);
}
);
width = 656;
},
{
layerId = "22D14058-393A-410A-BECB-F56B411A01B2";
paths = (
{
closed = 1;
nodes = (
"873 600 LINE",
"873 740 LINE",
"-20 740 LINE",
"-20 600 LINE"
);
},
{
closed = 1;
nodes = (
"419 323 CURVE SMOOTH",
"419 190 OFFCURVE",
"520 116 OFFCURVE",
"648 116 CURVE SMOOTH",
"776 116 OFFCURVE",
"875 190 OFFCURVE",
"875 323 CURVE SMOOTH",
"875 453 OFFCURVE",
"780 529 OFFCURVE",
"648 529 CURVE",
"516 529 OFFCURVE",
"419 453 OFFCURVE"
);
},
{
closed = 1;
nodes = (
"566 323 CURVE SMOOTH",
"566 373 OFFCURVE",
"598 403 OFFCURVE",
"648 403 CURVE SMOOTH",
"698 403 OFFCURVE",
"730 373 OFFCURVE",
"730 323 CURVE SMOOTH",
"730 272 OFFCURVE",
"698 243 OFFCURVE",
"648 243 CURVE",
"598 243 OFFCURVE",
"566 272 OFFCURVE"
);
},
{
closed = 1;
nodes = (
"208 -94 CURVE",
"208 -99 LINE",
"208 -99 OFFCURVE",
"376 -99 OFFCURVE",
"376 -99 CURVE",
"376 -99 OFFCURVE",
"625 205 OFFCURVE",
"625 205 CURVE",
"625 205 OFFCURVE",
"494 204 OFFCURVE",
"494 204 CURVE",
"484 189 OFFCURVE",
"243 -55 OFFCURVE"
);
},
{
closed = 1;
nodes = (
"237 297 LINE",
"382 317 OFFCURVE",
"408 391 OFFCURVE",
"408 592 CURVE SMOOTH",
"408 610 LINE",
"408 610 OFFCURVE",
"243 610 OFFCURVE",
"243 610 CURVE",
"243 591 LINE SMOOTH",
"243 440 OFFCURVE",
"219 410 OFFCURVE",
"91 407 CURVE SMOOTH",
"85 407 OFFCURVE",
"78 407 OFFCURVE",
"71 407 CURVE",
"71 309 LINE SMOOTH",
"71 116 OFFCURVE",
"179 38 OFFCURVE",
"348 38 CURVE SMOOTH",
"510 38 OFFCURVE",
"600 132 OFFCURVE",
"600 248 CURVE",
"491 246 LINE",
"479 192 OFFCURVE",
"450 166 OFFCURVE",
"363 166 CURVE SMOOTH",
"273 166 OFFCURVE",
"237 207 OFFCURVE",
"237 287 CURVE SMOOTH"
);
}
);
width = 636;
}
);
},
{
glyphname = dvK_RA;
lastChange = "2016-08-13 07:58:21 +0000";
layers = (
{
anchors = (
{
name = abvm.e;
position = "{552, 740}";
},
{
name = blwm.u;
position = "{552, -40}";
},
{
name = blwm.virama;
position = "{552, 0}";
}
);
layerId = "C0ED9D5D-A651-429A-8F5D-D93A2EDA2DC0";
paths = (
{
closed = 1;
nodes = (
"313 114 CURVE SMOOTH",
"468 114 OFFCURVE",
"528 230 OFFCURVE",
"518 341 CURVE",
"487 339 LINE",
"487 236 OFFCURVE",
"431 169 OFFCURVE",
"323 169 CURVE SMOOTH",
"216 169 OFFCURVE",
"153 230 OFFCURVE",
"153 339 CURVE",
"153 447 OFFCURVE",
"213 510 OFFCURVE",
"321 510 CURVE SMOOTH",
"426 510 OFFCURVE",
"487 447 OFFCURVE",
"487 339 CURVE",
"518 342 LINE",
"528 455 OFFCURVE",
"466 570 OFFCURVE",
"313 570 CURVE SMOOTH",
"178 570 OFFCURVE",
"88 476 OFFCURVE",
"88 339 CURVE",
"88 202 OFFCURVE",
"180 114 OFFCURVE"
);
},
{
closed = 1;
nodes = (
"666 114 LINE",
"827 100 OFFCURVE",
"942 189 OFFCURVE",
"942 339 CURVE SMOOTH",
"942 475 OFFCURVE",
"856 571 OFFCURVE",
"719 571 CURVE SMOOTH",
"568 571 OFFCURVE",
"511 450 OFFCURVE",
"524 325 CURVE",
"552 319 LINE",
"552 438 OFFCURVE",
"603 511 OFFCURVE",
"709 511 CURVE SMOOTH",
"818 511 OFFCURVE",
"877 446 OFFCURVE",
"877 339 CURVE SMOOTH",
"877 218 OFFCURVE",
"786 164 OFFCURVE",
"666 174 CURVE"
);
},
{
closed = 1;
nodes = (
"202 -27 LINE",
"202 -27 OFFCURVE",
"285 -27 OFFCURVE",
"285 -27 CURVE",
"546 258 LINE",
"546 258 OFFCURVE",
"403 174 OFFCURVE",
"403 174 CURVE"
);
},
{
closed = 1;
nodes = (
"1058 740 LINE",
"-40 740 LINE",
"-40 680 LINE",
"487 680 LINE",
"487 0 LINE",
"552 0 LINE",
"552 340 OFFCURVE",
"552 680 OFFCURVE",
"552 680 CURVE",
"1058 680 LINE"
);
}
);
width = 1018;
},
{
anchors = (
{
name = abvm.e;
position = "{590, 740}";
},
{
name = blwm.u;
position = "{591, -89}";
},
{
name = blwm.virama;
position = "{590, -38}";
}
);
layerId = "22D14058-393A-410A-BECB-F56B411A01B2";
paths = (
{
closed = 1;
nodes = (
"305 86 CURVE SMOOTH",
"434 86 OFFCURVE",
"482 184 OFFCURVE",
"464 310 CURVE",
"433 309 LINE",
"433 251 OFFCURVE",
"394 214 OFFCURVE",
"335 214 CURVE SMOOTH",
"274 214 OFFCURVE",
"239 251 OFFCURVE",
"239 308 CURVE SMOOTH",
"239 365 OFFCURVE",
"274 402 OFFCURVE",
"335 402 CURVE SMOOTH",
"394 402 OFFCURVE",
"433 366 OFFCURVE",
"433 308 CURVE",
"466 320 LINE",
"487 443 OFFCURVE",
"418 542 OFFCURVE",
"289 542 CURVE SMOOTH",
"151 542 OFFCURVE",
"74 433 OFFCURVE",
"74 308 CURVE SMOOTH",
"74 183 OFFCURVE",
"161 86 OFFCURVE"
);
},
{
closed = 1;
nodes = (
"645 93 LINE",
"800 60 OFFCURVE",
"934 141 OFFCURVE",
"934 308 CURVE SMOOTH",
"934 433 OFFCURVE",
"862 542 OFFCURVE",
"724 542 CURVE SMOOTH",
"595 542 OFFCURVE",
"536 443 OFFCURVE",
"557 320 CURVE",
"590 299 LINE",
"590 360 OFFCURVE",
"622 402 OFFCURVE",
"678 402 CURVE SMOOTH",
"740 402 OFFCURVE",
"769 361 OFFCURVE",
"769 308 CURVE SMOOTH",
"769 246 OFFCURVE",
"729 207 OFFCURVE",
"644 222 CURVE"
);
},
{
closed = 1;
nodes = (
"125 -46 CURVE",
"125 -46 OFFCURVE",
"293 -46 OFFCURVE",
"293 -46 CURVE",
"293 -46 OFFCURVE",
"452 167 OFFCURVE",
"452 167 CURVE",
"452 167 OFFCURVE",
"271 129 OFFCURVE",
"271 129 CURVE",
"260 113 OFFCURVE",
"125 -46 OFFCURVE"
);
},
{
closed = 1;
nodes = (
"1007 740 LINE",
"-20 740 LINE",
"-20 600 LINE",
"433 600 LINE",
"433 0 LINE",
"590 0 LINE",
"590 600 LINE",
"1007 600 LINE"
);
}
);
width = 987;
}
);
},
{
glyphname = dvKH_RA;
lastChange = "2016-08-13 07:58:21 +0000";
layers = (
{
layerId = "C0ED9D5D-A651-429A-8F5D-D93A2EDA2DC0";
paths = (
{
closed = 1;
nodes = (
"218 -102 LINE",
"218 -104 LINE",
"218 -104 OFFCURVE",
"295 -104 OFFCURVE",
"295 -104 CURVE",
"578 197 LINE",
"578 197 OFFCURVE",
"445 115 OFFCURVE",
"445 115 CURVE",
"441 118 LINE"
);
},
{
closed = 1;
nodes = (
"150 353 LINE",
"295 353 OFFCURVE",
"337 399 OFFCURVE",
"337 581 CURVE SMOOTH",
"337 687 LINE",
"273 690 LINE",
"273 582 LINE SMOOTH",
"273 416 OFFCURVE",
"253 407 OFFCURVE",
"122 407 CURVE SMOOTH",
"85 407 LINE",
"85 253 LINE SMOOTH",
"85 109 OFFCURVE",
"177 30 OFFCURVE",
"319 30 CURVE SMOOTH",
"446 30 OFFCURVE",
"524 116 OFFCURVE",
"532 214 CURVE",
"490 220 LINE",
"484 140 OFFCURVE",
"435 89 OFFCURVE",
"322 89 CURVE SMOOTH",
"208 89 OFFCURVE",
"150 138 OFFCURVE",
"150 255 CURVE SMOOTH"
);
},
{
closed = 1;
nodes = (
"596 493 CURVE SMOOTH",
"684 493 OFFCURVE",
"740 437 OFFCURVE",
"740 349 CURVE",
"771 355 LINE",
"781 462 OFFCURVE",
"733 553 OFFCURVE",
"586 553 CURVE SMOOTH",
"467 553 OFFCURVE",
"384 469 OFFCURVE",
"384 349 CURVE SMOOTH",
"384 229 OFFCURVE",
"467 145 OFFCURVE",
"586 145 CURVE SMOOTH",
"723 145 OFFCURVE",
"781 236 OFFCURVE",
"771 343 CURVE",
"740 349 LINE",
"740 261 OFFCURVE",
"684 205 OFFCURVE",
"596 205 CURVE SMOOTH",
"508 205 OFFCURVE",
"449 261 OFFCURVE",
"449 349 CURVE SMOOTH",
"449 437 OFFCURVE",
"508 493 OFFCURVE"
);
},
{
closed = 1;
nodes = (
"740 0 LINE",
"805 0 LINE",
"805 340 OFFCURVE",
"805 680 OFFCURVE",
"805 680 CURVE",
"945 680 LINE",
"945 740 LINE",
"-40 740 LINE",
"-40 680 LINE",
"740 680 LINE"
);
}
);
width = 905;
},
{
layerId = "22D14058-393A-410A-BECB-F56B411A01B2";
paths = (
{
closed = 1;
nodes = (
"208 -89 CURVE",
"208 -99 LINE",
"208 -99 OFFCURVE",
"376 -99 OFFCURVE",
"376 -99 CURVE",
"376 -99 OFFCURVE",
"625 205 OFFCURVE",
"625 205 CURVE",
"625 205 OFFCURVE",
"588 205 OFFCURVE",
"551 204 CURVE SMOOTH",
"514 204 OFFCURVE",
"477 203 OFFCURVE",
"477 203 CURVE",
"467 188 OFFCURVE",
"243 -50 OFFCURVE"
);
},
{
closed = 1;
nodes = (
"237 297 LINE",
"382 317 OFFCURVE",
"408 391 OFFCURVE",
"408 592 CURVE SMOOTH",
"408 610 LINE",
"408 610 OFFCURVE",
"243 610 OFFCURVE",
"243 610 CURVE",
"243 591 LINE SMOOTH",
"243 439 OFFCURVE",
"218 409 OFFCURVE",
"90 407 CURVE SMOOTH",
"84 407 OFFCURVE",
"77 407 OFFCURVE",
"71 407 CURVE",
"71 309 LINE SMOOTH",
"71 116 OFFCURVE",
"179 38 OFFCURVE",
"348 38 CURVE SMOOTH",
"510 38 OFFCURVE",
"600 132 OFFCURVE",
"600 248 CURVE",
"491 246 LINE",
"479 192 OFFCURVE",
"450 166 OFFCURVE",
"363 166 CURVE SMOOTH",
"273 166 OFFCURVE",
"237 207 OFFCURVE",
"237 287 CURVE SMOOTH"
);
},
{
closed = 1;
nodes = (
"648 403 CURVE SMOOTH",
"697 403 OFFCURVE",
"725 373 OFFCURVE",
"725 322 CURVE",
"751 343 LINE",
"774 454 OFFCURVE",
"711 529 OFFCURVE",
"605 529 CURVE SMOOTH",
"494 529 OFFCURVE",
"419 440 OFFCURVE",
"419 323 CURVE SMOOTH",
"419 207 OFFCURVE",
"492 116 OFFCURVE",
"605 116 CURVE SMOOTH",
"711 116 OFFCURVE",
"774 192 OFFCURVE",
"751 303 CURVE",
"725 324 LINE",
"725 273 OFFCURVE",
"694 243 OFFCURVE",
"648 243 CURVE SMOOTH",
"598 243 OFFCURVE",
"566 272 OFFCURVE",
"566 323 CURVE SMOOTH",
"566 373 OFFCURVE",
"598 403 OFFCURVE"
);
},
{
closed = 1;
nodes = (
"726 0 LINE",
"883 0 LINE",
"883 600 LINE",
"978 600 LINE",
"978 740 LINE",
"-20 740 LINE",
"-20 600 LINE",
"726 600 LINE"
);
}
);
width = 958;
}
);
},
{
glyphname = dvG_RA;
lastChange = "2016-08-13 07:58:21 +0000";
layers = (
{
layerId = "C0ED9D5D-A651-429A-8F5D-D93A2EDA2DC0";
paths = (
{
closed = 1;
nodes = (
"169 0 LINE",
"169 0 OFFCURVE",
"252 0 OFFCURVE",
"252 0 CURVE",
"561 347 LINE",
"561 347 OFFCURVE",
"546 406 OFFCURVE",
"546 406 CURVE"
);
},
{
closed = 1;
nodes = (
"301 690 LINE",
"237 690 LINE",
"237 425 LINE",
"237 353 OFFCURVE",
"232 297 OFFCURVE",
"162 297 CURVE SMOOTH",
"92 297 OFFCURVE",
"86 353 OFFCURVE",
"86 425 CURVE",
"22 425 LINE",
"17 310 OFFCURVE",
"60 237 OFFCURVE",
"162 237 CURVE",
"268 237 OFFCURVE",
"301 304 OFFCURVE",
"301 425 CURVE"
);
},
{
closed = 1;
nodes = (
"727 680 CURVE",
"727 740 LINE",
"-40 740 LINE",
"-40 680 LINE",
"522 680 LINE",
"522 0 LINE",
"587 0 LINE",
"587 680 LINE",
"587 680 OFFCURVE",
"727 680 OFFCURVE"
);
}
);
width = 687;
},
{
layerId = "22D14058-393A-410A-BECB-F56B411A01B2";
paths = (
{
closed = 1;
nodes = (
"259 -7 CURVE",
"259 -7 OFFCURVE",
"437 -7 OFFCURVE",
"437 -7 CURVE",
"437 -7 OFFCURVE",
"675 271 OFFCURVE",
"675 271 CURVE",
"675 271 OFFCURVE",
"576 330 OFFCURVE",
"576 330 CURVE",
"565 314 OFFCURVE",
"259 -7 OFFCURVE"
);
},
{
closed = 1;
nodes = (
"444 641 LINE",
"444 641 OFFCURVE",
"290 620 OFFCURVE",
"290 620 CURVE",
"290 401 LINE SMOOTH",
"290 356 OFFCURVE",
"292 305 OFFCURVE",
"247 305 CURVE SMOOTH",
"204 305 OFFCURVE",
"200 348 OFFCURVE",
"200 391 CURVE",
"36 391 LINE",
"34 241 OFFCURVE",
"97 165 OFFCURVE",
"243 165 CURVE SMOOTH",
"394 165 OFFCURVE",
"444 254 OFFCURVE",
"444 404 CURVE SMOOTH"
);
},
{
closed = 1;
nodes = (
"835 600 LINE",
"835 740 LINE",
"-20 740 LINE",
"-20 600 LINE",
"576 600 LINE",
"576 0 LINE",
"740 0 LINE",
"740 600 LINE"
);
}
);
width = 815;
}
);
},
{
glyphname = dvGH_RA;
lastChange = "2016-08-13 07:58:21 +0000";
layers = (
{
layerId = "C0ED9D5D-A651-429A-8F5D-D93A2EDA2DC0";
paths = (
{
closed = 1;
nodes = (
"223 -30 LINE",
"223 -30 OFFCURVE",
"306 -30 OFFCURVE",
"306 -30 CURVE",
"570 258 LINE",
"570 258 OFFCURVE",
"427 174 OFFCURVE",
"427 174 CURVE"
);
},
{
closed = 1;
nodes = (
"734 740 LINE",
"-40 740 LINE",
"-40 680 LINE",
"734 680 LINE"
);
},
{
closed = 1;
nodes = (
"594 0 LINE",
"594 690 LINE",
"594 690 OFFCURVE",
"529 698 OFFCURVE",
"529 698 CURVE",
"529 0 LINE"
);
},
{
closed = 1;
nodes = (
"559 316 CURVE",
"529 356 LINE",
"529 241 OFFCURVE",
"432 170 OFFCURVE",
"316 170 CURVE",
"227 170 OFFCURVE",
"143 201 OFFCURVE",
"143 291 CURVE SMOOTH",
"143 379 OFFCURVE",
"217 416 OFFCURVE",
"306 416 CURVE SMOOTH",
"306 416 OFFCURVE",
"339 416 OFFCURVE",
"339 416 CURVE",
"339 416 OFFCURVE",
"339 475 OFFCURVE",
"339 475 CURVE",
"306 475 LINE SMOOTH",
"187 475 OFFCURVE",
"162 520 OFFCURVE",
"162 642 CURVE SMOOTH",
"162 680 LINE",
"96 693 LINE",
"96 642 LINE SMOOTH",
"96 546 OFFCURVE",
"107 484 OFFCURVE",
"182 451 CURVE",
"182 445 LINE",
"122 420 OFFCURVE",
"78 368 OFFCURVE",
"78 292 CURVE SMOOTH",
"78 170 OFFCURVE",
"186 115 OFFCURVE",
"306 115 CURVE SMOOTH",
"445 115 OFFCURVE",
"551 188 OFFCURVE"
);
}
);
width = 694;
},
{
layerId = "22D14058-393A-410A-BECB-F56B411A01B2";
paths = (
{
closed = 1;
nodes = (
"127 -47 CURVE",
"127 -47 OFFCURVE",
"305 -47 OFFCURVE",
"305 -47 CURVE",
"305 -47 OFFCURVE",
"477 190 OFFCURVE",
"477 190 CURVE",
"477 190 OFFCURVE",
"268 129 OFFCURVE",
"268 129 CURVE",
"257 113 OFFCURVE",
"127 -47 OFFCURVE"
);
},
{
closed = 1;
nodes = (
"718 740 LINE",
"-20 740 LINE",
"-20 600 LINE",
"718 600 LINE"
);
},
{
closed = 1;
nodes = (
"623 0 LINE",
"623 622 LINE",
"623 622 OFFCURVE",
"458 622 OFFCURVE",
"458 622 CURVE",
"458 0 LINE"
);
},
{
closed = 1;
nodes = (
"506 262 CURVE",
"458 358 LINE",
"458 278 OFFCURVE",
"397 232 OFFCURVE",
"320 232 CURVE SMOOTH",
"275 232 OFFCURVE",
"231 250 OFFCURVE",
"231 295 CURVE SMOOTH",
"231 332 OFFCURVE",
"258 356 OFFCURVE",
"318 356 CURVE SMOOTH",
"369 356 LINE",
"369 488 LINE",
"321 488 LINE SMOOTH",
"253 488 OFFCURVE",
"243 533 OFFCURVE",
"243 602 CURVE SMOOTH",
"243 655 LINE",
"78 618 LINE",
"78 602 LINE SMOOTH",
"78 496 OFFCURVE",
"104 450 OFFCURVE",
"159 424 CURVE",
"159 418 LINE",
"110 397 OFFCURVE",
"66 350 OFFCURVE",
"66 278 CURVE SMOOTH",
"66 155 OFFCURVE",
"176 108 OFFCURVE",
"283 108 CURVE SMOOTH",
"406 108 OFFCURVE",
"482 153 OFFCURVE"
);
}
);
width = 698;
}
);
},
{
glyphname = dvRashtrasign;
lastChange = "2016-08-13 07:58:21 +0000";
layers = (
{
layerId = "C0ED9D5D-A651-429A-8F5D-D93A2EDA2DC0";
paths = (
{
closed = 1;
nodes = (
"-18 -111 CURVE",
"-195 86 LINE",
"-195 86 OFFCURVE",
"-258 86 OFFCURVE",
"-258 86 CURVE",
"-99 -111 LINE",
"-99 -111 OFFCURVE",
"-18 -111 OFFCURVE"
);
},
{
closed = 1;
nodes = (
"-361 -111 CURVE",
"-195 86 LINE",
"-195 86 OFFCURVE",
"-258 86 OFFCURVE",
"-258 86 CURVE",
"-442 -111 LINE",
"-442 -111 OFFCURVE",
"-361 -111 OFFCURVE"
);
}
);
width = 0;
},
{
layerId = "22D14058-393A-410A-BECB-F56B411A01B2";
paths = (
{
closed = 1;
nodes = (
"-88 -88 LINE",
"-200 54 LINE",
"-338 54 LINE",
"-243 -88 LINE"
);
},
{
closed = 1;
nodes = (
"-397 -88 LINE",
"-302 54 LINE",
"-440 54 LINE",
"-552 -88 LINE"
);
}
);
width = 0;
}
);
},
{
glyphname = dvC_RA;
lastChange = "2016-08-13 07:58:21 +0000";
layers = (
{
layerId = "C0ED9D5D-A651-429A-8F5D-D93A2EDA2DC0";
paths = (
{
closed = 1;
nodes = (
"411 474 LINE",
"49 474 LINE",
"49 531 LINE",
"411 531 LINE"
);
},
{
closed = 1;
nodes = (
"576 260 LINE",
"572 236 OFFCURVE",
"509 107 OFFCURVE",
"370 107 CURVE SMOOTH",
"243 107 OFFCURVE",
"143 188 OFFCURVE",
"143 312 CURVE SMOOTH",
"143 443 OFFCURVE",
"242 513 OFFCURVE",
"374 503 CURVE",
"385 474 LINE",
"277 474 OFFCURVE",
"208 416 OFFCURVE",
"208 315 CURVE SMOOTH",
"208 218 OFFCURVE",
"280 164 OFFCURVE",
"380 164 CURVE SMOOTH",
"481 164 OFFCURVE",
"555 246 OFFCURVE",
"555 345 CURVE"
);
},
{
closed = 1;
nodes = (
"613 268 CURVE",
"346 -43 LINE",
"346 -43 OFFCURVE",
"263 -43 OFFCURVE",
"263 -43 CURVE",
"472 174 LINE",
"472 174 OFFCURVE",
"613 268 OFFCURVE"
);
},
{
closed = 1;
nodes = (
"-40 740 LINE",
"760 740 LINE",
"760 680 LINE",
"760 680 OFFCURVE",
"620 680 OFFCURVE",
"620 680 CURVE",
"620 0 LINE",
"555 0 LINE",
"555 680 LINE",
"555 680 OFFCURVE",
"-40 680 OFFCURVE",
"-40 680 CURVE"
);
}
);
width = 720;
},
{
layerId = "22D14058-393A-410A-BECB-F56B411A01B2";
paths = (
{
closed = 1;
nodes = (
"421 382 LINE",
"421 382 OFFCURVE",
"50 382 OFFCURVE",
"50 382 CURVE",
"50 511 LINE",
"421 511 LINE"
);
},
{
closed = 1;
nodes = (
"553 324 LINE",
"563 190 OFFCURVE",
"503 92 OFFCURVE",
"358 92 CURVE SMOOTH",
"232 92 OFFCURVE",
"135 149 OFFCURVE",
"135 272 CURVE SMOOTH",
"135 390 OFFCURVE",
"246 451 OFFCURVE",
"329 433 CURVE",
"381 382 LINE",
"332 382 OFFCURVE",
"289 355 OFFCURVE",
"289 302 CURVE SMOOTH",
"289 246 OFFCURVE",
"333 218 OFFCURVE",
"391 218 CURVE SMOOTH",
"469 218 OFFCURVE",
"513 279 OFFCURVE",
"513 369 CURVE"
);
},
{
closed = 1;
nodes = (
"523 166 CURVE",
"523 166 OFFCURVE",
"354 -52 OFFCURVE",
"354 -52 CURVE",
"354 -52 OFFCURVE",
"178 -52 OFFCURVE",
"178 -52 CURVE",
"178 -52 OFFCURVE",
"339 131 OFFCURVE",
"350 147 CURVE",
"350 147 OFFCURVE",
"523 166 OFFCURVE"
);
},
{
closed = 1;
nodes = (
"-20 740 LINE",
"773 740 LINE",
"773 600 LINE",
"678 600 LINE",
"678 0 LINE",
"513 0 LINE",
"513 600 LINE",
"-20 600 LINE"
);
}
);
width = 753;
}
);
},
{
glyphname = dvJ_RA;
lastChange = "2016-08-13 07:58:21 +0000";
layers = (
{
layerId = "C0ED9D5D-A651-429A-8F5D-D93A2EDA2DC0";
paths = (
{
closed = 1;
nodes = (
"139 428 CURVE SMOOTH",
"139 518 LINE",
"74 518 LINE",
"74 406 LINE SMOOTH",
"74 261 OFFCURVE",
"96 136 OFFCURVE",
"263 136 CURVE SMOOTH",
"430 136 OFFCURVE",
"452 261 OFFCURVE",
"452 406 CURVE SMOOTH",
"452 518 LINE",
"387 518 LINE",
"387 428 LINE SMOOTH",
"387 295 OFFCURVE",
"387 196 OFFCURVE",
"263 196 CURVE SMOOTH",
"139 196 OFFCURVE",
"139 295 OFFCURVE"
);
},
{
closed = 1;
nodes = (
"654 460 LINE",
"654 0 LINE",
"719 0 LINE",
"719 680 LINE",
"859 680 LINE",
"859 740 LINE",
"-40 740 LINE",
"-40 680 LINE",
"654 680 LINE",
"654 518 LINE",
"392 518 LINE",
"392 460 LINE"
);
},
{
closed = 1;
nodes = (
"328 -22 LINE",
"328 -22 OFFCURVE",
"411 -22 OFFCURVE",
"411 -22 CURVE",
"698 321 LINE",
"698 321 OFFCURVE",
"683 380 OFFCURVE",
"683 380 CURVE"
);
}
);
width = 819;
},
{
layerId = "22D14058-393A-410A-BECB-F56B411A01B2";
paths = (
{
closed = 1;
nodes = (
"211 404 CURVE",
"211 497 LINE",
"47 497 LINE",
"47 377 LINE",
"47 251 OFFCURVE",
"110 143 OFFCURVE",
"285 143 CURVE SMOOTH",
"440 143 OFFCURVE",
"513 225 OFFCURVE",
"513 377 CURVE SMOOTH",
"513 497 LINE",
"352 497 LINE",
"352 404 LINE SMOOTH",
"352 330 OFFCURVE",
"345 283 OFFCURVE",
"285 283 CURVE",
"225 283 OFFCURVE",
"211 330 OFFCURVE"
);
},
{
closed = 1;
nodes = (
"618 366 LINE",
"618 0 LINE",
"782 0 LINE",
"782 600 LINE",
"877 600 LINE",
"877 740 LINE",
"-20 740 LINE",
"-20 600 LINE",
"618 600 LINE",
"618 497 LINE",
"366 497 LINE",
"366 366 LINE"
);
},
{
closed = 1;
nodes = (
"290 -61 CURVE",
"290 -61 OFFCURVE",
"475 -61 OFFCURVE",
"475 -61 CURVE",
"475 -61 OFFCURVE",
"703 231 OFFCURVE",
"703 231 CURVE",
"703 231 OFFCURVE",
"621 312 OFFCURVE",
"621 312 CURVE",
"610 296 OFFCURVE",
"290 -61 OFFCURVE"
);
}
);
width = 857;
}
);
},
{
glyphname = dvJH_RA;
lastChange = "2016-08-13 07:58:21 +0000";
layers = (
{
layerId = "C0ED9D5D-A651-429A-8F5D-D93A2EDA2DC0";
paths = (
{
closed = 1;
nodes = (
"432 -96 LINE",
"432 -96 OFFCURVE",
"507 -96 OFFCURVE",
"507 -96 CURVE",
"707 254 LINE",
"707 254 OFFCURVE",
"680 306 OFFCURVE",
"680 306 CURVE"
);
},
{
closed = 1;
nodes = (
"879 680 LINE",
"879 740 LINE",
"-40 740 LINE",
"-40 680 LINE"
);
},
{
closed = 1;
nodes = (
"674 0 LINE",
"739 0 LINE",
"739 705 LINE",
"739 705 OFFCURVE",
"674 705 OFFCURVE",
"674 705 CURVE"
);
},
{
closed = 1;
nodes = (
"418 522 LINE",
"483 522 LINE",
"483 718 LINE",
"418 718 LINE"
);
},
{
closed = 1;
nodes = (
"725 290 LINE",
"725 343 LINE",
"313 343 LINE SMOOTH",
"239 343 OFFCURVE",
"176 353 OFFCURVE",
"176 429 CURVE SMOOTH",
"176 506 OFFCURVE",
"251 511 OFFCURVE",
"326 511 CURVE SMOOTH",
"483 511 LINE",
"483 516 LINE",
"483 571 LINE",
"329 571 LINE SMOOTH",
"216 571 OFFCURVE",
"111 551 OFFCURVE",
"111 430 CURVE SMOOTH",
"111 313 OFFCURVE",
"206 287 OFFCURVE",
"326 287 CURVE SMOOTH",
"418 287 OFFCURVE",
"457 271 OFFCURVE",
"457 198 CURVE SMOOTH",
"457 130 OFFCURVE",
"421 90 OFFCURVE",
"335 90 CURVE SMOOTH",
"243 90 OFFCURVE",
"175 148 OFFCURVE",
"170 231 CURVE",
"105 231 LINE",
"105 -30 LINE",
"170 -30 LINE",
"170 114 LINE",
"198 69 OFFCURVE",
"267 31 OFFCURVE",
"343 31 CURVE SMOOTH",
"470 31 OFFCURVE",
"522 110 OFFCURVE",
"522 192 CURVE SMOOTH",
"522 238 OFFCURVE",
"501 276 OFFCURVE",
"476 290 CURVE"
);
}
);
width = 839;
},
{
layerId = "22D14058-393A-410A-BECB-F56B411A01B2";
paths = (
{
closed = 1;
nodes = (
"385 -122 CURVE",
"385 -122 OFFCURVE",
"553 -122 OFFCURVE",
"553 -122 CURVE",
"553 -122 OFFCURVE",
"779 242 OFFCURVE",
"779 242 CURVE",
"779 242 OFFCURVE",
"695 297 OFFCURVE",
"695 297 CURVE",
"684 281 OFFCURVE",
"385 -122 OFFCURVE"
);
},
{
closed = 1;
nodes = (
"958 600 LINE",
"958 740 LINE",
"-20 740 LINE",
"-20 600 LINE"
);
},
{
closed = 1;
nodes = (
"699 0 LINE",
"863 0 LINE",
"863 723 LINE",
"699 723 LINE"
);
},
{
closed = 1;
nodes = (
"307 506 LINE",
"472 506 LINE",
"472 718 LINE",
"307 718 LINE"
);
},
{
closed = 1;
nodes = (
"735 230 LINE",
"726 356 LINE",
"306 356 LINE SMOOTH",
"259 356 OFFCURVE",
"229 356 OFFCURVE",
"229 388 CURVE SMOOTH",
"229 418 OFFCURVE",
"264 421 OFFCURVE",
"317 421 CURVE SMOOTH",
"472 421 LINE",
"472 518 LINE",
"322 551 LINE",
"268 551 LINE SMOOTH",
"159 551 OFFCURVE",
"63 509 OFFCURVE",
"63 399 CURVE SMOOTH",
"63 243 OFFCURVE",
"191 231 OFFCURVE",
"282 231 CURVE SMOOTH",
"336 231 OFFCURVE",
"373 231 OFFCURVE",
"373 189 CURVE SMOOTH",
"373 154 OFFCURVE",
"346 137 OFFCURVE",
"308 137 CURVE SMOOTH",
"262 137 OFFCURVE",
"234 158 OFFCURVE",
"234 204 CURVE",
"79 204 LINE",
"79 -60 LINE",
"234 -60 LINE",
"234 44 LINE",
"260 22 OFFCURVE",
"310 11 OFFCURVE",
"347 11 CURVE SMOOTH",
"457 11 OFFCURVE",
"510 77 OFFCURVE",
"510 163 CURVE SMOOTH",
"510 187 OFFCURVE",
"501 217 OFFCURVE",
"486 230 CURVE"
);
}
);
width = 938;
}
);
},
{
glyphname = dvNY_RA;
lastChange = "2016-08-13 07:58:21 +0000";
layers = (
{
layerId = "C0ED9D5D-A651-429A-8F5D-D93A2EDA2DC0";
paths = (
{
closed = 1;
nodes = (
"399 0 LINE",
"399 0 OFFCURVE",
"482 0 OFFCURVE",
"482 0 CURVE",
"700 279 LINE",
"700 279 OFFCURVE",
"685 338 OFFCURVE",
"685 338 CURVE"
);
},
{
closed = 1;
nodes = (
"663 0 LINE",
"728 0 LINE",
"728 680 LINE",
"728 680 OFFCURVE",
"868 680 OFFCURVE",
"868 680 CURVE",
"868 740 LINE",
"-40 740 LINE",
"-40 680 LINE",
"663 680 LINE"
);
},
{
closed = 1;
nodes = (
"703 325 LINE",
"703 383 LINE",
"468 383 LINE",
"468 325 LINE"
);
},
{
closed = 1;
nodes = (
"288 589 CURVE SMOOTH",
"146 589 OFFCURVE",
"82 502 OFFCURVE",
"66 424 CURVE",
"132 424 LINE",
"145 476 OFFCURVE",
"192 529 OFFCURVE",
"288 529 CURVE SMOOTH",
"398 529 OFFCURVE",
"448 460 OFFCURVE",
"448 351 CURVE",
"448 242 OFFCURVE",
"398 173 OFFCURVE",
"288 173 CURVE SMOOTH",
"192 173 OFFCURVE",
"145 226 OFFCURVE",
"132 278 CURVE",
"66 278 LINE",
"82 200 OFFCURVE",
"146 113 OFFCURVE",
"288 113 CURVE SMOOTH",
"445 113 OFFCURVE",
"513 224 OFFCURVE",
"513 351 CURVE",
"513 478 OFFCURVE",
"445 589 OFFCURVE"
);
}
);
width = 828;
},
{
layerId = "22D14058-393A-410A-BECB-F56B411A01B2";
paths = (
{
closed = 1;
nodes = (
"352 -73 CURVE",
"352 -73 OFFCURVE",
"531 -73 OFFCURVE",
"531 -73 CURVE",
"531 -73 OFFCURVE",
"749 191 OFFCURVE",
"749 191 CURVE",
"749 191 OFFCURVE",
"682 249 OFFCURVE",
"682 249 CURVE",
"671 233 OFFCURVE",
"352 -73 OFFCURVE"
);
},
{
closed = 1;
nodes = (
"658 0 LINE",
"822 0 LINE",
"822 600 LINE",
"917 600 LINE",
"917 740 LINE",
"-20 740 LINE",
"-20 600 LINE",
"658 600 LINE"
);
},
{
closed = 1;
nodes = (
"748 232 LINE",
"748 372 LINE",
"470 372 LINE",
"470 232 LINE"
);
},
{
closed = 1;
nodes = (
"296 542 CURVE SMOOTH",
"160 542 OFFCURVE",
"71 469 OFFCURVE",
"56 357 CURVE",
"216 357 LINE",
"225 384 OFFCURVE",
"256 403 OFFCURVE",
"296 403 CURVE SMOOTH",
"356 403 OFFCURVE",
"385 357 OFFCURVE",
"385 300 CURVE SMOOTH",
"385 243 OFFCURVE",
"356 197 OFFCURVE",
"296 197 CURVE SMOOTH",
"256 197 OFFCURVE",
"225 216 OFFCURVE",
"216 243 CURVE",
"56 243 LINE",
"71 131 OFFCURVE",
"160 58 OFFCURVE",
"296 58 CURVE SMOOTH",
"445 58 OFFCURVE",
"541 152 OFFCURVE",
"541 300 CURVE",
"541 448 OFFCURVE",
"445 542 OFFCURVE"
);
}
);
width = 897;
}
);
},
{
glyphname = dvNN_RA;
lastChange = "2016-08-13 07:58:21 +0000";
layers = (
{
layerId = "C0ED9D5D-A651-429A-8F5D-D93A2EDA2DC0";
paths = (
{
closed = 1;
nodes = (
"361 0 LINE",
"361 0 OFFCURVE",
"444 0 OFFCURVE",
"444 0 CURVE",
"720 339 LINE",
"720 339 OFFCURVE",
"705 398 OFFCURVE",
"705 398 CURVE"
);
},
{
closed = 1;
nodes = (
"492 419 CURVE SMOOTH",
"492 705 LINE",
"492 705 OFFCURVE",
"427 705 OFFCURVE",
"427 705 CURVE",
"427 418 LINE SMOOTH",
"427 309 OFFCURVE",
"406 237 OFFCURVE",
"297 237 CURVE",
"188 237 OFFCURVE",
"167 309 OFFCURVE",
"167 418 CURVE SMOOTH",
"167 705 LINE",
"167 705 OFFCURVE",
"102 705 OFFCURVE",
"102 705 CURVE",
"102 419 LINE SMOOTH",
"102 273 OFFCURVE",
"151 177 OFFCURVE",
"297 177 CURVE",
"443 177 OFFCURVE",
"492 273 OFFCURVE"
);
},
{
closed = 1;
nodes = (
"888 680 CURVE",
"888 740 LINE",
"-40 740 LINE",
"-40 680 LINE",
"683 680 LINE",
"683 0 LINE",
"748 0 LINE",
"748 680 LINE",
"748 680 OFFCURVE",
"888 680 OFFCURVE"
);
}
);
width = 848;
},
{
layerId = "22D14058-393A-410A-BECB-F56B411A01B2";
paths = (
{
closed = 1;
nodes = (
"349 0 CURVE",
"349 0 OFFCURVE",
"527 0 OFFCURVE",
"527 0 CURVE",
"527 0 OFFCURVE",
"762 322 OFFCURVE",
"762 322 CURVE",
"762 322 OFFCURVE",
"663 381 OFFCURVE",
"663 381 CURVE",
"652 365 OFFCURVE",
"349 0 OFFCURVE"
);
},
{
closed = 1;
nodes = (
"537 417 CURVE SMOOTH",
"537 675 LINE",
"375 675 LINE",
"375 410 LINE SMOOTH",
"375 362 OFFCURVE",
"358 326 OFFCURVE",
"310 326 CURVE SMOOTH",
"263 326 OFFCURVE",
"245 362 OFFCURVE",
"245 410 CURVE SMOOTH",
"245 675 LINE",
"83 675 LINE",
"83 417 LINE SMOOTH",
"83 279 OFFCURVE",
"151 186 OFFCURVE",
"310 186 CURVE SMOOTH",
"469 186 OFFCURVE",
"537 279 OFFCURVE"
);
},
{
closed = 1;
nodes = (
"919 600 LINE",
"919 740 LINE",
"-20 740 LINE",
"-20 600 LINE",
"660 600 LINE",
"660 0 LINE",
"824 0 LINE",
"824 600 LINE"
);
}
);
width = 899;
}
);
},
{
glyphname = dvT_RA;
lastChange = "2016-08-13 07:58:21 +0000";
layers = (
{
layerId = "C0ED9D5D-A651-429A-8F5D-D93A2EDA2DC0";
paths = (
{
closed = 1;
nodes = (
"149 317 LINE",
"156 426 OFFCURVE",
"207 506 OFFCURVE",
"320 506 CURVE SMOOTH",
"414 506 OFFCURVE",
"470 443 OFFCURVE",
"486 355 CURVE",
"138 3 LINE",
"138 -1 LINE",
"226 -1 LINE",
"490 275 LINE",
"490 0 LINE",
"555 0 LINE",
"555 680 LINE",
"695 680 LINE",
"695 740 LINE",
"-20 740 LINE",
"-20 680 LINE",
"490 680 LINE",
"490 462 LINE",
"457 526 OFFCURVE",
"397 567 OFFCURVE",
"308 567 CURVE SMOOTH",
"171 567 OFFCURVE",
"92 463 OFFCURVE",
"84 317 CURVE"
);
}
);
width = 655;
},
{
layerId = "22D14058-393A-410A-BECB-F56B411A01B2";
paths = (
{
closed = 1;
nodes = (
"226 254 LINE",
"226 331 OFFCURVE",
"266 390 OFFCURVE",
"341 390 CURVE SMOOTH",
"393 390 OFFCURVE",
"430 370 OFFCURVE",
"450 336 CURVE",
"416 305 OFFCURVE",
"135 50 OFFCURVE",
"89 7 CURVE",
"89 0 LINE",
"304 0 LINE",
"467 173 LINE",
"467 0 LINE",
"631 0 LINE",
"631 600 LINE",
"726 600 LINE",
"726 740 LINE",
"-20 740 LINE",
"-20 600 LINE",
"467 600 LINE",
"467 470 LINE",
"430 506 OFFCURVE",
"380 528 OFFCURVE",
"312 528 CURVE SMOOTH",
"153 528 OFFCURVE",
"63 414 OFFCURVE",
"63 254 CURVE"
);
}
);
width = 706;
}
);
},
{
glyphname = dvTH_RA;
lastChange = "2016-08-13 07:58:21 +0000";
layers = (
{
layerId = "C0ED9D5D-A651-429A-8F5D-D93A2EDA2DC0";
paths = (
{
closed = 1;
nodes = (
"791 680 LINE",
"791 740 LINE",
"586 740 LINE",
"586 349 LINE SMOOTH",
"586 239 OFFCURVE",
"493 159 OFFCURVE",
"382 159 CURVE SMOOTH",
"233 159 OFFCURVE",
"163 254 OFFCURVE",
"170 389 CURVE",
"329 385 OFFCURVE",
"478 406 OFFCURVE",
"478 570 CURVE SMOOTH",
"478 678 OFFCURVE",
"405 750 OFFCURVE",
"300 750 CURVE SMOOTH",
"183 750 OFFCURVE",
"115 667 OFFCURVE",
"118 552 CURVE",
"183 552 LINE",
"181 633 OFFCURVE",
"217 690 OFFCURVE",
"299 690 CURVE SMOOTH",
"371 690 OFFCURVE",
"413 646 OFFCURVE",
"413 574 CURVE SMOOTH",
"413 461 OFFCURVE",
"330 443 OFFCURVE",
"195 443 CURVE SMOOTH",
"167 443 OFFCURVE",
"137 444 OFFCURVE",
"105 445 CURVE",
"81 251 OFFCURVE",
"177 102 OFFCURVE",
"375 102 CURVE SMOOTH",
"494 102 OFFCURVE",
"558 175 OFFCURVE",
"586 226 CURVE",
"586 0 LINE",
"651 0 LINE",
"651 680 LINE"
);
},
{
closed = 1;
nodes = (
"224 -45 LINE",
"224 -50 LINE",
"224 -50 OFFCURVE",
"318 -50 OFFCURVE",
"318 -50 CURVE",
"636 254 LINE",
"487 181 LINE"
);
}
);
width = 751;
},
{
layerId = "22D14058-393A-410A-BECB-F56B411A01B2";
paths = (
{
closed = 1;
nodes = (
"809 600 LINE",
"809 740 LINE",
"550 740 LINE",
"550 439 LINE SMOOTH",
"550 296 OFFCURVE",
"475 218 OFFCURVE",
"368 218 CURVE SMOOTH",
"268 218 OFFCURVE",
"224 277 OFFCURVE",
"232 347 CURVE",
"389 348 OFFCURVE",
"481 426 OFFCURVE",
"481 549 CURVE SMOOTH",
"481 685 OFFCURVE",
"385 747 OFFCURVE",
"276 747 CURVE SMOOTH",
"165 747 OFFCURVE",
"68 677 OFFCURVE",
"74 538 CURVE",
"223 538 LINE",
"220 581 OFFCURVE",
"239 607 OFFCURVE",
"273 607 CURVE SMOOTH",
"303 607 OFFCURVE",
"324 588 OFFCURVE",
"324 552 CURVE SMOOTH",
"324 491 OFFCURVE",
"263 468 OFFCURVE",
"176 468 CURVE SMOOTH",
"62 468 LINE",
"30 233 OFFCURVE",
"130 88 OFFCURVE",
"344 88 CURVE SMOOTH",
"450 88 OFFCURVE",
"520 131 OFFCURVE",
"550 180 CURVE",
"550 0 LINE",
"714 0 LINE",
"714 600 LINE"
);
},
{
closed = 1;
nodes = (
"136 -46 CURVE",
"136 -56 LINE",
"136 -56 OFFCURVE",
"313 -56 OFFCURVE",
"313 -56 CURVE",
"313 -56 OFFCURVE",
"563 181 OFFCURVE",
"563 181 CURVE",
"563 181 OFFCURVE",
"376 171 OFFCURVE",
"376 171 CURVE",
"366 157 OFFCURVE",
"182 -6 OFFCURVE"
);
}
);
width = 789;
}
);
},
